<svg width="1968" height="599" viewBox="0 0 1968 599" fill="none" xmlns="http://www.w3.org/2000/svg">
<g opacity="0.38">
<path fill-rule="evenodd" clip-rule="evenodd" d="M181.254 80.9125C175.254 117.985 226.867 156.483 263.75 110.856C290.748 183.575 398.047 109.938 339.447 74.5253C379.609 81.0418 382.66 34.991 341.64 38.4636L164.753 38.4636C136.354 46.5097 142.256 89.4681 181.254 80.9125Z" fill="white"/>
</g>
<g opacity="0.25">
<path fill-rule="evenodd" clip-rule="evenodd" d="M0.638916 349.886L0.638916 454.346C7.93626 456.742 10.3679 457.748 18.2134 456.855C32.5432 532.977 139.302 521.345 111.796 452.664C142.023 483.478 176.509 439.796 139.153 417.599C190.846 386.804 136.353 324.336 84.7328 345.747C82.6855 328.17 60.5258 303.538 28.0196 309.572C6.9355 313.484 -2.66875 333.728 0.638916 349.886Z" fill="white"/>
</g>
<g opacity="0.25">
<path fill-rule="evenodd" clip-rule="evenodd" d="M1534.26 38.7315L1416.74 38.7315C1414.62 44.0207 1423.81 48.0219 1439.59 50.9859C1372.22 61.3723 1382.52 138.753 1443.3 118.816C1416.03 140.723 1476.56 172.716 1480.56 123.284C1486.56 167.013 1556.87 136.614 1537.92 99.2003C1553.48 97.7145 1575.28 81.6547 1569.94 58.0936C1566.48 42.8105 1548.56 36.335 1534.26 38.7315Z" fill="white"/>
</g>
<g opacity="0.25">
<path fill-rule="evenodd" clip-rule="evenodd" d="M1756.25 488.57C1744.15 505.765 1756.25 535.73 1763.42 537.983C1792.31 547.053 1810.65 553.661 1845.39 501.991C1829.01 567.17 1921.62 608.042 1967.02 551.108V317.74C1944.93 323.213 1925.09 332.821 1915.8 345.462C1860.12 296.618 1789.87 340.215 1809.72 380.253C1737.88 288.986 1664.3 406.481 1733.11 420.305C1734.93 420.501 1736.78 420.789 1738.69 421.18C1736.72 420.967 1734.88 420.662 1733.11 420.305C1679.55 414.468 1684.2 493.747 1756.25 488.57Z" fill="white"/>
</g>
<g opacity="0.34">
<path fill-rule="evenodd" clip-rule="evenodd" d="M650.238 74.7636C650.877 22.7104 612.781 14.1436 584.015 44.6364C601.127 4.85625 557.083 -11.5135 482.747 18.9403C459.1 7.26993 424.396 8.67951 398.93 37.6055C354.76 7.57568 274.078 44.1483 320.577 92.6756C295.108 96.859 292.51 125.31 324.675 127.226C312.724 140.374 310.559 163.642 329.118 178.202C357.729 200.653 392.728 189.514 404.216 174.404C436.361 212.72 486.928 189.834 489.789 153.242C496.927 176.286 526.716 167.72 523.266 146.477C550.746 175.012 602.161 167.251 619.86 136.752C633.128 113.893 630.399 91.6529 618.825 83.4706C631.765 97.6975 650.128 83.7565 650.238 74.7636Z" fill="white"/>
</g>
<g opacity="0.25">
<path fill-rule="evenodd" clip-rule="evenodd" d="M709.426 558.615C689.219 596.848 739.826 609.886 761.09 584.13C773.254 594.511 786.182 596.255 796.989 593.025C814.35 603.062 839.89 602.042 858.718 577.599C891.122 603.34 950.6 572.684 916.546 531.216C935.297 527.791 937.302 503.634 913.642 501.841C922.478 490.732 924.145 470.976 910.538 458.509C889.563 439.288 863.774 448.572 855.274 461.349C831.747 428.631 782.004 444.271 788.484 481.343C765.157 464.233 753.849 477.211 746.49 493.499C738.01 485.134 716.663 482.585 703.277 501.238C694.595 513.337 698.821 528.335 707.31 535.346C689.258 540.992 694.398 559.336 709.426 558.615Z" fill="white"/>
</g>
<g opacity="0.47">
<path fill-rule="evenodd" clip-rule="evenodd" d="M1967.84 379.292C1948.58 427.561 1820.76 361.971 1884.55 315.5C1820.76 305.543 1864.61 215.924 1919.86 262.392C1888.19 241.101 1948.58 203.017 1967.84 224.222" fill="white"/>
</g>
</svg>
