<svg width="28" height="18" viewBox="0 0 28 18" fill="none" xmlns="http://www.w3.org/2000/svg">
<path fill-rule="evenodd" clip-rule="evenodd" d="M0.240479 1.04655C0.240479 0.557243 0.637139 0.160583 1.12644 0.160583H26.9946C27.4839 0.160583 27.8806 0.557243 27.8806 1.04655C27.8806 1.53585 27.4839 1.93251 26.9946 1.93251H1.12644C0.637139 1.93251 0.240479 1.53585 0.240479 1.04655ZM0.2405 9.04655C0.2405 8.55724 0.63716 8.16058 1.12646 8.16058H26.9946C27.4839 8.16058 27.8806 8.55724 27.8806 9.04655C27.8806 9.53585 27.4839 9.93251 26.9946 9.93251H1.12646C0.63716 9.93251 0.2405 9.53585 0.2405 9.04655ZM1.12646 16.1606C0.63716 16.1606 0.2405 16.5572 0.2405 17.0465C0.2405 17.5359 0.63716 17.9325 1.12646 17.9325H26.9946C27.4839 17.9325 27.8806 17.5359 27.8806 17.0465C27.8806 16.5572 27.4839 16.1606 26.9946 16.1606H1.12646Z" fill="white"/>
</svg>
