<?xml version="1.0"?>
<svg width="491" height="75" xmlns="http://www.w3.org/2000/svg" xmlns:svg="http://www.w3.org/2000/svg">
 <g class="layer">
  <title>Layer 1</title>
  <path d="m490.18,0l-490.18,0l0,74.91l490.18,0l0,-74.91z" fill="white" id="svg_1" transform="matrix(1 0 0 1 0 0)"/>
  <path clip-rule="evenodd" d="m100.99,19.02c-0.02,-0.17 0,0.01 0,0c2.69,5.21 6.1,-0.04 4.99,-2.44c-1.28,-2.81 -6.4,-0.48 -4.99,2.44z" fill="#C7EDFF" fill-rule="evenodd" id="svg_2"/>
  <path clip-rule="evenodd" d="m462.25,19.77c0.12,-0.13 0,0 0,0c-2.31,5.36 4.11,4.24 5.27,1.85c1.36,-2.77 -3.89,-4.79 -5.27,-1.85z" fill="#C7EDFF" fill-rule="evenodd" id="svg_3"/>
  <g id="svg_4" opacity="0.65">
   <path clip-rule="evenodd" d="m474.27,27.63c0,0.01 0.09,-0.08 0,0c-1.62,3.77 2.88,2.98 3.7,1.31c0.96,-1.94 -2.74,-3.36 -3.7,-1.31z" fill="#FFB296" fill-rule="evenodd" id="svg_5"/>
  </g>
  <g id="svg_6" opacity="0.65">
   <path clip-rule="evenodd" d="m406.22,10.46c0,0.01 0.08,-0.08 0,0c-1.62,3.77 2.88,2.98 3.7,1.31c0.95,-1.94 -2.74,-3.36 -3.7,-1.31z" fill="#FFF100" fill-rule="evenodd" id="svg_7"/>
  </g>
  <path clip-rule="evenodd" d="m24.2,48.05c0.06,-0.06 0,0 0,0c-1.04,2.43 1.87,1.92 2.39,0.84c0.61,-1.25 -1.76,-2.17 -2.39,-0.84z" fill="#59C8FD" fill-rule="evenodd" id="svg_8"/>
  <path clip-rule="evenodd" d="m448.13,55.06c-0.09,0.09 0,0 0,0c1.63,-3.78 -2.89,-2.98 -3.71,-1.3c-0.95,1.95 2.75,3.37 3.71,1.3z" fill="#C2EDFF" fill-rule="evenodd" id="svg_9"/>
  <g id="svg_10" opacity="0.65">
   <path clip-rule="evenodd" d="m16.67,39.69c-0.13,-0.04 0,0 0,0c4.59,0.08 1.9,-3.86 -0.18,-3.99c-2.41,-0.14 -2.37,3.88 0.18,3.99z" fill="#FFB296" fill-rule="evenodd" id="svg_11"/>
  </g>
  <path d="m103.71,70.46l0.34,-0.26l-0.15,-0.3l-0.19,0.56z" fill="#CAEFFF" id="svg_12"/>
  <path d="m105.9,69.49l0.38,-0.69c-1.06,-0.11 -0.5,-0.4 -1.74,0.13c-0.12,0.37 -0.42,1.26 -0.08,1.4c0.16,-0.26 0.15,-0.8 0.51,-1.08c0.1,0.29 -0.22,0.65 -0.1,1.03c0.68,-0.4 0.11,-0.49 0.71,-1.04l0.32,0.25z" fill="#CAEFFF" id="svg_13"/>
  <path d="m105.68,68.32l0.31,0.31c-0.09,-0.13 -0.04,-0.5 -0.31,-0.31z" fill="#CAEFFF" id="svg_14"/>
  <path d="m105.82,67.9c0.21,-0.41 0.3,0.15 0.37,0.13l-0.34,-0.73l-0.03,0.6z" fill="#CAEFFF" id="svg_15"/>
  <path d="m106.57,66.15l0.02,-0.21c-0.11,0.04 -0.06,0.12 -0.02,0.21z" fill="#CAEFFF" id="svg_16"/>
  <path d="m106.83,65.26c-0.23,0.14 -0.23,0.37 -0.23,0.68l0.04,-0.02c0.27,-0.2 0.58,0.14 0.31,0.52c-0.08,0.46 -0.46,0.28 -0.35,0.74l0.53,-0.39c0.22,-0.72 -0.19,-1.24 -0.3,-1.53z" fill="#CAEFFF" id="svg_17"/>
  <path d="m106.57,66.15l-0.07,0.24c0.11,-0.08 0.1,-0.16 0.07,-0.24z" fill="#CAEFFF" id="svg_18"/>
  <path d="m106.17,67.02l-0.01,0.25l0.18,0.02l-0.17,-0.27z" fill="#CAEFFF" id="svg_19"/>
  <path d="m106.98,63.73c0.56,0.17 -0.19,1.09 0.23,1.28c0.06,-0.61 0.54,-1.07 0.83,-0.9l-0.09,-0.73c-0.19,-0.25 -0.66,0.03 -0.97,0.35z" fill="#CAEFFF" id="svg_20"/>
  <path d="m108.59,62.42l-0.11,-0.17l0.11,0.17z" fill="#CAEFFF" id="svg_21"/>
  <path d="m107.11,58.96c0.41,0.46 0.58,0.99 0.86,1.52c-0.2,-0.13 -0.37,-0.05 -0.48,-0.41c0,0.73 0.38,0.78 0.39,1.39c-0.52,0.22 -0.16,-1.04 -0.6,-0.66c0.06,0.42 0.16,1.02 0.65,1.35l-0.38,0.67l0.62,-0.22c0.21,-0.29 -0.5,-0.55 -0.1,-0.73c0.24,-0.1 0.32,0.18 0.4,0.38c-0.16,-0.44 0.33,-1.26 0.14,-2.19c-0.17,-0.98 -1.03,-0.58 -1.5,-1.1z" fill="#CAEFFF" id="svg_22"/>
  <path d="m107.72,58.76l0.19,-0.16l-0.28,0.14l0.09,0.02z" fill="#CAEFFF" id="svg_23"/>
  <path d="m106.42,57.26l0.62,0.7l-0.2,0.27c0.12,-0.07 0.41,0.09 0.51,0.03c0.38,-0.53 -0.5,-0.97 -0.73,-1.36c-0.19,-1.24 0.29,-0.05 0.6,-0.68c0.1,0.34 -0.02,0.4 0.1,0.87c0.38,-0.96 -0.66,-1.63 -1.03,-1.98c0.03,0.16 -0.1,0.25 0.07,0.47l-0.4,-0.37c-0.18,0.66 0.1,0.99 0.46,2.05z" fill="#CAEFFF" id="svg_24"/>
  <path d="m106.9,58.68c-0.13,-0.28 -0.13,-0.4 -0.07,-0.45c-0.11,0.12 -0.18,0.24 0.07,0.45z" fill="#CAEFFF" id="svg_25"/>
  <path d="m106.15,54.89l0.14,0.22l-0.14,-0.22z" fill="#CAEFFF" id="svg_26"/>
  <path d="m105.83,55.59l-0.25,-0.55l-0.1,0.32c0.06,0.06 0.24,0.3 0.35,0.23z" fill="#CAEFFF" id="svg_27"/>
  <path d="m85.63,45.35c0.03,0.21 0.24,0.34 0.72,0.36c-0.1,0.26 -0.7,0.13 -1.01,0.25c0.6,0.25 -0.05,0.31 0.07,0.59c0.69,0.11 1.04,-0.2 1.77,-0.03c-0.04,0.07 -0.05,0.19 0.03,0.29c0.92,-0.07 2.46,-0.07 3.28,0.3c0.82,0.22 1.46,0.21 2.39,0.3c2.91,0.72 6.26,1.35 8.71,3.56l0.73,-0.13c-0.05,0.29 0.65,0.47 0.32,0.67l-0.45,-0.35c0.29,0.69 1.32,1.27 1.76,1.99c0.02,-0.13 0.31,-0.52 0.55,-0.38c-0.56,0.31 0.7,0.75 0.21,1.34c0.25,0.8 0.47,-0.25 0.82,0.56c0.36,-0.1 -0.26,-0.82 -0.11,-1.1c0.39,0.09 0.29,0.76 0.61,0.54c-0.57,-1.38 -3.01,-3.04 -4.97,-4.02l0.38,-0.13c-1,-0.61 -2.74,-1.13 -3.36,-2.06c0.09,0.36 -1.55,-0.66 -1.62,0.06c-0.22,-0.23 -0.31,-0.23 -0.68,-0.41l-0.17,0.18c-0.55,-0.17 -0.36,-0.49 -1.01,-0.61c0.34,0.39 -0.15,0.37 -0.4,0.58c-0.64,-0.49 -1.42,-0.97 -2.02,-1.38c0.03,0.11 0.06,0.23 0.26,0.41c-0.42,-0.2 -0.41,0.1 -0.55,0.17c-0.43,-0.06 -0.31,-0.43 -0.25,-0.63c-0.77,-0.24 -1.26,0.44 -1.8,0.1l0.15,0.34c-0.82,-0.05 -1.45,-0.52 -2.36,-0.52c-0.37,-0.47 0.79,-0.28 1.2,-0.39c-0.17,-0.12 -0.56,-0.2 -0.66,-0.35c-0.42,0.16 -1.11,0.38 -1.61,0.52c0.53,-0.43 -0.62,-0.55 -0.93,-0.62z" fill="#CAEFFF" id="svg_28"/>
  <path d="m88.17,45.45l0.29,-0.14l-0.31,0l0.02,0.14z" fill="#CAEFFF" id="svg_29"/>
  <path d="m85.63,45.35l-0.01,-0.05c-0.09,0.01 -0.07,0.03 0.01,0.05z" fill="#CAEFFF" id="svg_30"/>
  <path d="m90.61,47.16l-0.11,-0.05l-0.15,-0.03l0.26,0.08z" fill="#CAEFFF" id="svg_31"/>
  <path d="m91.55,45.87l0.63,0.45c-0.05,-0.15 -0.09,-0.28 -0.63,-0.45z" fill="#CAEFFF" id="svg_32"/>
  <path d="m96.97,47.55c0.19,0 0.13,-0.12 0.28,-0.18c-0.34,-0.12 -0.5,-0.06 -0.28,0.18z" fill="#CAEFFF" id="svg_33"/>
  <path d="m87.19,45.24l-0.7,0.01l-0.26,0.05l0.96,-0.06z" fill="#CAEFFF" id="svg_34"/>
  <path d="m73.2,45.16c0.53,0.48 1.45,0.35 2.18,0.53c1.38,-0.01 0.29,-0.78 1.58,-0.65l-0.33,0.72c1.29,0.13 3.1,0.48 4.27,-0.06c0.08,0.11 0.3,0.25 -0.05,0.32c0.86,0.06 0.58,-1.04 1.7,-0.65c-1.13,0.35 0.29,0.48 -0.07,0.92l-0.17,0.03c0.73,0.04 1.73,-0.1 2.2,-0.02c0.05,-0.19 -0.33,-0.54 0.32,-0.49c-0.26,-0.07 -0.13,-0.28 -0.08,-0.47c-0.69,0.14 -1.04,-0.03 -1.47,0.18c-0.34,-0.3 0.26,-0.06 -0.08,-0.35l-0.57,0.18c-0.38,-0.11 0.44,-0.21 -0.16,-0.34c-0.09,0.14 -0.61,0.25 -1.09,0.16l0.15,-0.07c-0.38,0.06 -0.88,-0.12 -0.75,0.32l-0.38,-0.47l0.04,0.29c-0.99,-0.22 -1.27,-0.96 -2.61,-0.74c0.3,0.12 -0.01,0.24 -0.18,0.28c0.51,0.26 0.69,-0.14 1.21,-0.12c0.04,0.29 -0.87,0.54 -0.28,0.78c-0.63,-0.42 -1.29,-0.1 -1.48,-0.86c-0.81,-0.15 -1.16,0.16 -1.96,-0.12l0.04,-0.1c-0.23,0.45 -0.64,-0.31 -1.33,0.1l0.42,0.16c-0.05,0.19 -0.27,0.17 -0.57,0.16c0.05,-0.07 0.05,-0.07 -0.03,-0.18c-0.15,0.33 -1.09,0.23 -1.23,0.31c0.38,0.12 0.91,-0.07 1.39,-0.09c-0.27,0.17 -0.25,0.47 -0.63,0.34z" fill="#CAEFFF" id="svg_35"/>
  <path d="m81.82,44.97l-0.29,0.13l0.29,-0.13z" fill="#CAEFFF" id="svg_36"/>
  <path d="m69.65,43.9c-0.49,-0.2 0.21,-0.26 -0.23,-0.52c-0.57,0.11 0.47,0.62 -0.12,0.85c-0.26,-0.28 -0.86,-0.04 -1.07,-0.09c0.29,-0.14 0.27,-0.62 0.21,-0.73c-0.23,0.08 -0.61,-0.24 -0.94,-0.33c0.74,0.47 -0.73,0 -0.09,0.47c-0.13,0.27 -0.96,0.24 -1.2,-0.07c0.08,-0.19 0.32,-0.07 0.52,0c0.28,-0.31 -0.44,-0.36 -0.44,-0.72c-0.93,0.29 -3.33,-0.66 -3,0.34c0.19,0.28 0.5,0.19 0.8,0.24c-0.74,-0.42 0.17,-0.41 0.3,-0.53c0.29,0.24 0.97,0.19 0.73,0.42l-0.67,0.11c1.69,0.79 4.18,1.36 6.29,1.63l-0.9,-0.19c0.15,-0.19 0.58,-0.12 0.93,-0.17l-0.32,-0.62c0.25,0.09 0.51,0.05 0.45,0.24c0.36,-0.18 0.25,-0.34 0.1,-0.55c0.68,0.01 0.75,0.24 1.33,-0.02c-1,-0.64 -1.01,0.22 -2.17,-0.41l-0.51,0.65z" fill="#CAEFFF" id="svg_37"/>
  <path d="m72.12,44.05l-0.32,0.23l0.44,-0.06l-0.12,-0.17z" fill="#CAEFFF" id="svg_38"/>
  <path d="m71.46,45.17l0.2,-0.26c-0.51,-0.17 -0.48,0 -0.2,0.26z" fill="#CAEFFF" id="svg_39"/>
  <path d="m65.66,42.53l-0.66,-0.12l0.37,0.23c0.03,-0.11 0.2,-0.11 0.29,-0.11z" fill="#CAEFFF" id="svg_40"/>
  <path d="m60.68,41.9c0.86,0.47 1.39,0.35 2.23,1.09c0.64,-0.1 0.08,-0.71 0.44,-0.91c-0.43,-0.29 -0.66,0.28 -1.22,0.14c-0.01,-0.37 -0.78,-0.25 -1.18,-0.61c-0.02,0.14 -0.1,0.26 -0.27,0.29z" fill="#CAEFFF" id="svg_41"/>
  <path d="m59.02,39c-0.24,-0.3 -0.71,-0.46 -0.79,-0.79c0.2,-0.08 0.41,0.05 0.52,0.26c0.28,-0.37 -0.34,-0.28 -0.35,-0.77c-0.02,0.06 0.01,0.22 -0.15,0.18c-0.48,-0.9 -0.62,-0.34 -0.97,-1.67c-0.2,-0.13 -0.28,-0.31 -0.57,-0.19c0.05,-0.83 0.22,-0.47 0.4,-1.44c-0.17,0.06 -0.54,0.45 -0.92,0.52c0.35,-1.44 -0.28,-1.39 0.01,-2.28c0.03,0.1 0.15,0.21 0.13,0.43c0.51,-0.13 -0.2,-0.7 -0.03,-1.19l0.46,0.05c-0.05,-0.43 -0.31,-1.21 0.06,-1.73l0.22,0.15c-0.26,-1.14 0.22,-2.4 0.21,-3.38l0.44,-0.42c0.06,-1.34 -0.56,1.22 -0.94,0.13c0.88,0.06 -0.06,-0.73 0.51,-1.38c0.43,-0.24 -0.07,0.78 0.43,0.51c-0.37,-0.28 0,-0.42 0,-0.84c0.37,0.21 0.31,-0.78 0.68,-0.4l-0.13,-1.56c0.31,-0.12 0.45,-0.51 0.53,-0.8c-0.34,0.7 -0.46,-0.46 -1.02,0.27c-0.47,1.23 -0.97,3.32 -1.58,4.83c0.53,0.28 -0.19,1.01 0.22,1.34l-0.55,0.11c-0.07,1.04 0.35,-0.19 0.51,0.09c0,0.44 -0.41,0.76 -0.61,0.7c-0.12,0.73 0.14,0.1 0.41,0.5l-0.65,0.43c-0.13,2.37 0.74,5.4 1.94,7.79l0.2,-0.35c0.7,1.02 1.79,1.06 2.14,2.19l0.51,-0.03c-0.29,0.02 -0.2,0.55 -0.63,0.56c0.36,0.1 0.56,0.43 0.92,0.54l-0.39,-0.51c0.55,0.01 0.8,0.43 0.76,0.75c0.97,0.2 -0.09,-0.84 -0.02,-1.21c-1.41,-0.23 -0.65,-1.13 -1.5,-1.77c-0.61,-0.38 -0.23,0.28 -0.41,0.38z" fill="#CAEFFF" id="svg_42"/>
  <path d="m59.43,40.78l0.23,0.03l-0.23,-0.03z" fill="#CAEFFF" id="svg_43"/>
  <path d="m58.77,22.39l0.13,-0.33c-0.04,-0.14 -0.06,0.06 -0.13,0.33z" fill="#CAEFFF" id="svg_44"/>
  <path d="m60.95,41.61l0,-0.01l-0.01,0l0.01,0.01z" fill="#CAEFFF" id="svg_45"/>
  <path d="m61.99,41.14l-0.3,-0.15l-0.04,0.16l0.34,-0.01z" fill="#CAEFFF" id="svg_46"/>
  <path d="m61.03,19.74l-0.16,-0.12l0.16,0.12z" fill="#CAEFFF" id="svg_47"/>
  <path d="m68.8,15.34l-0.2,0.01l0.2,-0.01z" fill="#CAEFFF" id="svg_48"/>
  <path d="m64.02,24.25c-0.64,0.04 -1.51,0.05 -2.04,0.3l0.08,-0.19c-0.36,0.06 -1.53,0.13 -0.88,0.61l0.2,-0.13c0.88,-0.13 0.55,0.41 1.19,0.62c0.83,-0.01 1.34,-0.62 2.02,-0.45c0.31,-0.01 0.26,0.19 0.16,0.33c0.71,0.07 1,-0.48 1.47,-0.54c0.27,1.47 2.11,-0.49 3.26,0.12c0.59,-0.36 1.61,-0.33 2.15,-1.13c-0.19,0.55 0.7,-0.4 0.79,0.04c-0.23,-0.63 2.19,-1.42 1.35,-2.24c0.92,-0.71 0.08,0.01 0.86,-0.99c0.12,0.05 0.03,0.24 0.01,0.33c0.44,-0.37 -0.12,-0.88 0.54,-1.07c0.5,-0.89 -0.21,-0.25 -0.27,-0.87c0.29,-0.95 0.4,-0.63 0.97,-1.2c-0.45,-0.1 -0.29,-0.76 -0.71,-1.19c0,0.15 0.05,0.79 -0.25,0.42c-0.11,-1.09 -0.68,-0.63 -1.25,-1.12c0.01,-0.76 0.7,0.59 0.41,-0.32c0.58,0.3 1.01,0.67 1.42,0.97c-0.17,-1.09 -1.53,-1.88 -2.63,-1.89c-0.58,-0.2 0.4,-0.19 -0.07,-0.34c-1.09,-0.54 -1.76,0.34 -2.59,0.05l0.18,-0.28c-0.51,0.4 -1.96,-0.06 -2.9,0.49c0.16,0.1 0.26,0.18 0.15,0.31c-0.18,-0.71 -1.19,0.74 -2.29,0.53c0.24,0.35 -0.37,1.07 -0.82,1.39c-0.24,-0.01 -0.31,-0.19 -0.38,-0.3c0.96,-0.23 0.49,-0.95 1.12,-1.48c-0.49,0.48 -1.53,0.88 -1.82,1.44l-0.03,-0.41c-0.81,0.47 -0.2,0.99 -1.07,1.38l-0.13,-0.27c-1.41,1.22 -3.11,2.77 -3.35,4.32c0.12,0.2 1.02,-0.13 1.19,-0.07c0.3,-0.78 0.24,-1.4 0.46,-2.06l0.35,0.26c-0.2,-0.32 0.24,-1 -0.26,-0.82c0.22,-0.53 0.59,-0.05 0.85,-0.65c0.31,0.34 0.08,0.62 0.37,0.86l0.2,-0.51c0.02,0.23 0.34,-0.11 0.36,0.12c0.3,-1.05 1.05,-0.83 1.76,-1.47l-0.52,0.22c-0.16,-0.19 0.14,-0.34 0.3,-0.52c0.44,0.14 0.55,0.02 1.06,-0.12c0.28,-0.35 0.23,-1 0.86,-1.13c0.06,0.47 1.08,-0.04 1.3,0.29c-0.02,-0.47 1.06,-0.48 1.08,-0.77c0.31,-0.15 0.79,-0.12 0.81,0.12l-0.24,0.1l0.33,-0.02l-0.05,0.11c0.29,-0.02 0.26,-0.35 0.65,-0.16c0.01,0.12 -0.19,0.14 -0.35,0.2c0.75,-0.03 1.33,-0.72 1.96,-0.3c0.15,-0.26 1,-0.07 0.93,-0.59c0.21,0.22 0.02,0.58 0.66,0.64c0.49,-0.24 0.51,0.43 1.06,0.4c-0.79,0.09 -0.1,0.08 -0.76,0.22c0.25,0.24 0.95,0.16 1.26,0.73l-0.29,0.23c0.17,0.13 0.59,0.35 0.29,0.58l0.3,-0.04c-0.13,0.44 -0.23,1.12 -0.62,1.5l0.29,0.75c-0.87,0.61 -0.91,1.69 -1.06,2.56c-0.24,0.25 -0.64,0.56 -0.73,0.46l0.08,-0.41c-0.27,0.41 -1.05,0.34 -0.96,0.88c-0.34,0.39 -0.49,-0.07 -0.82,0.04c-0.6,1.07 -2.83,0.46 -2.95,1.39c0.43,0.01 1.26,0.01 2.04,-0.3c-0.17,0.18 0.06,0.32 -0.23,0.43c-0.81,0.33 -1.31,0.02 -2.12,0.25l0.02,-0.64c-1.36,-0.43 -2.66,0.93 -3.71,0z" fill="#CAEFFF" id="svg_49"/>
  <path d="m73.19,21.53l-0.6,0.2l0.26,0.14c0.06,-0.16 0.17,-0.28 0.34,-0.34z" fill="#CAEFFF" id="svg_50"/>
  <path d="m72.84,21.87l-0.09,0.33l0.16,-0.29l-0.07,-0.04z" fill="#CAEFFF" id="svg_51"/>
  <path d="m61.69,24.06c-0.13,-0.05 -0.37,-0.16 -0.64,-0.13c0.16,0.1 0.49,0.2 0.64,0.13z" fill="#CAEFFF" id="svg_52"/>
  <path d="m60.97,24.11l0.27,0.16l0.06,-0.07l-0.33,-0.09z" fill="#CAEFFF" id="svg_53"/>
  <path d="m46.84,15.36l-0.69,-0.75c0.15,-0.22 -0.43,-1.17 0.03,-0.93c-0.65,-0.41 -0.57,-1.7 -1.11,-1.12c0.81,2.69 2.53,6.51 5.59,8.3l-0.57,-0.19c1.65,0.73 1.68,1.86 3.42,1.78l-0.45,0.36c0.6,0.65 1.78,-0.06 2.3,0.78l0,-0.23l0.47,0.28l-0.05,-0.12c0.63,0 0.94,0.14 1.44,0.48c-0.02,0.18 -0.28,-0.02 -0.46,-0.04c0.2,0.24 0.73,0.1 1.15,0.19c0.3,0.22 -0.07,0.23 -0.13,0.29c1.33,0.09 1.8,0.78 2.9,0.16c0.12,-0.12 -0.28,-0.33 0.2,-0.31c-0.79,-0.4 -1.54,-0.23 -2.36,-0.22l0.21,0.06c-0.81,0.58 -0.42,-0.24 -1.47,-0.24c0.34,-0.19 0.76,-0.09 0.98,-0.22c-0.93,-0.85 -1.71,-0.11 -2.15,-1.06l0.09,0.01c-0.13,-0.13 -0.47,-0.1 -0.74,-0.12c0.04,0.12 0.25,0.25 0.39,0.38c-0.28,-0.02 -0.55,0.24 -0.7,0.34c-0.13,-0.41 -0.45,0.02 -0.83,-0.31c-0.01,-0.34 0.51,-0.12 0.76,-0.22l-0.64,0c-0.51,-0.15 -0.31,-0.49 -0.43,-0.78c-0.49,-0.02 0.12,0.29 -0.35,0.39c-0.21,-0.71 -2.4,-1.64 -3.32,-2.33c0.3,0.25 0.34,-0.15 0.63,0.22c-0.07,-0.17 -0.6,-0.47 -0.79,-0.31c-0.7,-0.41 -1.32,-1.23 -1.58,-1.9l-0.09,0.31c-0.71,-0.28 -0.52,-1.47 -1.29,-2.26l0,0.03c-0.18,-0.29 -1.03,-0.26 -1.08,-0.93c0.35,0.06 0.43,0.39 0.72,0.23z" fill="#CAEFFF" id="svg_54"/>
  <path d="m45.15,11.94l0.4,0.28c0.02,-0.39 -0.47,-0.79 -0.7,-0.68c0.1,0.25 -0.02,0.62 0.19,0.63c0.05,-0.05 0.18,-0.07 0.11,-0.23z" fill="#CAEFFF" id="svg_55"/>
  <path d="m45.13,4.78c-0.04,-0.15 -0.19,-0.14 -0.27,-0.21c-0.23,1.52 -0.16,3.42 -0.52,4.03c-0.08,0.52 0.49,0.61 0.68,1.24l-0.34,0.32c0.27,0.33 -0.01,1.44 0.54,0.99c0.05,-0.05 -0.31,-0.27 -0.24,-0.58l0.21,0.03l-0.14,-0.68l0.28,0.2c0.3,-0.93 -0.9,-0.61 -0.65,-1.77l0.52,0.01c0.09,-0.75 -0.05,-1.15 0.32,-1.78c0,0 -0.26,-0.03 -0.17,0.1c-0.03,0.13 -0.26,0.28 -0.4,0.18c-0.31,-1.19 0.29,0.2 0.57,-0.58c-0.38,-1.01 -0.1,-2.89 0.43,-3.31c-0.42,0.37 -0.56,-0.38 -0.39,-0.91c0.25,-0.2 0.25,0.25 0.38,0.38c0.12,-0.24 0.3,-0.4 0.29,-0.67c-0.35,0.24 -0.67,-0.07 -0.68,-0.72c-0.67,1.22 -0.02,2.48 -0.42,3.73z" fill="#CAEFFF" id="svg_56"/>
  <path d="m44.8,4.32l0.06,0.25l0.13,-0.52l-0.19,0.27z" fill="#CAEFFF" id="svg_57"/>
  <g id="svg_58" opacity="0.74">
   <path d="m428.66,37.99l-0.02,0.28l0.29,0.05l-0.27,-0.33z" fill="#CAEFFF" id="svg_59"/>
   <path d="m428.11,39.57l0.28,0.49c0.58,-0.54 0.5,-0.13 0.81,-1.01c-0.17,-0.21 -0.59,-0.73 -0.86,-0.62c0.08,0.2 0.44,0.42 0.42,0.72c-0.24,-0.07 -0.3,-0.38 -0.62,-0.48c-0.09,0.54 0.26,0.27 0.31,0.83l-0.34,0.07z" fill="#CAEFFF" id="svg_60"/>
   <path d="m429.03,39.9l-0.38,0.06c0.15,0 0.42,0.15 0.38,-0.06z" fill="#CAEFFF" id="svg_61"/>
   <path d="m429.27,40.12c0.14,0.28 -0.25,0.12 -0.27,0.17l0.62,0.08l-0.35,-0.25z" fill="#CAEFFF" id="svg_62"/>
   <path d="m429.95,41.25l0.13,0.09c0.03,-0.09 -0.06,-0.07 -0.13,-0.09z" fill="#CAEFFF" id="svg_63"/>
   <path d="m430.46,41.68c0.03,-0.2 -0.16,-0.25 -0.38,-0.34l-0.01,0.03c0.04,0.2 -0.4,0.33 -0.49,0c-0.24,-0.23 0.06,-0.39 -0.28,-0.5l-0.02,0.47c0.3,0.45 0.96,0.28 1.18,0.34z" fill="#CAEFFF" id="svg_64"/>
   <path d="m429.95,41.25l-0.11,-0.13l0.11,0.13z" fill="#CAEFFF" id="svg_65"/>
   <path d="m429.63,40.67l-0.15,-0.1l-0.11,0.1l0.26,0z" fill="#CAEFFF" id="svg_66"/>
   <path d="m431.27,42.41c-0.37,0.28 -0.53,-0.57 -0.86,-0.39c0.33,0.29 0.36,0.78 0.12,0.9l0.47,0.24c0.26,-0.04 0.29,-0.41 0.27,-0.75z" fill="#CAEFFF" id="svg_67"/>
   <path d="m431.32,43.87l0.15,0.01l-0.15,-0.01z" fill="#CAEFFF" id="svg_68"/>
   <path d="m434.01,44.45l-1.3,-0.08c0.17,-0.06 0.21,-0.21 0.48,-0.15c-0.45,-0.26 -0.63,-0.1 -0.98,-0.36c0.13,-0.42 0.66,0.38 0.65,-0.07c-0.25,-0.15 -0.63,-0.36 -1.06,-0.21l-0.23,-0.49l-0.15,0.46c0.09,0.21 0.56,-0.08 0.47,0.25c-0.07,0.19 -0.26,0.11 -0.41,0.07c0.33,0.09 0.53,0.81 1.17,1.07c0.67,0.25 0.86,-0.46 1.36,-0.49z" fill="#CAEFFF" id="svg_69"/>
   <path d="m433.83,44.93l-0.01,0.19l0.06,-0.24l-0.05,0.05z" fill="#CAEFFF" id="svg_70"/>
   <path d="m435.27,44.86l-0.68,0.05l-0.05,-0.25c-0.02,0.1 -0.24,0.2 -0.26,0.29c0.1,0.5 0.76,0.19 1.1,0.18c0.8,0.41 -0.11,0.2 0.1,0.66c-0.24,-0.08 -0.22,-0.17 -0.55,-0.29c0.38,0.59 1.22,0.37 1.58,0.34c-0.09,-0.06 -0.08,-0.2 -0.28,-0.21l0.38,-0.04c-0.28,-0.41 -0.54,-0.57 -1.34,-0.73z" fill="#CAEFFF" id="svg_71"/>
   <path d="m434.26,44.47c0.22,0.06 0.29,0.12 0.28,0.18c-0.01,-0.13 -0.04,-0.23 -0.28,-0.18z" fill="#CAEFFF" id="svg_72"/>
   <path d="m436.7,45.88l-0.19,-0.04l0.19,0.04z" fill="#CAEFFF" id="svg_73"/>
   <path d="m436.47,45.31l0.41,0.16l-0.12,-0.24c-0.06,0.01 -0.27,-0.02 -0.29,0.08z" fill="#CAEFFF" id="svg_74"/>
   <path d="m451.86,41.19c-0.13,-0.12 -0.3,-0.1 -0.56,0.09c-0.1,-0.2 0.28,-0.39 0.37,-0.6c-0.44,0.11 -0.15,-0.22 -0.37,-0.34c-0.41,0.23 -0.42,0.58 -0.88,0.8l-0.18,-0.17c-0.43,0.44 -1.19,1.15 -1.81,1.29c-0.54,0.22 -0.85,0.51 -1.35,0.91c-1.87,0.86 -3.79,2.07 -6.12,2.21l-0.27,0.45c-0.14,-0.2 -0.56,0.04 -0.52,-0.25l0.4,-0.02c-0.52,-0.37 -1.31,0.18 -1.9,-0.08c0.06,0.09 0.14,0.48 -0.05,0.52c0.09,-0.47 -0.72,-0.06 -0.82,-0.64c-0.56,-0.2 -0.09,0.42 -0.7,0.28c-0.12,0.27 0.58,0.2 0.66,0.43c-0.24,0.2 -0.56,-0.17 -0.59,0.13c1.03,0.33 3.07,-0.13 4.51,-0.63l-0.1,0.3c0.75,-0.35 1.94,-0.69 2.68,-0.56c-0.24,-0.18 1.16,-0.29 0.78,-0.79c0.23,0.04 0.27,-0.01 0.54,-0.08l-0.02,-0.2c0.36,-0.17 0.44,0.11 0.83,-0.11c-0.39,-0.08 -0.13,-0.29 -0.12,-0.53c0.61,0.03 1.24,-0.08 1.76,-0.1c-0.07,-0.04 -0.16,-0.1 -0.35,-0.12c0.31,-0.07 0.14,-0.25 0.16,-0.37c0.25,-0.15 0.41,0.14 0.48,0.28c0.54,-0.18 0.39,-0.83 0.85,-0.86l-0.26,-0.15c0.43,-0.34 1,-0.34 1.47,-0.73c0.46,0.14 -0.25,0.52 -0.38,0.77c0.15,0 0.39,-0.12 0.53,-0.07c0.12,-0.28 0.34,-0.72 0.52,-1.03c-0.02,0.5 0.62,0.06 0.81,-0.03z" fill="#CAEFFF" id="svg_75"/>
   <path d="m450.53,42.25l-0.07,0.21l0.16,-0.13l-0.09,-0.08z" fill="#CAEFFF" id="svg_76"/>
   <path d="m451.86,41.19l0.04,0.03l-0.04,-0.03z" fill="#CAEFFF" id="svg_77"/>
   <path d="m448.35,42.28l0.08,-0.02l0.1,-0.04l-0.18,0.06z" fill="#CAEFFF" id="svg_78"/>
   <path d="m448.61,43.5l-0.57,0c0.1,0.08 0.19,0.13 0.57,0z" fill="#CAEFFF" id="svg_79"/>
   <path d="m445.03,45.03c-0.09,0.08 0.01,0.13 -0.04,0.23c0.25,-0.08 0.28,-0.19 0.04,-0.23z" fill="#CAEFFF" id="svg_80"/>
   <path d="m451.14,41.95l0.35,-0.32l0.1,-0.14l-0.45,0.46z" fill="#CAEFFF" id="svg_81"/>
   <path d="m458.46,36.1c-0.51,-0.1 -0.99,0.31 -1.46,0.51c-0.73,0.59 0.25,0.64 -0.49,1.09l-0.21,-0.61c-0.77,0.43 -1.9,0.99 -2.22,1.83c-0.1,-0.03 -0.29,-0.03 -0.14,-0.22c-0.49,0.33 0.26,0.91 -0.52,1.15c0.39,-0.71 -0.42,-0.19 -0.48,-0.62l0.07,-0.09c-0.39,0.29 -0.83,0.81 -1.12,0.97c0.09,0.14 0.48,0.19 0.12,0.44c0.17,-0.07 0.22,0.12 0.3,0.27c0.28,-0.39 0.55,-0.43 0.65,-0.75c0.34,0.04 -0.1,0.14 0.24,0.18l0.19,-0.35c0.25,-0.1 -0.11,0.32 0.26,0.14c-0.03,-0.13 0.18,-0.42 0.47,-0.57l-0.04,0.11c0.17,-0.2 0.52,-0.29 0.22,-0.53l0.45,0.15l-0.18,-0.18c0.64,-0.27 1.17,0.08 1.75,-0.61c-0.21,0.04 -0.12,-0.16 -0.05,-0.25c-0.41,0.03 -0.28,0.38 -0.56,0.58c-0.18,-0.18 0.16,-0.72 -0.28,-0.63c0.55,0 0.74,-0.46 1.23,-0.05c0.51,-0.23 0.53,-0.58 1.1,-0.73l0.03,0.09c-0.11,-0.4 0.49,-0.05 0.67,-0.58l-0.31,0.05c-0.07,-0.15 0.06,-0.22 0.23,-0.33c0.01,0.07 0.01,0.07 0.1,0.11c-0.08,-0.28 0.48,-0.6 0.52,-0.71c-0.27,0.07 -0.46,0.42 -0.71,0.62c0.07,-0.22 -0.1,-0.41 0.17,-0.48z" fill="#CAEFFF" id="svg_82"/>
   <path d="m454.02,39.79l0.07,-0.21l-0.07,0.21z" fill="#CAEFFF" id="svg_83"/>
   <path d="m461.02,35.6c0.35,-0.06 0,0.26 0.35,0.27c0.26,-0.31 -0.53,-0.24 -0.3,-0.64c0.26,0.07 0.51,-0.29 0.66,-0.33c-0.11,0.2 0.09,0.54 0.18,0.61c0.1,-0.14 0.44,-0.03 0.66,-0.07c-0.6,-0.1 0.43,-0.24 -0.13,-0.38c-0.02,-0.22 0.49,-0.51 0.74,-0.39c0.01,0.16 -0.16,0.17 -0.3,0.21c-0.06,0.34 0.38,0.06 0.51,0.35c0.44,-0.48 2.23,-0.53 1.75,-1.18c-0.2,-0.17 -0.37,0.04 -0.58,0.08c0.6,0.09 0,0.36 -0.04,0.49c-0.25,-0.1 -0.65,0.15 -0.58,-0.1l0.38,-0.28c-1.33,-0.12 -3.09,0.39 -4.4,1.02l0.61,-0.2c-0.01,0.2 -0.28,0.31 -0.46,0.47l0.46,0.32c-0.17,0.03 -0.31,0.14 -0.36,-0.01c-0.12,0.25 0.02,0.32 0.2,0.42c-0.38,0.23 -0.54,0.08 -0.72,0.5c0.83,0.05 0.46,-0.51 1.37,-0.5l0,-0.66z" fill="#CAEFFF" id="svg_84"/>
   <path d="m459.58,36.41l0.06,-0.29l-0.2,0.22l0.14,0.07z" fill="#CAEFFF" id="svg_85"/>
   <path d="m459.41,35.39l0.02,0.25c0.37,-0.06 0.27,-0.17 -0.02,-0.25z" fill="#CAEFFF" id="svg_86"/>
   <path d="m463.84,35.22l0.43,-0.11l-0.29,-0.06c0.01,0.1 -0.09,0.14 -0.14,0.17z" fill="#CAEFFF" id="svg_87"/>
   <path d="m467.18,34.27c-0.68,-0.15 -1.01,0.1 -1.76,-0.24c-0.39,0.25 0.14,0.58 -0.04,0.83c0.34,0.1 0.35,-0.4 0.75,-0.45c0.1,0.29 0.59,-0.04 0.93,0.16c-0.02,-0.12 0.01,-0.24 0.12,-0.3z" fill="#CAEFFF" id="svg_88"/>
   <path d="m468.85,36.01c0.23,0.14 0.59,0.13 0.71,0.34c-0.12,0.12 -0.3,0.08 -0.42,-0.04c-0.12,0.36 0.3,0.11 0.4,0.46c0,-0.04 -0.05,-0.15 0.07,-0.17c0.57,0.45 0.53,0.03 1.1,0.82c0.18,0.02 0.28,0.12 0.45,-0.06c0.15,0.6 0.01,0.36 0.16,1.05c0.11,-0.1 0.25,-0.48 0.5,-0.66c0.2,1.03 0.64,0.77 0.71,1.44c-0.05,-0.05 -0.17,-0.07 -0.23,-0.23c-0.35,0.3 0.39,0.35 0.46,0.7l-0.35,0.15c0.19,0.24 0.66,0.6 0.58,1.06l-0.22,0c0.67,0.54 0.79,1.46 1.15,2.04l-0.11,0.39c0.58,0.78 -0.17,-0.88 0.6,-0.41c-0.65,0.28 0.42,0.39 0.22,0.99c-0.23,0.29 -0.24,-0.49 -0.5,-0.16c0.37,0.04 0.15,0.25 0.3,0.5c-0.35,0 0.06,0.57 -0.35,0.47l0.8,0.86c-0.19,0.18 -0.15,0.45 -0.1,0.66c0,-0.53 0.51,0.13 0.66,-0.49c-0.28,-0.88 -0.6,-2.32 -0.86,-3.4c-0.49,0.02 -0.23,-0.68 -0.65,-0.72l0.36,-0.27c-0.37,-0.63 -0.17,0.24 -0.41,0.14c-0.15,-0.27 -0.04,-0.59 0.14,-0.63c-0.21,-0.47 -0.15,0 -0.5,-0.14l0.32,-0.5c-0.82,-1.45 -2.43,-2.95 -3.78,-4.25l-0.07,0.31c-0.66,-0.55 -1.49,-0.21 -1.89,-1.01l-0.35,0.16c0.2,-0.09 0.04,-0.47 0.34,-0.59c-0.27,0.02 -0.47,-0.18 -0.74,-0.17l0.37,0.28c-0.38,0.15 -0.63,-0.1 -0.67,-0.36c-0.68,0.09 0.23,0.63 0.25,0.91c1.01,-0.22 0.59,0.71 1.33,0.92c0.51,0.1 0.11,-0.27 0.22,-0.39z" fill="#CAEFFF" id="svg_89"/>
   <path d="m468.26,34.79l-0.17,0.03l0.17,-0.03z" fill="#CAEFFF" id="svg_90"/>
   <path d="m474.78,46.21l0.03,0.23c0.08,0.08 0.02,-0.05 -0.03,-0.23z" fill="#CAEFFF" id="svg_91"/>
   <path d="m467.06,34.57l0,0l0,0l0,0z" fill="#CAEFFF" id="svg_92"/>
   <path d="m466.46,35.19l0.22,0.05l0,-0.15l-0.22,0.1z" fill="#CAEFFF" id="svg_93"/>
   <path d="m474.19,48.43l0.16,0.04l-0.16,-0.04z" fill="#CAEFFF" id="svg_94"/>
   <path d="m470.07,52.43l0.13,-0.05l-0.13,0.05z" fill="#CAEFFF" id="svg_95"/>
   <path d="m468.64,45.14c0.27,-0.34 0.66,-0.78 0.74,-1.18l0.08,0.14c0.13,-0.2 0.6,-0.84 0,-0.78l0,0.18c-0.31,0.51 -0.5,0.04 -0.92,0.23c-0.37,0.4 -0.19,1.04 -0.66,1.22c-0.14,0.14 -0.23,0 -0.27,-0.13c-0.41,0.26 -0.21,0.73 -0.39,0.99c-0.99,-0.76 -0.8,1.2 -1.86,1.18c-0.2,0.4 -0.67,0.81 -0.81,1.38c-0.08,-0.4 -0.36,0.4 -0.59,0.12c0.58,0.45 -1.03,1.45 -0.18,1.8c-0.35,0.69 0.03,0.01 -0.17,0.88c-0.1,0.01 -0.11,-0.15 -0.13,-0.21c-0.17,0.42 0.42,0.48 0.04,0.89c0.27,0.68 0.28,0.03 0.72,0.25c0.32,0.61 0.09,0.52 0.09,1.12c0.33,-0.24 0.63,0.11 1.06,0.1c-0.08,-0.07 -0.45,-0.35 -0.09,-0.35c0.66,0.44 0.65,0.07 1.35,0.02c0.29,0.51 -0.72,-0.07 -0.15,0.37c-0.54,0.2 -0.86,0.03 -1.27,0.17c0.61,0.46 1.61,0.35 2.31,0.18c0.43,0.02 -0.2,0.24 0.14,0.25c0.81,0.12 1.08,-0.58 1.68,-0.57l-0.06,0.27c0.26,-0.4 1.32,-0.3 1.86,-0.79c-0.14,-0.07 -0.23,-0.12 -0.18,-0.23c0.3,0.55 0.69,-0.65 1.46,-0.67c-0.28,-0.29 0.12,-0.78 0.31,-1.06c0.17,-0.01 0.27,0.12 0.35,0.19c-0.61,0.26 -0.16,0.73 -0.52,1.17c0.28,-0.36 0.97,-0.74 1.04,-1.19l0.12,0.3c0.54,-0.41 -0.25,-0.84 0.34,-1.18l0.17,0.16c0.72,-1.03 1.35,-2.59 0.8,-3.58c-0.2,-0.09 -0.64,0.38 -0.79,0.39c0.19,0.56 0.35,0.9 0.45,1.38l-0.36,-0.08c0.23,0.14 0.26,0.71 0.51,0.47c0.07,0.41 -0.3,0.2 -0.32,0.64c-0.34,-0.17 -0.26,-0.38 -0.58,-0.49l0.03,0.35c-0.09,-0.14 -0.22,0.13 -0.31,-0.02c0.08,0.7 -0.49,0.69 -0.75,1.22l0.3,-0.21c0.18,0.14 0.02,0.27 -0.06,0.41c-0.35,-0.07 -0.4,0.02 -0.72,0.15c-0.08,0.31 -0.04,0.66 -0.39,0.9c-0.16,-0.38 -0.69,0.21 -0.94,-0.06c0.11,0.37 -0.67,0.44 -0.62,0.67c-0.18,0.16 -0.48,0.26 -0.56,0.05l0.13,-0.12l-0.21,0.06l0.01,-0.08c-0.19,0.04 -0.1,0.3 -0.41,0.19c-0.03,-0.09 0.1,-0.13 0.19,-0.2c-0.49,0.06 -0.71,0.85 -1.22,0.57c-0.04,0.18 -0.65,0.27 -0.48,0.66c-0.19,-0.13 -0.15,-0.45 -0.59,-0.34c-0.26,0.37 -0.48,-0.18 -0.82,0.01c0.48,-0.29 0.03,-0.09 0.42,-0.39c-0.21,-0.21 -0.77,0.32 -1.17,0.02l0.03,-0.28c-0.17,0.04 -0.52,0.18 -0.5,-0.12l-0.13,0.2c-0.26,-0.17 -0.45,-0.62 -0.44,-0.96c-0.19,-0.02 -0.49,-0.04 -0.63,-0.12c0.53,-0.63 -0.15,-1.12 -0.21,-1.79c0.12,-0.2 0.34,-0.48 0.44,-0.43l0.06,0.28c0.17,-0.28 0.53,-0.5 0.29,-0.84c0.11,-0.33 0.39,-0.05 0.6,-0.21c-0.04,-0.86 1.57,-1.27 1.12,-1.94c-0.21,0.2 -0.75,0.46 -1.04,0.93c0.01,-0.18 -0.2,-0.19 -0.08,-0.36c0.31,-0.48 0.79,-0.44 1.08,-0.92l0.35,0.41c1.05,-0.27 0.78,-1.75 1.91,-1.64z" fill="#CAEFFF" id="svg_96"/>
   <path d="m464.25,50.22l0.42,-0.23l-0.24,-0.05c-0.01,0.12 -0.06,0.22 -0.18,0.28z" fill="#CAEFFF" id="svg_97"/>
   <path d="m464.43,49.94l-0.02,-0.23l-0.04,0.22l0.06,0.01z" fill="#CAEFFF" id="svg_98"/>
   <path d="m469.82,44.09c0.09,-0.03 0.26,-0.1 0.36,-0.24c-0.13,0.01 -0.34,0.13 -0.36,0.24z" fill="#CAEFFF" id="svg_99"/>
   <path d="m470.1,43.7l-0.22,0.05l0.02,0.07l0.2,-0.12z" fill="#CAEFFF" id="svg_100"/>
   <path d="m480.96,39.1l0.71,-0.26c0.1,0.17 0.91,0.05 0.62,0.3c0.49,-0.38 1.27,0.27 1.08,-0.37c-2.05,-0.33 -5.12,-0.41 -7.18,0.81l0.28,-0.33c-0.97,0.81 -1.76,0.13 -2.29,1.27l-0.08,-0.46c-0.57,0.15 -0.64,1.04 -1.38,0.91l0.15,0.13l-0.36,0.11l0.1,0.04c-0.23,0.35 -0.44,0.46 -0.84,0.56c-0.11,-0.11 0.12,-0.15 0.2,-0.24c-0.24,-0.03 -0.32,0.38 -0.57,0.53c-0.28,0.03 -0.12,-0.16 -0.13,-0.23c-0.63,0.65 -1.25,0.52 -1.35,1.41c0.03,0.13 0.33,0.04 0.1,0.27c0.61,-0.16 0.83,-0.64 1.16,-1.09l-0.12,0.08c-0.05,-0.76 0.35,-0.06 0.77,-0.65c-0.01,0.31 -0.26,0.47 -0.27,0.65c0.95,-0.01 0.73,-0.91 1.53,-0.65l-0.04,0.05c0.13,-0.01 0.24,-0.22 0.37,-0.35l-0.41,0.02c0.12,-0.15 0.05,-0.43 0.04,-0.56c0.34,0.15 0.17,-0.25 0.55,-0.28c0.23,0.18 -0.13,0.34 -0.16,0.52l0.25,-0.34c0.31,-0.18 0.45,0.09 0.67,0.14c0.17,-0.32 -0.22,-0.05 -0.13,-0.41c0.5,0.15 1.96,-0.53 2.64,-0.99c-0.25,0.11 -0.01,0.28 -0.33,0.34c0.12,0 0.49,-0.2 0.44,-0.4c0.48,-0.3 1.21,-0.34 1.74,-0.27l-0.18,-0.17c0.38,-0.41 1.13,0.15 1.87,-0.12l-0.02,0c0.24,-0.08 0.47,-0.55 0.95,-0.4c-0.15,0.23 -0.4,0.19 -0.38,0.43z" fill="#CAEFFF" id="svg_101"/>
   <path d="m483.76,39.04l-0.32,0.21c0.24,0.13 0.69,-0.13 0.69,-0.32c-0.2,0.01 -0.42,-0.17 -0.5,-0.02c0.02,0.04 -0.01,0.14 0.13,0.13z" fill="#CAEFFF" id="svg_102"/>
   <path d="m488.55,41.05l0.24,-0.16c-0.99,-0.49 -2.2,-1.06 -2.55,-1.38c-0.32,-0.22 -0.57,0.13 -1.04,0.05l-0.09,-0.34c-0.28,0.04 -0.97,-0.42 -0.84,0.08c0.02,0.05 0.29,-0.15 0.48,-0.02l-0.09,0.15l0.48,0.12l-0.22,0.13c0.5,0.52 0.67,-0.38 1.38,0.12l-0.19,0.36c0.51,0.21 0.8,0.25 1.1,0.68c0,0 0.1,-0.17 -0.02,-0.15c-0.07,-0.06 -0.09,-0.26 0.03,-0.33c0.89,0.11 -0.23,0.15 0.18,0.56c0.77,0.07 2.04,0.58 2.16,1.07c-0.13,-0.38 0.43,-0.32 0.75,-0.09c0.06,0.21 -0.26,0.12 -0.38,0.19c0.12,0.13 0.18,0.29 0.37,0.35c-0.06,-0.31 0.26,-0.48 0.7,-0.35c-0.64,-0.71 -1.69,-0.52 -2.45,-1.04z" fill="#CAEFFF" id="svg_103"/>
   <path d="m488.98,40.9l-0.19,-0.01l0.32,0.2l-0.13,-0.19z" fill="#CAEFFF" id="svg_104"/>
  </g>
  <path d="m60.41,48.03c7.48,-0.9 9.24,-2.46 4.95,-2.43c-0.68,0.01 -3.57,0.63 -5.09,1.3c-9,3.97 -11.22,3.02 -17.97,3.2c-1.59,0.04 -2.79,1.48 -2.74,1.57c4.83,-0.44 2.99,-0.02 12.6,-0.97c2.01,-0.2 7.46,-2.57 8.25,-2.67z" fill="#A3BA3A" id="svg_105"/>
  <path clip-rule="evenodd" d="m78.28,24.99c-1.64,-6.67 -11.13,-4.33 -5.67,1.83c-5.48,-2.64 -11.43,0.48 -11.93,5.57c-0.29,2.89 1.72,8.26 7.03,7.36c-8.23,2.74 -4.45,9.25 -1.35,11.73c2.15,1.71 4.64,1.52 6.52,0.22c-1.91,6.77 4.53,7.67 7.68,5.96c1.7,-0.93 2.54,-2.91 2.89,-5.02c6.72,3.32 14.93,-0.35 12.74,-6.27c7.4,0.2 7.98,-9.74 -0.23,-10.37c-0.01,-0.01 -0.02,-0.03 -0.03,-0.04l-3.22,-5.56c5.02,-8.63 -9.76,-17.04 -14.43,-5.41z" fill="#FFE000" fill-rule="evenodd" id="svg_106" transform="matrix(1 0 0 1 0 0)"/>
  <path d="m92.71,30.4l-2.65,5.05c15.38,3.68 10.14,-13.89 2.65,-5.05z" fill="#FFE000" id="svg_107"/>
  <path clip-rule="evenodd" d="m74.6,28.75c-3.69,0.5 -3.57,2.09 -3.56,3.92c-4.11,-0.92 0.9,-6.13 3.56,-3.92z" fill="#F6921E" fill-rule="evenodd" id="svg_108"/>
  <path clip-rule="evenodd" d="m86.81,32.22c0.43,-3.5 -2.1,-4.8 -3.12,-4.24c1.98,-3.53 6.08,2.37 3.12,4.24z" fill="#FAAF40" fill-rule="evenodd" id="svg_109"/>
  <path clip-rule="evenodd" d="m81.57,23.91c3.02,-2.82 8.63,-1.13 9.7,2.75c-2.06,-2.16 -5.89,-4.98 -9.7,-2.75z" fill="#FAAF40" fill-rule="evenodd" id="svg_110"/>
  <path clip-rule="evenodd" d="m74.98,47.19c-3.43,-0.05 -5.92,-3.02 -4.4,-5.07c0.04,1.73 0.81,4.45 4.4,5.07z" fill="#FAAF40" fill-rule="evenodd" id="svg_111"/>
  <path clip-rule="evenodd" d="m77.66,36.07c-0.23,-0.28 -0.53,-0.16 -0.7,-0.85c1.01,-3.07 4.11,0.74 0.7,0.85z" fill="#404751" fill-rule="evenodd" id="svg_112"/>
  <path clip-rule="evenodd" d="m74.99,37.53c0.02,-1.11 1.3,-1.46 1.76,-0.81c1.14,0.74 -1.53,2.45 -1.76,0.81z" fill="#404751" fill-rule="evenodd" id="svg_113"/>
  <path clip-rule="evenodd" d="m79.9,37.64c1.14,0.89 -0.55,1.99 -1.37,1.88c-0.83,0.08 -1.26,-0.33 -0.93,-1.14c0.61,-1.1 1.23,-0.81 2.3,-0.74z" fill="#404751" fill-rule="evenodd" id="svg_114"/>
  <path clip-rule="evenodd" d="m82.79,34.66c0.63,0.6 0.84,1.14 0.85,1.65c-1.07,1.11 -1.88,1.11 -2.75,0.17c-0.67,-0.84 1.17,-1.91 1.9,-1.82z" fill="#404751" fill-rule="evenodd" id="svg_115"/>
  <path clip-rule="evenodd" d="m78.39,41.78c0.93,0.73 0.66,0.4 1.17,1.43c0.07,1.39 -1.98,1.05 -2.77,0.17c0.1,-0.59 0.44,-2.09 1.6,-1.6z" fill="#E08357" fill-rule="evenodd" id="svg_116"/>
  <path clip-rule="evenodd" d="m88.1,37.65c-0.11,1.44 -1.92,2.09 -2.67,1.46c-2.36,-2 1.46,-4.38 2.67,-1.46z" fill="#E08357" fill-rule="evenodd" id="svg_117"/>
  <path clip-rule="evenodd" d="m68.98,46.18c0.3,-0.22 0.11,-0.21 0.41,-0.43c1.21,3.66 4.99,5.52 8.51,3.09c-0.81,4.82 -9.27,1.12 -8.92,-2.66z" fill="#F6921E" fill-rule="evenodd" id="svg_118"/>
  <path clip-rule="evenodd" d="m81.46,30.76c1.21,-0.98 2.7,-0.22 2.38,0.56c-0.77,0.88 -0.42,0.62 -1.52,1.1c-0.82,-0.25 -1.58,-1.07 -0.86,-1.66z" fill="#E08357" fill-rule="evenodd" id="svg_119"/>
  <path clip-rule="evenodd" d="m95.04,39.98c0.15,-0.69 -0.05,-0.2 0.4,-0.22c3.59,2.46 0.24,5.9 -2.48,7.04c0.56,-2.01 4.82,-2.59 2.08,-6.82z" fill="#FAAF40" fill-rule="evenodd" id="svg_120"/>
  <path clip-rule="evenodd" d="m83.69,41.71c-0.5,-0.74 0.46,-1.24 1.52,-1.09c1.72,1.22 -0.74,2.72 -1.52,1.09z" fill="#404751" fill-rule="evenodd" id="svg_121"/>
  <path clip-rule="evenodd" d="m91.42,43.04c2.54,1.85 -2.97,6.82 -6.44,4.81c3.15,0.02 6.32,-1.94 6.44,-4.81z" fill="#FAAF40" fill-rule="evenodd" id="svg_122"/>
  <path clip-rule="evenodd" d="m68.33,30.53c-1.76,3.25 -0.42,7.68 2.47,9.56c-3.43,0.8 -6.99,-7.52 -2.47,-9.56z" fill="#F6921E" fill-rule="evenodd" id="svg_123"/>
  <path clip-rule="evenodd" d="m53.06,40.3c-0.02,0.39 -1.45,0.56 -1.97,2.27c-0.23,0.15 -0.34,1.15 -0.15,1.35c0.29,1.41 0.91,3.16 2.38,3.32c1.09,-2.12 0.9,-5.49 -0.26,-6.94z" fill="#668C0C" fill-rule="evenodd" id="svg_124"/>
  <path clip-rule="evenodd" d="m49.17,51.65c0.48,0.42 -0.77,2.26 0.95,4.63c-0.05,0.42 1.15,1.59 1.6,1.56c2.16,1.13 5.07,2.22 6.79,0.68c-1.65,-3.46 -6.26,-6.72 -9.34,-6.87z" fill="#A3BA3A" fill-rule="evenodd" id="svg_125"/>
  <path d="m404.72,59.78c-0.01,1.46 -0.14,2.09 1.03,2.85c0.43,0.3 1.3,0.4 1.68,0.19c1.53,-0.56 0.14,-2.68 -0.52,-3.31c0.34,0.15 3.19,2.47 3.63,-0.72c0.29,-2.1 -2.65,-1.22 -3.6,-1.14c1.41,-0.42 1.58,-2.28 1.46,-2.48c0.08,-0.2 -0.29,-1.95 -2.28,-1.01c-1.16,0.43 -1.62,1.67 -1.67,2.72c-1.54,-3.71 -4.27,-0.31 -1.84,1.54c-4.03,0.45 0.55,5.79 2.11,1.36z" fill="#FF9A60" id="svg_126"/>
  <path d="m461.9,51.85c1.97,1.02 2.73,1.62 4.56,0.71c0.7,-0.32 1.42,-1.32 1.39,-1.93c0.3,-2.27 -3.52,-2.04 -4.8,-1.66c0.42,-0.32 5.49,-2.21 1.5,-4.97c-2.64,-1.82 -3.45,2.41 -4.01,3.64c0.4,-2.02 -1.99,-3.54 -2.33,-3.53c-0.24,-0.23 -2.84,-0.98 -2.94,2.1c-0.2,1.73 1.16,3.16 2.55,3.95c-6.07,-0.68 -3.33,5.04 0.83,3.34c-2.16,5.27 8.18,3.34 3.25,-1.65z" fill="#86D2FF" id="svg_127"/>
  <path d="m29.06,45.35c-1.84,-0.96 -2.56,-1.52 -4.27,-0.66c-0.66,0.3 -1.33,1.23 -1.3,1.81c-0.28,2.13 3.29,1.91 4.5,1.56c-0.4,0.29 -5.16,2.06 -1.42,4.65c2.48,1.71 3.24,-2.25 3.76,-3.41c-0.37,1.9 1.87,3.31 2.19,3.3c0.22,0.22 2.66,0.93 2.75,-1.96c0.18,-1.62 -1.08,-2.96 -2.39,-3.71c5.68,0.64 3.13,-4.72 -0.77,-3.13c2.02,-4.93 -7.66,-3.12 -3.05,1.55z" fill="#99D9FF" id="svg_128"/>
  <path clip-rule="evenodd" d="m395.59,24.53c-1.4,0.43 -6.85,-0.75 -6.28,-3.26c0.29,-1.27 1.74,-1.38 2.6,-1.02c1.64,0.69 2.5,2.75 3.44,3.67c1.2,1.16 3.15,1.91 4.61,2.68c1.63,0.88 3.24,1.7 4.62,1.98c-0.65,-0.42 -0.99,-1.63 -1.77,-2.23c-0.74,-0.58 -1.94,-0.79 -2.78,-1.42c-2.51,-1.9 -3.13,-5.2 0.42,-4.88c3.32,1.5 1.7,4.48 2.89,6.41c2.68,4.4 8.47,4.64 12.16,5.92c-1.05,-0.73 -1.43,-1.96 -2.49,-2.64c-0.87,-0.55 -2.38,-0.59 -3.53,-1.28c-0.92,-0.56 -2.06,-1.6 -2.37,-2.41c-0.42,-1.1 0.83,-3.08 2.31,-2.98c3.01,0.2 4.38,4.51 3.98,6.4c1.23,1.09 1.86,2.55 3.14,3.13c1.15,0.53 2.43,-0.05 3.53,0.56c-3.01,0.41 -6.19,-0.78 -9.34,-1.71c-1.66,0.63 -3.3,1.39 -5,1.63c-1.32,1.79 -4.79,3.38 -6.6,1.7c-1.38,-1.27 -0.01,-2.85 1.54,-2.99c1.42,-0.14 3.28,0.34 4.7,1.01c1.54,-0.29 3.53,-0.82 4.75,-1.53c-2.62,-0.97 -5.25,-2.01 -7.88,-3.2c-2.01,0.51 -4.07,0.61 -6.13,0.62c-1.67,1.05 -5.04,3.18 -6.91,1.17c-0.45,-0.48 -0.52,-1.45 -0.05,-2.06c1.59,-2.07 4.82,-0.49 7,0.5c1.75,-0.05 3.97,0.08 5.38,-0.48c-1.98,-1.03 -3.95,-2.08 -5.94,-3.29zm-0.74,-0.57c-1.83,-0.99 -3.04,-1.56 -4.57,-3.09c0.43,1.14 3.19,2.93 4.57,3.09zm-5.13,4.43c-0.06,0.12 -0.03,0.34 0.11,0.22c1.74,0.43 3.42,0.32 5.09,0.03c-1.4,-0.11 -3.49,0.21 -5.2,-0.25zm9.62,-7.61c0.83,1.52 1.86,3.01 2.69,4.53c-0.4,-1.55 -1.49,-3.04 -2.69,-4.53zm5.29,12.32c-1.26,-0.14 -3.16,0.55 -4.74,0.11c-0.14,0.02 -0.26,0.11 -0.39,0.26c1.75,0.27 3.46,0.06 5.13,-0.37zm7.43,-4.39c-0.5,-1.59 -1.95,-3.11 -3.71,-4.59c1.19,1.53 2.7,3.04 3.71,4.59z" fill="#A3BA3A" fill-rule="evenodd" id="svg_129"/>
  <path clip-rule="evenodd" d="m431.68,16.44c5.34,2.69 7.31,8.06 6.98,13.58c11.4,2.46 10.18,19.79 -3.09,19.7c-4.03,8.91 -21.37,9.18 -22.29,-2.83c-10.93,-3.64 -11.14,-20.95 3.21,-21.47c-1.25,-7.71 8.79,-12.21 15.19,-8.98z" fill="#FFA888" fill-rule="evenodd" id="svg_130"/>
  <path d="m432.06,15.43c0.19,0.09 0.21,-0.1 0.26,-0.12c-0.37,-0.09 -0.28,0.17 -0.26,0.12z" fill="#FFA382" id="svg_131"/>
  <path d="m428.54,14.88l0.08,-0.07l-0.53,0.15l0.45,-0.08z" fill="#FFA382" id="svg_132"/>
  <path d="m425.35,14.9c0.33,0.27 1.13,-0.28 1.72,-0.06l0.09,0.08l0.27,-0.24c-0.72,-0.07 -1.6,0.19 -2.08,0.22z" fill="#FFA382" id="svg_133"/>
  <path d="m423.46,14.52c0.15,0.1 -0.35,0.17 0.43,-0.03l-0.08,-0.02l-0.35,0.05z" fill="#FFA382" id="svg_134"/>
  <path d="m423.81,14.47c-0.26,-0.06 0.35,-0.07 0,0l0,0z" fill="#FFA382" id="svg_135"/>
  <path d="m422.28,15.03l0.4,-0.27c-0.12,-0.03 -0.52,0.1 -0.39,0c-0.43,0.23 -0.31,0.26 -0.01,0.27z" fill="#FFA382" id="svg_136"/>
  <path d="m421.97,15.4l0.2,-0.13c-0.05,-0.01 -0.11,0 -0.2,0.13z" fill="#FFA382" id="svg_137"/>
  <path d="m422.6,15l-0.43,0.28c0.08,0.02 0.13,0.11 0.2,-0.12c0,0.1 0.06,-0.02 0.23,-0.16z" fill="#FFA382" id="svg_138"/>
  <path d="m422.89,14.94c0.26,-0.03 0.58,-0.1 0.19,0.16c0.8,-0.3 0.62,-0.51 -0.19,-0.16z" fill="#FFA382" id="svg_139"/>
  <path d="m425.24,15.25l0.33,0.04l0.26,-0.15c-0.13,0.07 -0.63,0.01 -0.59,0.11z" fill="#FFA382" id="svg_140"/>
  <path d="m419.61,16.17c0.02,0.08 0.24,0.06 0.32,0.11l0.23,-0.25c-0.17,0.05 -0.47,0.21 -0.55,0.14z" fill="#FFA382" id="svg_141"/>
  <path d="m419.93,16.28l-0.35,0.39c0.38,-0.25 0.41,-0.34 0.35,-0.39z" fill="#FFA382" id="svg_142"/>
  <path d="m422.04,15.76l0.66,-0.53l-0.8,0.59l0.14,-0.06z" fill="#FFA382" id="svg_143"/>
  <path d="m417.99,17.32l0.13,-0.29l-0.22,0.52l0.09,-0.23z" fill="#FFA382" id="svg_144"/>
  <path d="m417.17,18.34c0.03,-0.25 -0.38,0.1 -0.3,-0.13c-0.21,0.3 -0.31,0.61 -0.4,0.88c0.14,-0.26 0.35,-0.5 0.7,-0.75z" fill="#FFA382" id="svg_145"/>
  <path d="m416.31,19.53l0.16,-0.44l-0.16,0.44z" fill="#FFA382" id="svg_146"/>
  <path d="m418.86,17.13c-0.06,0 -0.19,-0.04 -0.46,0.09l0.3,0.03l0.16,-0.12z" fill="#FFA382" id="svg_147"/>
  <path d="m418.71,17.25l-0.01,0c-0.18,0.12 -0.3,0.2 -0.36,0.24c0.05,-0.03 0.16,-0.1 0.37,-0.24z" fill="#FFA382" id="svg_148"/>
  <path d="m418.9,17.11l-0.04,0.02l0.04,-0.02z" fill="#FFA382" id="svg_149"/>
  <path d="m420.77,16.08c-0.19,0.26 -0.6,0.69 -0.05,0.5c0.1,-0.22 -0.22,-0.11 0.05,-0.5z" fill="#FFA382" id="svg_150"/>
  <path d="m419.26,17.15l0.45,-0.27c-0.03,-0.03 -0.16,-0.04 -0.07,-0.16l-0.38,0.43z" fill="#FFA382" id="svg_151"/>
  <path d="m419.09,17.34l0.17,-0.19l-0.17,0.1l0,0.09z" fill="#FFA382" id="svg_152"/>
  <path d="m417.06,18.9l-0.4,0.65l0.63,-0.68c-0.03,-0.06 -0.03,-0.23 -0.23,0.03z" fill="#FFA382" id="svg_153"/>
  <path d="m417.83,18.05l-0.03,0.05l0.03,-0.05z" fill="#FFA382" id="svg_154"/>
  <path d="m415.57,22.1l0.05,-0.03l-0.03,-0.02l-0.02,0.05z" fill="#FFA382" id="svg_155"/>
  <path d="m417.35,18.85c0.18,-0.15 0.22,-0.28 0.26,-0.42l-0.32,0.44l0.06,-0.02z" fill="#FFA382" id="svg_156"/>
  <path d="m416.06,20.28l0.24,-0.33c-0.1,0.08 -0.27,0.27 -0.24,0.33z" fill="#FFA382" id="svg_157"/>
  <path d="m417.71,18.12l0.01,-0.03c-0.08,0.03 -0.05,0.04 -0.01,0.03z" fill="#FFA382" id="svg_158"/>
  <path d="m417.71,18.12l-0.1,0.31l0.19,-0.33l-0.09,0.02z" fill="#FFA382" id="svg_159"/>
  <path d="m416.69,23.08c-0.22,-0.06 -0.33,-0.62 0.08,-0.99c0.03,-0.46 -0.66,-0.37 -1.14,-0.02c0.08,0.03 0.12,0.05 0.1,0.55c0.11,-0.16 0.6,-0.99 0.61,-0.56c-0.13,0.62 -0.28,0.47 -0.38,0.77c0.23,-0.22 0.32,0.85 0.66,0.73l-0.11,-0.54c0.05,0 0.13,0.2 0.18,0.06z" fill="#FFA382" id="svg_160"/>
  <path d="m415.99,21.14l0.06,-0.2c-0.12,0.21 -0.25,0.35 -0.51,0.62c-0.04,0.37 0,0.45 0.05,0.49l0.4,-0.98l0,0.07z" fill="#FFA382" id="svg_161"/>
  <path d="m416.4,20.04c0.12,0.24 0.02,0.74 0.32,0.54c0.23,-0.55 -0.04,-0.49 0.12,-0.81c-0.43,0.88 -0.02,-0.34 -0.42,0.27l0.24,-0.49l-0.36,0.41l0.02,-0.02l0,0l0.01,0l0.02,0l0,0.02l0.05,0.08c-0.15,0.25 -0.07,0.02 -0.05,-0.08l-0.02,-0.03l-0.01,0.01l-0.27,0.99c0.1,-0.18 0.19,-0.44 0.35,-0.89z" fill="#FFA382" id="svg_162"/>
  <path d="m420.54,17.22l-0.05,-0.02c-0.04,0.06 -0.05,0.08 0.05,0.02z" fill="#FFA382" id="svg_163"/>
  <path d="m420.15,17.35c0.04,-0.06 0.04,-0.16 0.24,-0.27c0.19,-0.07 0.05,0.08 0.1,0.12c0.07,-0.12 0.31,-0.39 -0.1,-0.22l-0.04,0.06c-0.35,0.17 -0.92,0.27 -0.88,0.21c0.2,0.07 0.37,0.11 0.68,0.1z" fill="#FFA382" id="svg_164"/>
  <path d="m418.18,18.51l-0.43,0.68l0.39,-0.21l-0.09,-0.05c0.32,-0.32 0.16,-0.33 0.13,-0.42z" fill="#FFA382" id="svg_165"/>
  <path d="m415.44,22.17l-0.17,-0.15l0.15,0.53l0.02,-0.38z" fill="#FFA382" id="svg_166"/>
  <path d="m415.33,23.26l-0.18,-0.06l0.1,0.3l0.08,-0.24z" fill="#FFA382" id="svg_167"/>
  <path d="m430.26,53.65l0.15,-0.15l-0.15,0.15z" fill="#FFA382" id="svg_168"/>
  <path d="m405.48,41.35c0,0.38 -0.05,0.86 0.12,0.73l0.13,-0.19c-0.15,-0.2 -0.21,-0.38 -0.25,-0.54z" fill="#FFA382" id="svg_169"/>
  <path d="m416.39,53.39l-0.02,-0.11l-0.3,-0.03l0.32,0.14z" fill="#FFA382" id="svg_170"/>
  <path d="m417.12,52.97l0.23,0.33l-0.23,-0.33z" fill="#FFA382" id="svg_171"/>
  <path d="m437.41,48.33l0.21,-0.21c-0.37,0.03 -0.19,0.11 -0.21,0.21z" fill="#FFA382" id="svg_172"/>
  <path d="m408.09,27.36c-0.29,0.15 -0.55,0.26 -0.68,0.43c0.34,-0.2 0.73,-0.24 0.68,-0.43z" fill="#FFA382" id="svg_173"/>
  <path d="m430.68,55.73c0.13,-0.09 0.17,-0.15 0.14,-0.18c-0.13,0.08 -0.19,0.15 -0.14,0.18z" fill="#FFA382" id="svg_174"/>
  <path d="m406.81,28.49l0.14,-0.1l0.46,-0.6c-0.25,0.16 -0.51,0.38 -0.6,0.7z" fill="#FFA382" id="svg_175"/>
  <path d="m437.3,26.07l0,-0.06l0,0.06z" fill="#FFA382" id="svg_176"/>
  <path d="m434.49,17.44l0.35,0.23c-0.05,-0.05 -0.15,-0.12 -0.35,-0.23z" fill="#FFA382" id="svg_177"/>
  <path d="m414.33,24.46c0.04,-0.03 0.24,-0.04 0,0l0,0z" fill="#FFA382" id="svg_178"/>
  <path d="m415.56,25.08l-0.08,0.1l0.08,-0.1z" fill="#FFA382" id="svg_179"/>
  <path d="m406.63,30.94l-0.01,0.01c0.07,-0.03 0.05,-0.03 0.01,-0.01z" fill="#FFA382" id="svg_180"/>
  <path d="m414.7,24.5l-0.31,-0.02c0.05,0.01 0.15,0.02 0.31,0.02z" fill="#FFA382" id="svg_181"/>
  <path d="m414.64,24.42l0.21,-0.01c0.02,-0.03 -0.01,-0.05 -0.21,0.01z" fill="#FFA382" id="svg_182"/>
  <path d="m414.01,24.51l0.38,-0.03l-0.06,-0.02l-0.32,0.05z" fill="#FFA382" id="svg_183"/>
  <path d="m445.8,39.25l0.02,-0.04c-0.07,-0.19 -0.06,-0.11 -0.02,0.04z" fill="#FFA382" id="svg_184"/>
  <path d="m410.54,44.42l-0.03,0l0.02,0.02l0.01,-0.02z" fill="#FFA382" id="svg_185"/>
  <path d="m411.21,44.69c-0.39,0.03 -0.52,-0.09 -0.68,-0.25l-0.16,0.57l0.84,-0.32z" fill="#FFA382" id="svg_186"/>
  <path d="m433.01,51.46l-0.44,0.24c0.14,-0.62 0.46,-0.84 0,-0.68c0.5,0.5 -1.22,1.24 -0.88,1.73l-0.33,0.1l0.13,-0.14c-0.67,0.13 -0.12,0.6 -0.87,0.96c-0.28,0.11 -0.49,0.13 -0.36,-0.02l-0.51,0.41c-0.18,0.06 -0.18,-0.05 0,-0.11l-0.89,0.41l0,-0.02c-0.1,0.14 -0.33,0.42 -0.47,0.5c-0.28,-0.02 0.1,-0.09 0.01,-0.15l-0.49,0.28c-0.27,-0.09 0.13,-0.35 0.5,-0.42c-0.69,-0.44 -0.4,0.25 -1.56,0.2l0.47,-0.2c-0.39,-0.24 -0.74,-0.02 -1.34,-0.18c0.14,0.1 1.23,0.36 0.69,0.6c-0.18,-0.02 -0.4,-0.02 -0.7,0.14c-0.03,-0.21 -0.34,-0.12 -0.72,-0.05l0,-0.28c-0.4,0.14 -0.37,0.24 -0.61,0.37c-0.48,-0.02 -0.57,-0.24 -0.68,-0.42c-0.73,-0.04 0.51,0.34 -0.38,0.4c-0.62,-0.12 -1.04,-0.12 -1.83,-0.03c-0.42,-0.17 0.11,-0.15 -0.03,-0.26l-0.42,0.12c-0.1,-0.03 -0.05,-0.09 -0.02,-0.12c-0.34,0 -0.1,0.27 -0.64,0.2c-0.26,0.27 -0.86,-0.72 -1.55,-0.7c-0.1,-0.14 0.15,-0.12 0.16,-0.24c-0.9,-0.15 -0.75,-0.16 -1.52,-0.31l-0.38,-0.49c0.24,0.4 -0.45,0.34 -0.97,0.09c0.05,0.19 0.08,0.38 0.14,0.46l-0.74,-0.51c-0.04,-0.1 0.1,-0.1 0.29,-0.09l-0.16,-0.06c-0.14,-0.3 0.11,-0.29 0.37,-0.25l0.08,0.34c0.27,0.03 0.54,0.02 0.63,-0.13l-0.24,-0.14l0.13,-0.04c0,-0.04 -0.1,-0.05 -0.24,-0.09l0.11,-0.35l-0.12,0.06l-0.54,-0.85c-0.59,-0.43 -1.56,-0.67 -2.06,-1.81c0.34,0.2 0.4,-0.08 0.68,-0.16c-0.18,0.41 0.41,0.81 0.71,1.3c-0.14,-0.28 0.02,-0.28 0.1,-0.24l-0.71,-0.81c0.23,-0.07 0.08,-0.28 0.08,-0.56c-0.34,0.33 -0.65,-0.62 -0.79,-1.05c0.16,-0.06 0.29,0.03 0.4,0.54c0.19,-0.63 -0.68,-0.64 -0.5,-1.26l0.11,0.24c-0.19,-0.28 -0.21,-1.04 -0.04,-0.87l0.02,0.12c-1.26,-2.05 -2.62,-1.5 -3.02,-1.73c0.03,-0.04 0.37,-0.31 0.45,-0.34l-2.17,0.08c0.34,-0.17 0.45,-1.06 1.16,-0.77c-0.16,-0.14 -0.29,-0.36 -0.69,-0.57c0.07,0.12 -0.08,0.58 -0.24,0.47c-0.13,-0.64 -0.14,-0.41 -0.37,-1.07c0.1,0.19 -0.48,0.38 -0.71,0.1c0.1,0 0.39,-0.33 0.51,-0.27l-0.92,-0.38c0.2,0.12 0.38,-0.22 0.4,-0.44c-0.03,0.12 -0.43,-0.56 -0.58,-0.73l0.09,0.35c-0.42,-0.82 -1.1,-0.49 -1.54,-1.37c0.16,0.07 0.74,0 0.6,-0.44c-0.31,-0.09 -1.54,-0.51 -2.01,-1.37l0.12,-0.2l-0.29,-0.65c0.43,0.4 1.57,1.32 2.1,1.75c0.01,-0.36 0.14,-0.14 -0.03,-0.62c0.08,-0.21 0.29,0.2 0.35,0.34l-0.25,-1.13c-0.3,0.12 -0.46,-0.83 -0.71,-0.75c0.2,0.41 0.31,0.83 0.57,1.21c-0.32,0.15 -1.05,-0.55 -1.13,-1.45c0.09,-0.24 0.59,0.1 0.69,0.07c-0.14,-0.1 -0.33,-0.78 -0.22,-0.87l0.17,0.35c0.12,-0.47 -0.42,-0.76 -0.12,-1.33c0,-0.2 0.42,-0.55 0.25,-0.59c-0.41,0.27 -1.51,0.29 -1.76,0.03c0.03,-0.08 0.52,-1.11 0.74,-1.3c0.33,-0.28 0.58,0.62 0.86,0.37c-0.08,-0.02 -0.16,-0.22 -0.18,-0.3c0.11,-0.19 0.24,0.13 0.29,-0.31c-0.29,-0.15 0.33,-0.87 -0.19,-0.27c0.06,-0.45 0.22,-0.43 0.38,-0.93c-0.24,0.1 -0.54,-0.71 -0.34,-1.16c0.06,0.05 0.21,0 0.28,-0.02c0.47,-0.86 0.91,-1.19 1.52,-1.85c0.12,-0.02 0.46,-0.29 0.45,-0.06c0.04,-0.13 0.02,-0.31 0.24,-0.47c0.61,-0.14 -0.44,0.41 0.1,0.38c-0.11,-0.15 0.37,-0.6 0.61,-0.94c-0.26,-0.12 -0.79,0.52 -0.96,0.87c-0.33,-0.28 -0.05,-0.98 0.66,-1.77c0.59,-0.57 0.43,-0.01 0.5,-0.14c1.39,-0.59 0.83,-1.25 2.18,-1.44c0.58,0.08 0.19,0.44 0.37,0.57c-0.6,0.23 -0.99,0.22 -1.39,0.42l0.54,-0.15c-0.15,0.17 -0.5,0.41 -0.74,0.46c0.42,-0.09 2.31,-0.94 3.48,-0.96c0.19,-0.1 0.52,-0.22 0.34,-0.3l-0.36,0.08c-0.37,-0.15 0.64,-0.34 0.16,-0.38c0.47,-0.18 1.02,-0.46 1.74,-0.43l0.15,0.25c-0.02,-0.07 -0.47,-0.11 -0.66,0c0.52,-0.39 0.95,0.61 0.48,-0.06c0.21,-0.16 -0.76,1.05 0.42,-0.22c-1.39,0.98 -0.79,-0.69 -0.97,-1.01c-0.29,0.28 0.03,0.14 -0.31,0.61c0.41,-0.41 -0.01,1.66 0.42,0.98c1.59,-1.96 -0.24,-0.53 -0.44,-1.13c0.03,0.09 0.24,0.15 -0.31,0.17l-0.11,0.09l-0.04,-0.01l0.04,0.01l0.01,0l0.3,0.11c-0.24,0.24 -1.1,0.3 -1.35,0.48c-0.32,0.05 0.1,-0.14 -0.09,-0.18l-0.38,0.27c-0.09,-0.18 -0.93,-0.07 -0.21,-0.4l-0.68,0.19c-0.43,0.03 -1.02,0.09 -1.3,0.35c-0.32,0.11 -0.65,0.58 -0.46,0.31l-0.92,0.61l-0.04,-0.04c-0.92,0.59 -1.65,1.45 -2.66,2.18c-0.19,0.31 -0.41,0.61 -0.79,1.06l-0.22,0.01c-0.17,0.42 -0.85,1.13 -0.77,1.38c-0.64,0.28 -0.96,2.05 -1.07,2.82l0.23,0.06c-0.08,0.54 -0.17,1.05 -0.04,1.72l0.21,-0.03c0.19,0.55 -0.21,1.44 0.02,2.33c-0.09,-0.05 -0.11,-0.28 -0.09,-0.44c-0.35,1.15 0.76,2.14 0.77,3.12c0.15,0.21 0.18,0.38 0.22,0.55l-0.04,-0.05l0.05,0.09l0.05,0.35l-0.03,-0.3l0.42,0.64l-0.15,0.2l0.04,0.05c0.05,0.29 0.19,0.15 0.28,-0.05l0.29,0.27c-0.24,0.38 0.49,0.55 0.35,0.99c0.28,0.04 0.93,1.09 1.38,0.91c-0.03,0.04 0.01,0.11 -0.1,0.01c0.19,0.24 0.38,0.49 0.66,0.6l-0.1,0.29l0.75,0.2c0.19,0.39 0.31,0.54 -0.2,0.47c1.06,0.32 0.78,0.37 1.67,0.58l-0.13,0.13c0.25,0.18 0.81,0.19 0.9,0.38c-0.15,0.11 1.9,1.02 1.06,0.66c0.14,0.93 0.28,1.98 0.51,2.83c0.39,-0.49 0.06,0.84 0.48,0.75c-0.08,0.14 -0.06,0.4 -0.26,0.18c0.55,0.73 0.56,1.28 1.18,1.62c-0.05,0.16 -0.26,-0.06 -0.27,0.06c0.07,0.04 0.24,0.19 0.26,0.29c0.01,0.11 -0.19,-0.03 -0.3,-0.13c0.64,0.73 1.04,0.52 1.35,0.34c0.19,0.43 0.38,0.59 0.77,0.65c0.06,0.17 0.18,0.44 -0.29,0.11c0.21,0.23 1.52,1.28 1.7,1.07c0.05,0.11 0.4,0.21 0.49,0.21c0.65,0.32 0.69,0.39 1.36,0.63l-0.17,-0.11c0.39,-0.22 0.58,0.09 1.14,0.21l-0.02,0.03c1.19,0.59 0.55,0.07 1.78,0.53l-0.04,-0.22c0.17,-0.44 1.08,0.44 1.86,0.22l-0.27,-0.12c0.39,-0.17 1.15,0.65 1.59,0.65c0.1,0.02 -0.13,0.09 -0.26,0.12c1.13,0.14 0.12,-0.29 0.92,-0.46c0.17,0.13 -0.14,0.4 0.42,0.36c0.33,0.13 1.48,-0.77 2.28,-0.71c-0.2,-0.07 -0.4,-0.13 -0.06,-0.31c0.53,-0.17 1.63,-0.17 1.96,-0.68l0.14,0.04c0.35,-0.27 1.16,-0.85 1.26,-1.13c0.84,0.39 1.87,-1.89 2.29,-1.46l0.84,-1.04l0.04,0.07c0.55,-0.66 0.5,-1.05 0.5,-1.37c0.15,-0.14 0.13,0.01 0.16,0.04c-0.97,-0.25 0.8,-0.08 1.31,-0.56l0.14,0.21c0.25,-0.06 1.91,0.02 3.04,-0.6l-0.09,0.15c1.2,-0.71 3.42,-1.15 3.24,-2.14l0.5,-0.77c-0.81,0.8 -0.15,-0.36 -0.57,-0.11c0.25,-0.34 0.95,-0.68 0.62,-0.25l-0.09,0.04c0.2,0.42 1.09,-0.95 1.25,-0.82c1.31,-1.86 2.13,-4.01 2.15,-6.14l-0.36,0.23l0.05,-0.72c0.08,-0.19 0.27,-0.27 0.24,0.26c0.23,-0.28 -0.21,-0.87 -0.29,-0.87c0,-1.03 0.45,0.36 0.42,0.05l-0.08,-0.43l-0.03,0.1c-0.19,-0.33 -0.34,-0.34 -0.41,-0.96c-0.01,-0.4 0.16,-0.24 0.13,-0.4c0.03,0 0.02,-0.05 -0.06,-0.23l-0.26,-0.91l-0.14,0.44c-0.25,-0.36 -0.25,-0.83 -0.41,-0.34c0.36,-0.79 -1.5,-3.09 -1.72,-3.41c-0.52,-0.33 -1.01,-0.65 -1.53,-1.15c0.1,0.16 -0.02,0.45 -0.45,0.03c0.57,-0.37 -0.83,-0.76 -1.08,-1.38c0.31,0.38 -1.73,-0.61 -1.21,0.03c-0.49,-0.2 0.05,-0.22 -0.29,-0.47l-0.98,-0.23c1.04,1.41 0.29,-0.16 0.54,-0.12c0.03,-0.67 0.07,-1.39 -0.01,-2.11c-0.08,-0.02 -0.19,0.23 -0.33,-0.06l0.37,-0.81c-0.08,-0.28 -0.44,-0.2 -0.32,-0.75c-0.05,0.09 -0.12,0.21 -0.2,0.03c-0.27,-2.91 -2.16,-5.37 -3.9,-7.83c0.23,0.36 -0.01,0.2 -0.27,0.02c0.14,0.15 -0.14,0.14 -0.18,0.24l-0.83,-0.98c-0.37,0.1 -1.12,-0.79 -1.38,-0.63l0.35,0.19c-0.6,-0.02 0.16,1.04 -0.18,1.33c0.7,0.04 0.75,1.25 1.85,1.37c0.09,0.17 -0.24,-0.01 -0.23,0.12c0.35,-0.02 0.5,0.2 0.71,0.66l-0.07,-0.02c0.75,1.13 1.1,1.63 1.6,3.02l0.17,-0.19c0.07,0.32 0.03,0.41 0.02,0.58c0.42,0.24 -0.25,-0.89 0.19,-0.69c-0.29,0.57 0.68,2.24 0.27,2.63c0.15,0.47 0.21,-0.19 0.36,0.29l-0.1,0.15l0.21,0.09c0.1,0.31 -0.13,0.52 -0.23,0.54l-0.07,-0.3c-0.12,0.44 0.12,1.18 0.08,1.33l0.06,-0.48l0.17,2.19c0.46,0.72 -0.94,-0.03 1.08,1.89l1.05,0.2l-0.06,-0.12c1.09,0.12 0.72,0.4 1.76,0.83l-0.05,0c0.25,0.03 0.58,0.1 0.79,0.33c-0.29,-0.08 0.25,0.52 -0.11,0.38c0.95,0.55 0.5,0.22 1.35,0.44l-0.03,0.25c0.27,0.09 0.35,0.06 0.75,0.48c-0.41,-0.28 0,0.43 -0.48,0.14c0.45,1.03 1.21,1.29 1.01,1.94c0.69,0.3 -0.23,-0.98 0.01,-0.76c0.02,-0.29 0.53,0.25 0.67,0.61c0.13,0.36 -0.39,0.8 -0.1,1.65l-0.09,-0.17c0.01,0.34 0.31,0.62 0.17,1.06c0.32,0.2 0.06,0.53 0.44,0.57l-0.2,-0.83c0.12,0.45 0.73,0.89 0.45,1.71c-0.08,-0.06 -0.17,-0.3 -0.21,-0.46c-0.12,0.23 0.05,0.45 -0.07,0.69c-0.36,-0.07 -0.02,-1.03 -0.43,-1.5c-0.12,0.24 0.39,0.92 -0.04,0.69c0.5,0.35 -0.1,0.87 0.28,1.5l-0.22,-0.06c0.04,0.1 0.11,0.31 0.06,0.48l-0.22,-0.34c0.14,0.51 -0.4,0.88 -0.36,1.35c0.18,-0.95 0.31,-0.16 0.55,-0.54c0.05,1.29 -0.72,0.56 -1.07,1.83c0.04,-0.18 0.37,-0.59 0.37,-0.29c-0.14,0.22 -0.34,0.51 -0.5,0.6c-0.43,0.77 0.28,-0.02 0.2,0.36c-0.41,0.15 -0.14,0.43 -0.28,0.82l-0.19,-0.11c-0.66,0.8 0.24,0.49 -0.51,1.13l0.02,-0.48l-0.26,0.41l-0.13,-0.23c-0.23,0.48 -0.31,0.65 -0.8,0.89c0.21,0.04 0.23,0.33 -0.16,0.62c-0.34,0.1 0.01,-0.27 -0.5,0.16c0.04,-0.2 0.06,-0.43 0.41,-0.44l0.01,-0.26c-0.37,0.08 -0.69,0.47 -0.87,0.62l0.22,-0.12c-0.16,0.3 -0.43,0.47 -0.67,0.72c-0.18,-0.01 -0.1,-0.12 -0.02,-0.22c-0.17,0.1 -0.24,0.24 -0.5,0.39c-0.01,-0.19 -0.1,-0.35 0.21,-0.59l-0.71,0.57c-0.08,-0.02 -0.53,-0.07 -0.44,-0.15c-0.5,-0.01 -1.07,0.68 -1.79,0.62c-0.03,0.04 -0.1,0.07 -0.24,0.11c-1.07,0.45 -0.32,-1.15 -2.9,1.13l-0.49,0.2c-0.21,0.52 0.64,-0.29 0.28,0.58c-0.25,0.64 -0.35,0.09 -0.56,0.23c-0.07,0.32 -0.21,0.98 -0.81,1.29l0.33,-0.46zm-6.32,3.51c0.14,-0.05 0.38,-0.28 0.51,-0.18c-0.1,0.28 -0.25,0.21 -0.51,0.18zm-10.78,-2.67c0.14,0.03 0.22,0.17 0.29,0.36l-0.29,-0.36zm-4.05,-27.05l-0.01,0.01c-0.4,0.03 -0.26,0.03 0.01,-0.01zm0.8,-0.14c0.07,-0.05 0.05,-0.08 0.01,-0.1c-0.04,0.07 -0.21,0.12 -0.41,0.17c0.07,0.03 0.19,0.04 0.4,-0.07zm34.32,11.76l-0.01,0.15c-0.16,-0.3 -0.08,-0.23 0.01,-0.15z" fill="#FFA382" id="svg_187"/>
  <path d="m417.03,53.02l-0.04,0.13c0.07,0.01 0.09,-0.02 0.04,-0.13z" fill="#FFA382" id="svg_188"/>
  <path d="m437.38,48.37l0.02,0l0.01,-0.04l-0.03,0.04z" fill="#FFA382" id="svg_189"/>
  <path d="m406.55,33.7l-0.16,0.23c0.05,0.02 0.11,-0.03 0.16,-0.23z" fill="#FFA382" id="svg_190"/>
  <path d="m415.12,25.29l0.04,0.25l0.01,0.06c2.54,-2.88 0.66,-0.79 1.21,-1.43l-0.12,0.03l0.16,-0.02c-2.45,2.86 -0.67,0.72 -1.21,1.34l0.05,-0.19c-0.05,0.01 -0.13,0.12 -0.14,-0.04z" fill="#FFA382" id="svg_191"/>
  <path d="m417.05,21.37l0.05,-0.2l-0.11,-0.02c-0.09,0.27 -0.08,0.48 0.06,0.22z" fill="#FFA382" id="svg_192"/>
  <path d="m415.87,24.77c0.19,-0.05 0.13,-0.34 0.1,-0.67l0,0.06c-0.26,-0.11 -0.18,0.26 -0.1,0.61z" fill="#FFA382" id="svg_193"/>
  <path d="m415.96,24.02l0,-0.31c-0.1,-0.04 -0.02,0.13 0,0.31z" fill="#FFA382" id="svg_194"/>
  <path d="m413.6,24.72c0.17,0 0.05,-0.27 0.16,-0.2c0.13,-0.3 -1.03,0.57 -0.16,0.2z" fill="#FFA382" id="svg_195"/>
  <path d="m416.5,24.47l-0.23,0.13l0.18,0.16l0.05,-0.29z" fill="#FFA382" id="svg_196"/>
  <path d="m414.87,25.44l0.54,0l0.13,-0.09c-0.33,0.03 -0.69,0.03 -0.67,0.09z" fill="#FFA382" id="svg_197"/>
  <path d="m415.54,25.35l0.43,-0.09l-0.43,0.09z" fill="#FFA382" id="svg_198"/>
  <path d="m416.57,25.15l-0.05,0.15c0.04,0.16 -0.17,0.15 -0.27,0.15c0.22,0.07 0.36,-0.13 0.32,-0.3z" fill="#FFA382" id="svg_199"/>
  <path d="m409.52,27.33l-0.41,0.41c0.01,0.09 0.16,0.03 0.31,-0.12c0.07,-0.13 0.22,-0.28 0.1,-0.29z" fill="#FFA382" id="svg_200"/>
  <path d="m411.34,27.02l-0.3,-0.04l0.12,0.25l0.18,-0.21z" fill="#FFA382" id="svg_201"/>
  <path d="m409.99,27.84c0,0.09 -0.46,0.65 0.05,0.22c-0.01,-0.09 0.37,-0.47 -0.05,-0.22z" fill="#FFA382" id="svg_202"/>
  <path d="m405.63,34.37l0.02,-0.13l-0.48,-0.05l0.46,0.18z" fill="#FFA382" id="svg_203"/>
  <path d="m407.91,40.82c-0.16,-0.57 -0.33,-0.01 -0.44,-0.54c-0.17,-0.08 0.09,0.43 -0.06,0.34c0.27,0.28 0.3,0.48 0.5,0.2z" fill="#FFA382" id="svg_204"/>
  <path d="m407.41,40.62l-0.16,-0.13l0.16,0.13z" fill="#FFA382" id="svg_205"/>
  <path d="m433.27,16.24l-0.33,-0.36l0.16,0.31l0.17,0.05z" fill="#FFA382" id="svg_206"/>
  <path d="m432.36,16l0.06,-0.31l-0.36,0.06c0.1,0.05 0.27,0.15 0.3,0.25z" fill="#FFA382" id="svg_207"/>
  <path d="m425.5,54.55l-0.02,0.07c0.07,0.06 0.16,0.06 0.34,0.05l-0.32,-0.12z" fill="#FFA382" id="svg_208"/>
  <path d="m430.52,53.16l-0.08,0.04l0.3,0.13l-0.22,-0.17z" fill="#FFA382" id="svg_209"/>
  <path d="m433.32,50.15l-0.26,0.44c0.21,-0.28 0.56,-0.32 0.26,-0.44z" fill="#FFA382" id="svg_210"/>
  <path clip-rule="evenodd" d="m419.87,25.09c2.53,-3.04 4.09,-2.06 5.93,-1.05c1.33,-4.18 -6.72,-2.56 -5.93,1.05z" fill="#FCDCD5" fill-rule="evenodd" id="svg_211"/>
  <path clip-rule="evenodd" d="m413.62,31.07c-4.52,1.14 -5.88,7.1 -2.53,10.19c-1.07,-3.02 -1.82,-8.01 2.53,-10.19z" fill="#F5F5F3" fill-rule="evenodd" id="svg_212"/>
  <path clip-rule="evenodd" d="m436.64,40.59c1.83,-3.1 0.18,-6.97 -2.74,-6.73c1.74,1 4.09,3.18 2.74,6.73z" fill="#FCDCD5" fill-rule="evenodd" id="svg_213"/>
  <path clip-rule="evenodd" d="m419.73,35.75c1.25,0.39 2.99,-0.86 1.68,-2.38c-2.25,-1.47 -3.61,2.1 -1.68,2.38z" fill="#BE1E2D" fill-rule="evenodd" id="svg_214"/>
  <path clip-rule="evenodd" d="m426.11,33.67c-0.16,-0.37 0.13,-0.56 -0.49,-1.1c-3.66,-0.78 -1.48,4.1 0.49,1.1z" fill="#BE1E2D" fill-rule="evenodd" id="svg_215"/>
  <path clip-rule="evenodd" d="m429.07,32.08c-1.16,-0.59 -2.2,0.36 -1.79,1.13c0.12,1.42 3.32,-0.03 1.79,-1.13z" fill="#404751" fill-rule="evenodd" id="svg_216"/>
  <path clip-rule="evenodd" d="m426.48,36.54c0.28,1.51 2.33,0.6 2.66,-0.2c0.54,-0.69 0.36,-1.31 -0.65,-1.46c-1.44,-0.05 -1.49,0.66 -2.01,1.66z" fill="#404751" fill-rule="evenodd" id="svg_217"/>
  <path clip-rule="evenodd" d="m421.87,37.49c0.26,0.89 0.69,1.38 1.21,1.67c1.71,-0.35 2.16,-1.07 1.68,-2.38c-0.48,-1.06 -2.58,0 -2.89,0.71z" fill="#404751" fill-rule="evenodd" id="svg_218"/>
  <path clip-rule="evenodd" d="m418.6,38.35c0.47,2.12 2.43,0.86 2.66,-0.19c-0.46,-0.92 -2.45,-1.88 -2.66,0.19z" fill="#404751" fill-rule="evenodd" id="svg_219"/>
  <path clip-rule="evenodd" d="m425.91,39.34c0.23,1.23 0.03,0.81 0.81,1.83c1.37,0.83 2.15,-1.19 1.68,-2.38c-0.65,-0.24 -2.36,-0.75 -2.49,0.55z" fill="#404751" fill-rule="evenodd" id="svg_220"/>
  <path clip-rule="evenodd" d="m421.99,43.89c1.53,0.68 3.18,-0.58 2.95,-1.59c-0.73,-3.21 -5.24,-1.1 -2.95,1.59z" fill="#404751" fill-rule="evenodd" id="svg_221"/>
  <path clip-rule="evenodd" d="m438.9,34.66c-0.39,0.15 -0.27,-0.02 -0.66,0.13c3.05,3.1 2.87,7.5 -1.51,9.32c5.33,1.92 6.2,-7.69 2.17,-9.45z" fill="#E85E52" fill-rule="evenodd" id="svg_222"/>
  <path clip-rule="evenodd" d="m431.29,38.08c-1.66,0.54 -1.71,2.29 -0.74,2.44c1.31,-0.21 0.86,-0.04 1.94,-0.76c0.21,-0.87 -0.21,-2.01 -1.2,-1.68z" fill="#404751" fill-rule="evenodd" id="svg_223"/>
  <path clip-rule="evenodd" d="m417.87,48.55c-0.57,-0.54 -0.08,-0.2 -0.51,0.04c-1.7,4.3 3.6,5.55 6.83,5.04c-1.82,-1.51 -6.09,0.38 -6.32,-5.08z" fill="#F5F5F3" fill-rule="evenodd" id="svg_224"/>
  <path clip-rule="evenodd" d="m428.54,42.17c-0.48,-0.85 -1.51,-0.28 -1.94,0.77c0.3,2.2 3.16,0.82 1.94,-0.77z" fill="#BE1E2D" fill-rule="evenodd" id="svg_225"/>
  <path clip-rule="evenodd" d="m421.88,48.64c-0.63,4.2 10.08,4.16 11.49,-1.06c-3.15,2.9 -8.39,3.84 -11.49,1.06z" fill="#E85E52" fill-rule="evenodd" id="svg_226"/>
  <path clip-rule="evenodd" d="m425.12,20.44c4.26,0.2 8.03,3.86 8.35,7.46c2.7,-2.62 -3.81,-10.39 -8.35,-7.46z" fill="#E85E52" fill-rule="evenodd" id="svg_227"/>
  <path clip-rule="evenodd" d="m401.77,50.39l-0.35,0.25c-0.71,0.38 -1.4,0.61 -2.04,0.62c-3.9,0.85 -8.32,-0.12 -10.81,-4.14c3.16,-1.15 7.02,-1.68 9.58,-2.43c0.92,-0.06 1.86,-0.22 2.75,-0.07c1.03,0.49 5.44,0.46 4.59,3c-0.6,0.91 -2.4,2.45 -3.72,2.77z" fill="#A3BA3A" fill-rule="evenodd" id="svg_228"/>
  <path clip-rule="evenodd" d="m444.61,19.22c-0.62,0.41 -1.12,1.06 -1.53,1.89c-0.06,0.16 -0.11,0.32 -0.16,0.48c-1.04,1.15 -1.64,3.79 -1.54,5.07c1.08,3.02 5.37,0.2 6.76,0.02c0.97,-0.42 1.77,-1.17 2.62,-1.82c1.94,-2.36 5.31,-5.32 7.54,-8.46c-5.47,-2.35 -10.52,-0.5 -13.69,2.82z" fill="#A3BA3A" fill-rule="evenodd" id="svg_229"/>
  <path clip-rule="evenodd" d="m454.76,27.25c-0.56,-0.03 -1.14,0.11 -1.74,0.35c-0.11,0.05 -0.21,0.1 -0.31,0.16c-1.13,0.17 -2.86,2.22 -3.36,2.85c-0.68,1.76 3.13,1.93 4.04,2.33c0.76,0.13 1.56,0.06 2.36,0.05c2.19,-0.42 5.5,-0.63 8.2,-1.32c-2.24,-2.95 -5.85,-4.87 -9.19,-4.42z" fill="#668C0C" fill-rule="evenodd" id="svg_230"/>
  <path clip-rule="evenodd" d="m35.68,29.21c-4.64,5.64 -14.7,-4.19 -4.03,-5.86c-5.13,-5.68 -0.67,-9.64 4.29,-1.43c-2.66,-10.79 7.68,-6.79 4.16,0.13c5.55,-4.8 7.62,-1.61 7.81,0.17c0.3,2.89 -2.4,4.35 -4.43,4.35c3.09,0.89 4.75,5.31 2.38,6.66c-2.39,1.36 -4.3,0.06 -5.53,-1.28c-2.36,7.05 -7.69,2.25 -4.65,-2.74z" fill="#F9ABE0" fill-rule="evenodd" id="svg_231"/>
  <path clip-rule="evenodd" d="m39.11,26.96c-1.4,0.51 -3.86,-0.57 -2.68,-2.21c2.34,-1.67 4.95,1.75 2.68,2.21z" fill="white" fill-rule="evenodd" id="svg_232"/>
 </g>
</svg>