<svg width="71" height="53" viewBox="0 0 71 53" fill="none" xmlns="http://www.w3.org/2000/svg">
<g opacity="0.65">
<path fill-rule="evenodd" clip-rule="evenodd" d="M1.86828 29.5105C1.77401 29.4757 1.87065 29.5105 1.87065 29.5105C5.29795 29.57 3.29074 26.6224 1.7382 26.5282C-0.0673431 26.4204 -0.0327255 29.4275 1.86828 29.5105Z" fill="#FFB296"/>
</g>
<path d="M66.8687 52.4895L67.1264 52.294L67.0118 52.0659L66.8687 52.4895Z" fill="#CAEFFF"/>
<path d="M68.5049 51.7651L68.7866 51.2456C67.9966 51.167 68.4202 50.9449 67.4918 51.3443C67.4046 51.6226 67.1791 52.2846 67.4309 52.3901C67.5515 52.1926 67.5443 51.7898 67.8104 51.5855C67.8844 51.8021 67.647 52.0681 67.7377 52.3553C68.2472 52.0512 67.8212 51.9896 68.2663 51.5755L68.5049 51.7651Z" fill="#CAEFFF"/>
<path d="M68.3442 50.8911L68.5733 51.1211C68.5053 51.0224 68.5447 50.7441 68.3442 50.8911Z" fill="#CAEFFF"/>
<path d="M68.4478 50.5737C68.5993 50.2674 68.6721 50.6882 68.7186 50.6724L68.4657 50.1294L68.4478 50.5737Z" fill="#CAEFFF"/>
<path d="M69.0064 49.2699L69.0254 49.1095C68.9371 49.142 68.9777 49.1992 69.0064 49.2699Z" fill="#CAEFFF"/>
<path d="M69.2001 48.6055C69.0306 48.7087 69.0318 48.8816 69.0258 49.1094L69.0616 49.0958C69.2597 48.9466 69.4949 49.2013 69.292 49.4863C69.2287 49.8308 68.9495 49.695 69.0294 50.0406L69.4232 49.7444C69.5867 49.2103 69.28 48.8198 69.2001 48.6055Z" fill="#CAEFFF"/>
<path d="M69.0062 49.2699L68.9561 49.4472C69.036 49.3855 69.0265 49.3249 69.0062 49.2699Z" fill="#CAEFFF"/>
<path d="M68.7047 49.9184L68.6987 50.107L68.8384 50.116L68.7047 49.9184Z" fill="#CAEFFF"/>
<path d="M69.3135 47.4587C69.7311 47.5877 69.1691 48.2722 69.4877 48.4169C69.5259 47.9591 69.8839 47.6192 70.1071 47.7482L70.0379 47.2006C69.8971 47.0144 69.5474 47.2231 69.3135 47.4587Z" fill="#CAEFFF"/>
<path d="M70.5171 46.4838L70.4312 46.3592L70.5171 46.4838Z" fill="#CAEFFF"/>
<path d="M69.4121 43.9007C69.7164 44.2452 69.8441 44.639 70.0518 45.034C69.9014 44.9375 69.7726 44.9992 69.6926 44.7299C69.6962 45.2707 69.9778 45.3134 69.9837 45.7689C69.5983 45.9294 69.8668 44.9869 69.5386 45.2764C69.5852 45.5827 69.6544 46.0349 70.0207 46.2807L69.7379 46.7777L70.1998 46.615C70.3549 46.4029 69.8238 46.2054 70.1269 46.0719C70.3083 46.0001 70.3668 46.2076 70.4277 46.3546C70.3036 46.0303 70.6735 45.4166 70.5327 44.7176C70.4002 43.9905 69.763 44.2856 69.4121 43.9007Z" fill="#CAEFFF"/>
<path d="M69.8681 43.7494L70.0089 43.6303L69.8013 43.7382L69.8681 43.7494Z" fill="#CAEFFF"/>
<path d="M68.8979 42.6318L69.3597 43.1492L69.2058 43.3511C69.2965 43.3006 69.5148 43.4195 69.5876 43.3735C69.874 42.9786 69.2141 42.6487 69.0435 42.357C68.905 41.4369 69.2618 42.3223 69.4897 41.851C69.5649 42.1057 69.4802 42.1494 69.5697 42.5017C69.8525 41.7847 69.0757 41.2877 68.7988 41.0274C68.8167 41.1396 68.72 41.2136 68.8501 41.3741L68.5482 41.1003C68.4169 41.5884 68.6294 41.8408 68.8979 42.6318Z" fill="#CAEFFF"/>
<path d="M69.2533 43.6922C69.1519 43.4802 69.1531 43.3892 69.2008 43.3545C69.1173 43.442 69.066 43.534 69.2533 43.6922Z" fill="#CAEFFF"/>
<path d="M68.6899 40.8567L68.7985 41.025L68.6899 40.8567Z" fill="#CAEFFF"/>
<path d="M68.453 41.3825L68.2692 40.9747L68.1904 41.2095C68.2394 41.2533 68.3719 41.4308 68.453 41.3825Z" fill="#CAEFFF"/>
<path d="M53.3715 33.7341C53.3918 33.8901 53.5481 33.9865 53.9037 34.0011C53.8333 34.1963 53.3822 34.0998 53.1543 34.1873C53.6006 34.3758 53.1149 34.4241 53.2056 34.6317C53.7175 34.7169 53.9836 34.4847 54.529 34.6081C54.4944 34.6608 54.4908 34.7506 54.5517 34.8292C55.2331 34.7719 56.3871 34.7764 57.0017 35.0502C57.6115 35.214 58.0876 35.204 58.7857 35.2713C60.954 35.8144 63.4564 36.2789 65.2858 37.9294L65.836 37.8329C65.7954 38.0539 66.3181 38.1897 66.0735 38.3344L65.7357 38.0775C65.9565 38.5903 66.7239 39.0222 67.052 39.5585C67.0664 39.462 67.2835 39.1703 67.4613 39.278C67.0448 39.5103 67.9864 39.8345 67.6153 40.2778C67.8026 40.8736 67.9721 40.0938 68.2286 40.6918C68.5019 40.6211 68.0329 40.0826 68.1475 39.8727C68.4411 39.9434 68.3671 40.4427 68.601 40.2756C68.1773 39.2478 66.3563 38.0056 64.8921 37.2729L65.1796 37.1765C64.4266 36.721 63.1271 36.3349 62.6701 35.6426C62.7369 35.9052 61.5125 35.1501 61.4552 35.6864C61.2941 35.5092 61.2261 35.5091 60.9504 35.3779L60.8227 35.5136C60.4146 35.3846 60.5554 35.1433 60.0697 35.058C60.3215 35.3453 59.9564 35.3341 59.7702 35.4878C59.2941 35.1243 58.7069 34.7686 58.2582 34.46C58.2821 34.5408 58.3084 34.6306 58.4539 34.763C58.1401 34.6138 58.1509 34.837 58.0458 34.8942C57.7248 34.846 57.8155 34.57 57.8608 34.4252C57.2844 34.2435 56.9181 34.7495 56.5136 34.4959L56.6245 34.7507C56.0123 34.7159 55.5446 34.3625 54.8632 34.3647C54.5875 34.0124 55.4551 34.1525 55.7558 34.0706C55.6293 33.9809 55.3429 33.9191 55.2653 33.8081C54.9538 33.9326 54.4383 34.0908 54.06 34.1986C54.4562 33.8743 53.5982 33.7868 53.3715 33.7341Z" fill="#CAEFFF"/>
<path d="M55.2662 33.8081L55.4799 33.706L55.252 33.7038L55.2662 33.8081Z" fill="#CAEFFF"/>
<path d="M53.3708 33.7343L53.3625 33.6947C53.2929 33.7083 53.3118 33.7185 53.3708 33.7343Z" fill="#CAEFFF"/>
<path d="M57.0848 35.0839L57.0024 35.0513L56.895 35.0245L57.0848 35.0839Z" fill="#CAEFFF"/>
<path d="M57.791 34.1246L58.2576 34.4622C58.2218 34.3478 58.1908 34.2469 57.791 34.1246Z" fill="#CAEFFF"/>
<path d="M61.839 35.3757C61.9786 35.3757 61.9309 35.2881 62.0455 35.2443C61.7889 35.1545 61.6743 35.1984 61.839 35.3757Z" fill="#CAEFFF"/>
<path d="M54.5372 33.6555L54.0146 33.6622L53.8188 33.7016L54.5372 33.6555Z" fill="#CAEFFF"/>
<path d="M44.0845 33.5961C44.4819 33.9552 45.1704 33.8565 45.7122 33.9911C46.7468 33.9822 45.9318 33.4076 46.8912 33.5019L46.6454 34.045C47.6108 34.1415 48.9593 34.3995 49.8364 33.9989C49.8985 34.0752 50.0596 34.1807 49.7994 34.2334C50.4426 34.2839 50.2326 33.4615 51.0656 33.7465C50.2219 34.0091 51.284 34.11 51.0202 34.4366L50.8914 34.4623C51.4379 34.4859 52.1814 34.3815 52.5358 34.4444C52.5692 34.2996 52.2852 34.0394 52.7685 34.0787C52.5764 34.0259 52.6778 33.8699 52.7124 33.7262C52.1933 33.8317 51.9379 33.7028 51.6109 33.8621C51.3591 33.6388 51.8066 33.8206 51.5524 33.5995L51.1312 33.7331C50.8424 33.6545 51.4582 33.5749 51.0059 33.4828C50.9391 33.5883 50.5525 33.669 50.1981 33.6028L50.309 33.5479C50.0262 33.5939 49.6515 33.4559 49.7446 33.7869L49.4618 33.4357L49.4915 33.6567C48.7541 33.4861 48.5429 32.9398 47.5452 33.098C47.766 33.19 47.5392 33.282 47.4103 33.3089C47.791 33.5041 47.9282 33.2034 48.3113 33.2169C48.3399 33.4379 47.6597 33.622 48.106 33.8038C47.6311 33.4885 47.1406 33.7296 46.9998 33.1596C46.3972 33.0451 46.1311 33.2774 45.532 33.0721L45.5618 32.9936C45.39 33.3336 45.0869 32.7681 44.5702 33.0677L44.884 33.19C44.8446 33.3325 44.6848 33.3168 44.4592 33.3123C44.4938 33.2596 44.4938 33.2596 44.4353 33.1788C44.3243 33.4223 43.6215 33.3448 43.52 33.4042C43.804 33.4985 44.2002 33.3537 44.5535 33.3403C44.3518 33.4693 44.3685 33.6881 44.0845 33.5961Z" fill="#CAEFFF"/>
<path d="M50.5239 33.449L50.3091 33.55L50.5239 33.449Z" fill="#CAEFFF"/>
<path d="M41.4366 32.6512C41.0726 32.5042 41.5894 32.4582 41.2672 32.263C40.8387 32.3483 41.6168 32.7253 41.1777 32.9003C40.9808 32.6916 40.5332 32.8656 40.3733 32.8341C40.5881 32.7264 40.5774 32.3718 40.5285 32.2865C40.3566 32.346 40.0774 32.1048 39.8327 32.0386C40.3805 32.3876 39.2826 32.0408 39.7659 32.3931C39.6633 32.5951 39.0427 32.5726 38.8649 32.3359C38.9294 32.2001 39.1036 32.2898 39.2576 32.3359C39.4664 32.1081 38.927 32.0689 38.927 31.7985C38.2289 32.0151 36.4413 31.307 36.6871 32.0566C36.8255 32.263 37.0558 32.1968 37.2838 32.2338C36.7301 31.9185 37.4139 31.9298 37.5057 31.8411C37.7217 32.0184 38.2313 31.9768 38.0511 32.1541L37.5546 32.2372C38.8136 32.8263 40.6753 33.2492 42.2481 33.4512L41.5774 33.3109C41.692 33.1707 42.0106 33.219 42.2743 33.1797L42.0333 32.722C42.2194 32.7859 42.4152 32.7566 42.3698 32.8969C42.6407 32.7678 42.5548 32.6467 42.445 32.4851C42.9534 32.4986 43.0023 32.6692 43.4343 32.4717C42.6884 31.996 42.6813 32.6377 41.8161 32.1653L41.4366 32.6512Z" fill="#CAEFFF"/>
<path d="M43.2826 32.768L43.0439 32.9387L43.3673 32.8903L43.2826 32.768Z" fill="#CAEFFF"/>
<path d="M42.7875 33.6026L42.9355 33.4029C42.5584 33.2784 42.5787 33.4074 42.7875 33.6026Z" fill="#CAEFFF"/>
<path d="M38.4555 31.6258L37.9614 31.5404L38.2371 31.7133C38.2633 31.6258 38.391 31.628 38.4555 31.6258Z" fill="#CAEFFF"/>
<path d="M34.7354 31.159C35.3798 31.5102 35.7736 31.4193 36.4025 31.9724C36.8798 31.9006 36.4633 31.4395 36.7271 31.2936C36.4096 31.0748 36.2378 31.5024 35.8225 31.4014C35.8106 31.1209 35.2365 31.2106 34.9394 30.9413C34.9239 31.0479 34.863 31.1399 34.7354 31.159Z" fill="#CAEFFF"/>
<path d="M33.5004 28.9911C33.3154 28.7678 32.9658 28.6466 32.9061 28.402C33.0553 28.3447 33.2152 28.4435 33.2952 28.5995C33.504 28.319 33.0422 28.3852 33.0314 28.025C33.0171 28.0643 33.041 28.1832 32.9204 28.1541C32.5624 27.4853 32.4586 27.8993 32.1961 26.9119C32.0457 26.8087 31.9861 26.6752 31.7748 26.7649C31.8083 26.1467 31.9347 26.4137 32.072 25.6911C31.9407 25.7393 31.6674 26.0267 31.3834 26.0839C31.6424 25.0056 31.1769 25.0426 31.3906 24.3784C31.4156 24.4491 31.5039 24.532 31.4884 24.7026C31.8691 24.6039 31.3357 24.1786 31.4658 23.8128L31.8118 23.8498C31.7748 23.53 31.5779 22.9444 31.8536 22.5573L32.0219 22.6651C31.8273 21.8168 32.1794 20.872 32.1758 20.1472L32.5016 19.8319C32.5481 18.8276 32.0827 20.7374 31.8011 19.9306C32.4562 19.9744 31.7581 19.3853 32.1806 18.8983C32.5064 18.7143 32.1316 19.4818 32.5016 19.2776C32.2259 19.0689 32.5028 18.9668 32.5052 18.6504C32.7784 18.8041 32.7355 18.0657 33.0088 18.3496L32.9109 17.1882C33.1472 17.0985 33.2522 16.809 33.3107 16.5857C33.0553 17.1097 32.967 16.2481 32.5481 16.7923C32.1985 17.7123 31.8225 19.2663 31.3703 20.3951C31.7641 20.606 31.2247 21.1536 31.5337 21.3948L31.1232 21.4823C31.0731 22.2554 31.387 21.3376 31.5063 21.5463C31.5004 21.8795 31.1984 22.114 31.0504 22.068C30.955 22.6133 31.1507 22.1421 31.3548 22.4451L30.8691 22.7649C30.7688 24.5332 31.4192 26.7974 32.3178 28.5837L32.4658 28.319C32.9885 29.0797 33.8011 29.1145 34.0613 29.956L34.442 29.9335C34.2295 29.9493 34.2952 30.3477 33.9718 30.3499C34.2427 30.4262 34.3942 30.6697 34.6627 30.7549L34.368 30.3779C34.7785 30.3801 34.9658 30.6978 34.9396 30.9345C35.6616 31.086 34.8728 30.305 34.9205 30.0312C33.8692 29.8584 34.4372 29.1874 33.8059 28.7095C33.3501 28.4267 33.6341 28.9148 33.5004 28.9911Z" fill="#CAEFFF"/>
<path d="M33.8052 30.3195L33.9723 30.3474L33.8052 30.3195Z" fill="#CAEFFF"/>
<path d="M33.312 16.5858L33.4087 16.3446C33.38 16.2347 33.3657 16.3839 33.312 16.5858Z" fill="#CAEFFF"/>
<path d="M34.9409 30.9418L34.9423 30.9333H34.9326L34.9409 30.9418Z" fill="#CAEFFF"/>
<path d="M35.7118 30.5891L35.4934 30.4756L35.4624 30.6002L35.7118 30.5891Z" fill="#CAEFFF"/>
<path d="M34.997 14.6074L34.8765 14.5168L34.997 14.6074Z" fill="#CAEFFF"/>
<path d="M40.8005 11.3257L40.6489 11.3331L40.8005 11.3257Z" fill="#CAEFFF"/>
<path d="M37.2335 17.9794C36.7502 18.0075 36.1046 18.0142 35.7072 18.2005L35.7669 18.0624C35.4996 18.1062 34.6213 18.1544 35.1069 18.518L35.2621 18.4192C35.916 18.3183 35.6678 18.7223 36.1499 18.8838C36.7657 18.8771 37.15 18.4215 37.6595 18.5461C37.8899 18.5393 37.8481 18.684 37.7729 18.7895C38.3087 18.8467 38.5211 18.4327 38.8732 18.3912C39.0772 19.4829 40.446 18.0254 41.31 18.4787C41.7515 18.2094 42.5105 18.2285 42.915 17.635C42.7694 18.049 43.4401 17.3387 43.5069 17.6652C43.3315 17.1962 45.1371 16.6049 44.5106 15.9934C45.1991 15.4627 44.5702 15.9957 45.1573 15.2506C45.2433 15.2899 45.1764 15.4347 45.1645 15.5009C45.4867 15.2226 45.0738 14.8433 45.5643 14.703C45.9402 14.032 45.4056 14.51 45.3638 14.05C45.5834 13.3419 45.6645 13.5765 46.0882 13.1557C45.7516 13.0771 45.8686 12.588 45.5571 12.2659C45.5607 12.3737 45.5941 12.8572 45.3698 12.5767C45.2898 11.7655 44.8626 12.1077 44.439 11.7397C44.4461 11.1742 44.9569 12.1829 44.7421 11.5052C45.18 11.7263 45.4998 12.0045 45.8065 12.2301C45.6741 11.4143 44.6585 10.823 43.8411 10.8163C43.4103 10.6648 44.1358 10.6739 43.7886 10.5616C42.9759 10.1588 42.4759 10.814 41.8553 10.6008L41.989 10.3888C41.6071 10.6873 40.5212 10.3428 39.8231 10.7546C39.94 10.8332 40.0152 10.8881 39.9376 10.9868C39.7992 10.4561 39.0486 11.5434 38.224 11.3818C38.4066 11.6444 37.9447 12.1863 37.613 12.4209C37.4352 12.4164 37.3767 12.2783 37.3254 12.1998C38.0438 12.0292 37.6906 11.4918 38.1631 11.0957C37.7968 11.4525 37.0235 11.7532 36.8075 12.1672L36.7836 11.8586C36.1786 12.2098 36.6344 12.5992 35.9829 12.8887L35.8886 12.6934C34.8349 13.6012 33.5615 14.7625 33.3813 15.9193C33.4768 16.0685 34.1475 15.8162 34.2764 15.8622C34.4995 15.2832 34.453 14.8163 34.6141 14.3238L34.8766 14.5167C34.7287 14.28 35.0556 13.7762 34.6809 13.9075C34.848 13.5125 35.126 13.8705 35.3205 13.4228C35.5473 13.673 35.3802 13.885 35.595 14.0668L35.7466 13.6875C35.7573 13.8581 35.9996 13.6001 36.0127 13.7729C36.2359 12.9908 36.7979 13.1501 37.3266 12.6766L36.9375 12.8393C36.8218 12.6945 37.0414 12.5846 37.1643 12.4488C37.4948 12.5543 37.5748 12.4646 37.9567 12.3636C38.1655 12.101 38.1261 11.6162 38.5951 11.5197C38.6452 11.8665 39.4006 11.485 39.5677 11.7386C39.5558 11.384 40.3577 11.3773 40.378 11.1618C40.6083 11.0496 40.9627 11.0676 40.977 11.2472L40.8004 11.3235L41.045 11.3122L41.0104 11.3907C41.2241 11.3795 41.2062 11.1282 41.4974 11.2707C41.4997 11.3627 41.3518 11.3762 41.2348 11.4244C41.7909 11.3986 42.2277 10.8836 42.6943 11.1966C42.8112 11.0014 43.4449 11.1484 43.3912 10.7534C43.5475 10.9195 43.4055 11.1877 43.8841 11.2338C44.254 11.0565 44.2683 11.558 44.68 11.5322C44.0857 11.604 44.6036 11.5961 44.112 11.7004C44.2993 11.8754 44.8149 11.8149 45.0511 12.2413L44.8304 12.4163C44.9569 12.5083 45.2731 12.6766 45.0464 12.8505L45.2743 12.8181C45.1752 13.1446 45.1048 13.6528 44.8113 13.9356L45.0285 14.4966C44.3769 14.9544 44.3459 15.7611 44.2337 16.4096C44.0547 16.5937 43.7575 16.826 43.6943 16.7564L43.748 16.4479C43.5511 16.7564 42.9676 16.6981 43.0344 17.1076C42.7778 17.3926 42.6668 17.0503 42.4198 17.1356C41.9711 17.9356 40.304 17.4801 40.2157 18.1746C40.5391 18.1813 41.162 18.1792 41.742 17.9492C41.6167 18.0827 41.7885 18.1836 41.5689 18.2667C40.9615 18.5124 40.5916 18.2824 39.9877 18.4529L39.9997 17.9771C38.9877 17.6596 38.0187 18.6762 37.2335 17.9794Z" fill="#CAEFFF"/>
<path d="M44.0796 15.9496L43.6333 16.0988L43.8219 16.2021C43.8732 16.0843 43.9519 15.9923 44.0796 15.9496Z" fill="#CAEFFF"/>
<path d="M43.8206 16.2022L43.7466 16.4501L43.8683 16.2279L43.8206 16.2022Z" fill="#CAEFFF"/>
<path d="M35.4875 17.8325C35.3956 17.7955 35.2154 17.7203 35.0161 17.7382C35.1295 17.8168 35.3777 17.8853 35.4875 17.8325Z" fill="#CAEFFF"/>
<path d="M34.9531 17.874L35.1584 17.9908L35.2001 17.9425L34.9531 17.874Z" fill="#CAEFFF"/>
<path d="M24.4023 11.3415L23.8867 10.7826C23.9941 10.6166 23.5681 9.90855 23.9047 10.0813C23.4249 9.77727 23.4858 8.81462 23.0776 9.24885C23.6827 11.2607 24.9703 14.1118 27.2532 15.4482L26.8307 15.3079C28.0611 15.8465 28.0814 16.697 29.3785 16.6342L29.048 16.9056C29.4955 17.3881 30.3714 16.8552 30.7604 17.4869L30.7664 17.3141L31.1125 17.5228L31.0779 17.433C31.5492 17.433 31.782 17.5407 32.1507 17.7943C32.14 17.9256 31.9442 17.7764 31.8082 17.764C31.9562 17.9435 32.3536 17.8381 32.6698 17.9021C32.8906 18.0704 32.6173 18.0771 32.5672 18.1208C33.566 18.187 33.9121 18.7021 34.7331 18.2409C34.8226 18.1467 34.5279 17.9929 34.8871 18.0108C34.2975 17.7124 33.739 17.838 33.1245 17.847L33.2832 17.8863C32.6769 18.3228 32.9681 17.709 32.1793 17.7068C32.4371 17.5643 32.7474 17.6429 32.9109 17.5464C32.2211 16.9091 31.6352 17.4634 31.307 16.7509L31.3726 16.7576C31.2772 16.6633 31.0265 16.6869 30.8249 16.6701C30.8511 16.7576 31.0134 16.8586 31.1113 16.9551C30.9084 16.9371 30.7067 17.1346 30.5946 17.212C30.4943 16.899 30.258 17.2209 29.974 16.9774C29.9669 16.7205 30.3559 16.8878 30.5361 16.8148H30.0623C29.6829 16.6981 29.8296 16.4445 29.7389 16.2313C29.3749 16.2156 29.8332 16.4434 29.48 16.5253C29.3237 15.9923 27.69 15.2977 26.9966 14.7804C27.2246 14.9667 27.2544 14.6706 27.468 14.9466C27.4191 14.8176 27.0217 14.5921 26.8809 14.7166C26.3582 14.4058 25.8939 13.7987 25.7018 13.2938L25.635 13.5261C25.104 13.3196 25.2412 12.4265 24.6672 11.843L24.672 11.8586C24.5335 11.6477 23.8975 11.6703 23.8629 11.1642C24.123 11.2125 24.1875 11.4581 24.4023 11.3415Z" fill="#CAEFFF"/>
<path d="M23.1377 8.78207L23.4408 8.99081C23.4504 8.70581 23.0852 8.40395 22.9146 8.48923C22.9921 8.67324 22.9038 8.95148 23.0602 8.95821C23.0948 8.91781 23.189 8.90213 23.1377 8.78207Z" fill="#CAEFFF"/>
<path d="M23.1256 3.43658C23.0922 3.32437 22.9848 3.33336 22.9228 3.27838C22.7521 4.41613 22.8058 5.83328 22.5373 6.28771C22.4729 6.68267 22.9025 6.7455 23.0397 7.21676L22.7915 7.45358C22.9896 7.69931 22.7807 8.53176 23.1936 8.19403C23.2294 8.15925 22.9598 7.9943 23.0158 7.76203L23.1721 7.7823L23.0659 7.27853L23.276 7.4255C23.5003 6.73096 22.6005 6.97214 22.7867 6.10143L23.1745 6.11266C23.245 5.55164 23.1363 5.25552 23.4144 4.78202C23.4144 4.78202 23.2223 4.75952 23.2915 4.8605C23.2628 4.95475 23.0958 5.0647 22.9872 4.98952C22.7616 4.10199 23.2068 5.13878 23.4168 4.56205C23.1304 3.80579 23.338 2.39876 23.7402 2.08347C23.424 2.36174 23.3165 1.80523 23.449 1.40466C23.6304 1.25991 23.6352 1.59535 23.7295 1.68736C23.8201 1.51456 23.9538 1.39334 23.949 1.19249C23.6805 1.37202 23.443 1.13751 23.4407 0.655029C22.9406 1.56725 23.4216 2.50753 23.1256 3.43658Z" fill="#CAEFFF"/>
<path d="M22.8799 3.0947L22.9229 3.27893L23.0171 2.89127L22.8799 3.0947Z" fill="#CAEFFF"/>
<path d="M34.5324 35.7391C40.1197 35.0636 41.4312 33.9022 38.2283 33.9246C37.7211 33.9269 35.5635 34.3915 34.4274 34.8908C27.7101 37.8541 26.0477 37.1483 21.0082 37.2795C19.822 37.3143 18.9282 38.3837 18.9676 38.4521C22.5703 38.1234 21.1944 38.4364 28.3759 37.7273C29.8748 37.5803 33.9453 35.812 34.5324 35.7391Z" fill="#A3BA3A"/>
<path fill-rule="evenodd" clip-rule="evenodd" d="M47.8777 18.5269C46.6533 13.5518 39.566 15.2965 43.6461 19.8969C39.5493 17.9221 35.1088 20.2559 34.7353 24.0563C34.5205 26.2174 36.0218 30.2253 39.9837 29.5498C33.8367 31.5964 36.6638 36.4639 38.9777 38.3096C40.5839 39.5921 42.4432 39.4473 43.8442 38.4778C42.4229 43.5315 47.2333 44.2026 49.5794 42.9268C50.8527 42.2323 51.4804 40.7568 51.7417 39.1814C56.7598 41.6555 62.8876 38.9143 61.2563 34.4979C66.7803 34.6472 67.21 27.2204 61.0821 26.7536C61.0714 26.7446 61.0666 26.7313 61.0582 26.7212L58.6548 22.5729C62.4008 16.1279 51.3647 9.84453 47.8777 18.5269Z" fill="#FFE000"/>
<path d="M58.6577 22.5729L56.6743 26.3395C68.1603 29.0896 64.2486 15.9674 58.6577 22.5729Z" fill="#FFE000"/>
<path fill-rule="evenodd" clip-rule="evenodd" d="M45.1332 21.3409C42.3754 21.7134 42.4637 22.9016 42.472 24.2638C39.4015 23.5805 43.1463 19.687 45.1332 21.3409Z" fill="#F6921E"/>
<path fill-rule="evenodd" clip-rule="evenodd" d="M54.2525 23.9316C54.5675 21.315 52.682 20.3468 51.9219 20.7608C53.4004 18.1263 56.4578 22.5336 54.2525 23.9316Z" fill="#FAAF40"/>
<path fill-rule="evenodd" clip-rule="evenodd" d="M50.335 17.7268C52.588 15.6185 56.7778 16.8808 57.5809 19.7779C56.0451 18.1633 53.1799 16.0595 50.335 17.7268Z" fill="#FAAF40"/>
<path fill-rule="evenodd" clip-rule="evenodd" d="M45.417 35.1106C42.8513 35.0736 40.9921 32.8531 42.1305 31.326C42.1604 32.6164 42.7344 34.6494 45.417 35.1106Z" fill="#FAAF40"/>
<path fill-rule="evenodd" clip-rule="evenodd" d="M47.417 26.8065C47.2416 26.5921 47.0196 26.6842 46.8955 26.167C47.6473 23.8769 49.9612 26.7257 47.417 26.8065Z" fill="#404751"/>
<path fill-rule="evenodd" clip-rule="evenodd" d="M45.4229 27.8958C45.4408 27.0632 46.3954 26.804 46.7343 27.2909C47.5864 27.8452 45.5911 29.1166 45.4229 27.8958Z" fill="#404751"/>
<path fill-rule="evenodd" clip-rule="evenodd" d="M49.0867 27.9767C49.9388 28.6454 48.6822 29.4622 48.0688 29.3815C47.447 29.4432 47.1225 29.1313 47.3731 28.5265C47.8278 27.7097 48.2884 27.9285 49.0867 27.9767Z" fill="#404751"/>
<path fill-rule="evenodd" clip-rule="evenodd" d="M51.2444 25.755C51.717 26.1993 51.8745 26.6011 51.8829 26.9848C51.0869 27.8129 50.4819 27.8151 49.8255 27.1093C49.3267 26.4844 50.699 25.6821 51.2444 25.755Z" fill="#404751"/>
<path fill-rule="evenodd" clip-rule="evenodd" d="M47.9612 31.069C48.6581 31.6121 48.4576 31.3653 48.8323 32.1383C48.8872 33.1729 47.3586 32.9227 46.769 32.2607C46.8383 31.8231 47.0972 30.7032 47.9612 31.069Z" fill="#E08357"/>
<path fill-rule="evenodd" clip-rule="evenodd" d="M55.2142 27.9811C55.1294 29.0571 53.781 29.5476 53.2213 29.0752C51.4563 27.5851 54.312 25.8054 55.2142 27.9811Z" fill="#E08357"/>
<path fill-rule="evenodd" clip-rule="evenodd" d="M40.9322 34.3522C41.1577 34.1884 41.0146 34.1962 41.2425 34.0346C42.1447 36.7656 44.9657 38.1524 47.5923 36.3448C46.9873 39.9443 40.6709 37.1741 40.9322 34.3522Z" fill="#F6921E"/>
<path fill-rule="evenodd" clip-rule="evenodd" d="M50.2572 22.8421C51.1582 22.1038 52.2716 22.6715 52.0341 23.2584C51.4601 23.9114 51.7214 23.7229 50.8992 24.0763C50.2846 23.8923 49.7155 23.2786 50.2572 22.8421Z" fill="#E08357"/>
<path fill-rule="evenodd" clip-rule="evenodd" d="M60.3951 29.7214C60.5084 29.2109 60.3581 29.5789 60.6958 29.5587C63.3737 31.3955 60.8724 33.9639 58.8413 34.8144C59.2614 33.3176 62.4416 32.8855 60.3951 29.7214Z" fill="#FAAF40"/>
<path fill-rule="evenodd" clip-rule="evenodd" d="M51.9218 31.0185C51.5471 30.462 52.262 30.0894 53.0579 30.2028C54.3372 31.115 52.5006 32.2304 51.9218 31.0185Z" fill="#404751"/>
<path fill-rule="evenodd" clip-rule="evenodd" d="M57.6908 32.0093C59.5906 33.3939 55.4759 37.1045 52.8804 35.6032C55.2337 35.6167 57.6001 34.1547 57.6908 32.0093Z" fill="#FAAF40"/>
<path fill-rule="evenodd" clip-rule="evenodd" d="M40.4506 22.6671C39.1332 25.0929 40.1391 28.4041 42.2908 29.8067C39.7298 30.4047 37.0746 24.1874 40.4506 22.6671Z" fill="#F6921E"/>
<path fill-rule="evenodd" clip-rule="evenodd" d="M29.0454 29.965C29.0287 30.2567 27.9595 30.3812 27.5764 31.6615C27.4022 31.7714 27.3187 32.5188 27.4607 32.6635C27.6826 33.7216 28.1397 35.0243 29.2388 35.1443C30.0574 33.5611 29.9118 31.0455 29.0454 29.965Z" fill="#668C0C"/>
<path fill-rule="evenodd" clip-rule="evenodd" d="M26.1387 38.4363C26.5026 38.7561 25.5695 40.1239 26.8523 41.8945C26.8165 42.212 27.7079 43.0849 28.0433 43.0647C29.6555 43.9062 31.8346 44.722 33.1162 43.573C31.8823 40.9878 28.4406 38.553 26.1387 38.4363Z" fill="#A3BA3A"/>
<path d="M11.1214 33.7384C9.74669 33.0214 9.21444 32.6029 7.93517 33.2413C7.44232 33.4646 6.93875 34.1637 6.96142 34.5935C6.75139 36.1823 9.42329 36.0196 10.3231 35.757C10.0271 35.9758 6.47331 37.2997 9.26695 39.2308C11.1154 40.5088 11.6859 37.5477 12.0749 36.6882C11.7945 38.102 13.4652 39.1579 13.705 39.1489C13.8685 39.3149 15.6944 39.8434 15.7576 37.6824C15.8984 36.4728 14.9509 35.4731 13.9783 34.9166C18.2207 35.3946 16.3101 31.3922 13.4007 32.5804C14.9067 28.8956 7.67862 30.2454 11.1214 33.7384Z" fill="#99D9FF"/>
<path fill-rule="evenodd" clip-rule="evenodd" d="M16.067 21.6811C12.6027 25.8955 5.09063 18.5495 13.061 17.3029C9.22439 13.0627 12.5598 10.1038 16.2592 16.2358C14.2723 8.17727 21.9968 11.1664 19.3643 16.3345C23.5088 12.7496 25.0613 15.1317 25.201 16.4614C25.4253 18.6202 23.405 19.7097 21.8882 19.7108C24.2009 20.3773 25.4372 23.6772 23.6663 24.6859C21.8834 25.7002 20.4562 24.7296 19.5433 23.7277C17.7771 28.9934 13.7985 25.4108 16.067 21.6811Z" fill="#F9ABE0"/>
<path fill-rule="evenodd" clip-rule="evenodd" d="M18.6279 20.0047C17.5813 20.3795 15.7459 19.5728 16.6266 18.3542C18.3713 17.1032 20.326 19.6558 18.6279 20.0047Z" fill="white"/>
</svg>
