<svg width="300" height="35" viewBox="0 0 300 35" fill="none" xmlns="http://www.w3.org/2000/svg">
<g clip-path="url(#clip0_91_8429)">
<path d="M237.639 28.7065H252.885L251.36 23.1368L242.839 23.9833L242.626 17.7203H248.747L249.09 14.0386L242.236 14.6194L242.039 8.58198L248.491 9.02884L249.28 5.04527L238.588 4.66504L237.639 28.7065Z" fill="#F8F8F8"/>
<path d="M251.514 10.1834L257.047 10.139L255.95 28.7953L262.08 28.6329L261.587 10.2438H265.944L267.15 5.70092L252.244 5.1604L251.514 10.1834Z" fill="#F8F8F8"/>
<path d="M218.151 25.2503L214.712 24.956L215.213 4.63306L209.138 5.18193L210.44 24.8228L201.438 24.4689L201.226 4.78434L195.876 4.87661L194.756 29.0978L212.224 28.1951L212.055 32.47H216.038L218.151 25.2503Z" fill="#F8F8F8"/>
<path d="M232.831 15.6949C232.375 15.3182 230.199 14.6499 229.707 14.4036C233.346 11.9958 238.177 2.50985 220.13 4.39928L220.261 28.8911C223.654 29.0597 230.345 29.0542 232.899 26.9586C234.482 25.6632 235.385 24.0444 235.458 21.9891C235.568 19.3572 234.684 17.2485 232.831 15.6949ZM224.612 7.08111C228.649 6.44899 229.323 8.35301 229.362 9.75117C229.412 11.5372 227.951 12.8181 224.67 13.0998L224.612 7.08111ZM231.554 21.8649C230.916 25.4557 227.362 25.1712 225.054 25.2663L225.092 16.6879C227.013 16.7802 228.851 17.1215 230.095 18.1742C231.125 19.0471 231.835 20.2773 231.554 21.8649Z" fill="#F8F8F8"/>
<path d="M266.461 18.4809C266.022 24.2422 267.115 29.2159 271.583 30.2095C276.576 31.3079 279.781 26.6707 280.459 20.0199C281.541 9.38209 278.863 5.61572 275.264 5.00997C271.553 4.53327 267.072 8.33225 266.461 18.4809ZM270.447 20.6097C269.76 14.5098 271.842 9.93858 274.423 10.2279C276.545 10.4673 277.73 12.5573 277.083 19.0894C276.715 22.8565 274.33 24.6405 272.988 24.5586C271.206 24.4476 270.603 22.7427 270.447 20.6097Z" fill="#F8F8F8"/>
<path d="M293.6 15.0572C294.933 13.6591 296.118 12.646 296.118 10.513C296.118 7.68127 294.104 4.41451 288.602 4.56717C288.602 4.56717 285.297 4.56716 282.956 4.7212L283.664 11.5601L282.759 28.9688C287.936 28.9688 292.269 28.9688 292.269 28.9688C296.518 28.9688 299.341 25.8435 299.341 21.5797C299.341 18.0374 296.518 16.2798 293.6 15.0572ZM287.287 8.0435C287.774 7.98521 289.182 7.98521 289.182 7.98521C290.183 7.92274 292.27 8.53407 292.27 9.96415C292.27 11.3727 291.651 13.5147 288.753 13.7201C288.753 13.7201 287.453 13.7201 287.213 13.7201L287.287 8.0435ZM290.255 25.2753C290.255 25.2753 288.524 25.2753 287.307 25.2753L287.493 17.5434C289.034 17.4525 290.869 17.4525 290.869 17.4525C292.27 17.3907 294.789 19.5133 294.789 21.5255C294.789 23.5371 293.6 25.2753 290.255 25.2753Z" fill="#F8F8F8"/>
<path d="M180.182 26.9455C183.315 26.6305 186.459 24.7737 186.578 15.373C186.645 10.1037 184.771 6.3207 180.394 6.96045C176.468 7.53637 174.883 11.3957 174.492 15.9503C173.671 23.9618 176.973 27.1495 180.182 26.9455ZM180.596 10.4527C181.796 10.4437 183.731 12.091 183.659 15.3411C183.551 20.9914 182.27 22.7198 180.361 22.8301C178.034 22.9606 176.204 18.9111 177.461 13.7001C177.817 11.8773 178.991 10.4652 180.596 10.4527Z" fill="#F8F8F8"/>
<path d="M174.295 7.83618L163.043 9.1136L162.684 11.8052L167.014 11.649L166.391 25.8832L170.495 25.9908L170.126 11.5179L174.217 11.6241L174.295 7.83618Z" fill="#F8F8F8"/>
<path d="M160.387 20.6028C160.176 22.3091 158.386 23.046 157.444 23.0473C155.948 23.055 154.51 19.9825 154.502 16.6477C154.493 13.0069 156.548 10.7928 158.185 10.3209C159.795 9.84979 160.132 11.1911 160.438 11.2778L162.002 8.6029C160.709 7.2082 158.933 7.29145 158.933 7.29145C155.092 7.11451 151.502 10.9947 151.205 16.8663C150.867 23.9404 153.837 26.4161 157.045 26.3939C159.523 26.3814 161.655 24.8278 162.628 22.053L160.387 20.6028Z" fill="#F8F8F8"/>
<path d="M126.673 20.6047L128.175 20.5603L131.967 12.6549L131.836 25.8893L136.783 25.6096L134.93 7.66943L131.836 7.69442L127.544 16.6857L122.338 7.69442L119.676 7.75477L119.438 26.2265L123.624 25.8893L122.502 10.6351L126.673 20.6047Z" fill="#F8F8F8"/>
<path d="M112.435 13.0567C115.377 12.3379 115.281 10.642 115.249 10.0488C115.099 7.01164 109.647 7.51679 104.48 7.80059V26.0364C111.925 26.2043 117.676 25.3682 117.817 19.4966C117.866 17.5766 116.567 14.2925 112.435 13.0567ZM107.9 9.55265C111.479 9.37571 112.032 10.1626 111.87 11.1104C111.559 12.9298 107.654 12.8166 107.654 12.8166L107.9 9.55265ZM113.923 19.3183C113.759 22.3942 108.772 22.0737 107.044 22.0064L107.464 14.9385C112.662 15.7219 114.038 17.2706 113.923 19.3183Z" fill="#F8F8F8"/>
<path d="M150.095 21.4443L142.057 21.8342L142.085 16.4893L148.395 16.7259L148.162 13.5993L141.918 13.5799L141.847 10.293L148.609 10.3249L149.431 7.84985L139.094 7.66943L138.887 25.7942L150.59 25.466L150.095 21.4443Z" fill="#F8F8F8"/>
<path d="M31.3077 32.8227L31.2458 24.347L26.9253 24.3927L28.1038 1.59747L7.38635 1.31787L5.99774 6.62254L11.9469 6.25616C12.4864 9.66797 11.5383 15.1163 7.35781 23.635L0.0339355 23.6295L1.61468 34.9737L6.89565 34.2382L6.90122 28.599L26.042 28.5831L25.1156 32.9719L31.3077 32.8227ZM13.3209 24.007C14.0567 19.9832 15.4495 14.181 15.4634 5.91409L21.5942 5.65181L21.778 24.2422L13.3209 24.007Z" fill="#F8F8F8"/>
<path d="M71.952 9.77404L64.9565 9.67204L65.6568 29.2651L58.0023 29.442L59.2802 9.30984L51.9473 9.45139L52.3468 5.11259L71.945 4.02319L71.952 9.77404Z" fill="#F8F8F8"/>
<path d="M52.6635 23.4428L39.8915 24.6072L39.6925 17.8585L49.1477 17.7295L49.6029 13.2824L39.6054 14.0401L39.5094 8.54459L48.9876 8.91374L50.0045 5.09533L34.9899 4.05176L33.792 29.0896H53.6031L52.6635 23.4428Z" fill="#F8F8F8"/>
<path d="M78.4873 29.4421L88.5056 12.0917L88.3107 29.4934L95.6987 29.0063L94.3247 16.4763L94.3052 4.59363L89.7216 4.69494L79.7263 20.167L79.1924 4.15996L74.4175 4.00732L74.9847 9.35781L72.2722 29.4421H78.4873Z" fill="#F8F8F8"/>
</g>
<defs>
<clipPath id="clip0_91_8429">
<rect width="300" height="34" fill="white" transform="translate(0 0.995117)"/>
</clipPath>
</defs>
</svg>
