<svg width="289" height="250" viewBox="0 0 289 250" fill="none" xmlns="http://www.w3.org/2000/svg">
<g clip-path="url(#clip0_100_11833)">
<path fill-rule="evenodd" clip-rule="evenodd" d="M232.65 103.62C280.902 82.4335 237.359 -16.3369 153.188 39.0484C104.638 -24.3889 -14.5405 32.6653 46.4421 97.0118C7.99335 90.3575 2.87782 142.535 38.9175 143.978C20.7644 153.699 9.11473 174.676 20.689 202.467C32.1892 230.084 76.7331 237.636 105.373 215.275C106.351 240.193 159.213 249.079 165.536 218.698C257.467 266.453 323.201 144.715 232.65 103.62Z" fill="#FBFBFB"/>
<g opacity="0.79">
<path d="M248.191 106.047L250.315 107.675L251.433 107.51L248.191 106.047Z" fill="white"/>
<path d="M257.004 115.301C258.278 116.101 259.551 116.907 260.704 117.859C260.049 114.564 262.526 117.144 257.69 111.675C255.496 110.365 250.55 107.827 250.659 109.002C252.268 109.797 254.78 110.8 256.793 112.575C255.51 112.384 253.261 110.624 251.748 110.498C254.794 113.558 254.194 111.667 257.797 114.696L257.004 115.301Z" fill="white"/>
<path d="M262.484 117.027C261.934 117.028 261.376 117.021 261.244 117.3C261.791 117.298 263.744 118.422 262.484 117.027Z" fill="white"/>
<path d="M264.713 118.705C266.821 120.672 264.149 119.249 264.297 119.535L267.678 120.701L264.713 118.705Z" fill="white"/>
<path d="M273.083 127.269L274.011 128.241C273.889 127.736 273.534 127.538 273.083 127.269Z" fill="white"/>
<path d="M276.799 131.841C276.464 130.626 275.326 129.596 274.009 128.241L274.052 128.442C274.701 130.035 273.135 129.303 271.56 127.215C269.519 125.356 270.389 124.88 268.297 123.571L269.953 126.489C273.069 129.437 275.344 130.783 276.799 131.841Z" fill="white"/>
<path d="M273.083 127.268L271.965 126.166C272.317 126.778 272.708 127.053 273.083 127.268Z" fill="white"/>
<path d="M269.046 122.794L267.881 121.848L267.84 122.405L269.046 122.794Z" fill="white"/>
<path d="M282.168 140.099C280.657 140.155 278.667 133.992 277.375 133.924C279.454 137.168 280.166 140.275 279.1 139.906C279.996 140.991 280.656 142.203 281.354 143.406C282.39 144.462 282.559 142.447 282.168 140.099Z" fill="white"/>
<path d="M282.405 148.972L282.902 149.777C282.715 149.37 282.537 149.036 282.405 148.972Z" fill="white"/>
<path d="M287.873 169.143C287.721 165.838 286.803 162.615 286.081 159.497C286.688 160.313 287.003 159.908 287.339 162.118C287.199 157.749 285.873 157.399 285.444 153.894C286.434 152.534 286.748 160.05 287.431 157.82C287.024 155.303 286.022 151.566 284.275 150.022C284.095 148.685 284.083 147.261 283.706 145.956L282.984 147.7C283.103 149.343 284.987 150.443 284.399 151.676C283.995 152.312 283.397 150.833 282.922 149.815C284.072 152.127 283.983 156.639 284.712 161.545C285.227 166.789 287.4 165.462 287.873 169.143Z" fill="white"/>
<path d="M286.369 169.453L285.814 170.065L286.548 169.661L286.369 169.453Z" fill="white"/>
<path d="M286.66 180.236C286.928 178.525 286.732 176.743 286.768 175.037C286.969 174.513 287.297 174.251 287.602 173.913C287.26 174.063 286.947 172.654 286.658 172.846C285.052 174.965 286.224 178.999 285.537 181.717C283.123 188.521 284.989 181.227 283.157 183.573C283.7 181.682 284 181.691 284.804 179.063C282.5 182.917 281.855 188.289 280.941 191.025C281.438 190.354 281.855 190.31 282.309 188.816C282.091 189.778 281.866 190.744 281.508 191.66C283.561 189.285 285.144 186.957 286.66 180.236Z" fill="white"/>
<path d="M288.057 171.125C288.12 173.061 287.786 173.742 287.621 173.891C288.019 173.44 288.426 172.813 288.057 171.125Z" fill="white"/>
<path d="M280.291 192.383C280.502 192.139 280.708 191.666 280.942 191.023C280.744 191.304 280.527 191.698 280.291 192.383Z" fill="white"/>
<path d="M282.869 190.399C282.376 191.49 281.729 192.515 281.169 193.574L282.33 192.561C282.512 192.087 283.219 190.457 282.869 190.399Z" fill="white"/>
<path d="M163.976 235.81C164.535 235.996 165.762 235.438 167.553 233.366C167.834 234.117 165.202 236.505 164.054 237.748C167.186 235.782 164.512 238.381 165.645 238.294C169.382 236.378 168.434 232.046 173.648 232.082C173.379 232.185 173.346 232.484 173.808 232.898C178.968 234.531 187.788 236.365 192.884 237.515C197.818 238.462 201.625 238.566 207.114 238.113C225.283 238.219 243.892 231.518 259.695 220.164L261.049 217.455C262.258 217.446 264.506 214.444 264.665 215.44C263.758 216.019 263.173 216.876 262.15 217.643C266.141 215.861 270.252 210.123 273.596 206.466C273.068 206.774 271.72 206.691 272.458 205.398C273.326 206.577 276.043 200.856 278.035 200.44C281.015 196.399 277.173 199.657 279.921 195.325C279.55 194.506 277.064 199.337 276.015 199.75C276.281 198.041 278.71 196.03 277.823 195.766C273.699 202.497 265.251 215.475 254.567 222.672L255.222 221.285C250.403 225.638 240.813 230.293 235.529 230.673C236.962 231.166 226.503 233.243 227.795 234.473C226.117 234.48 225.69 234.804 223.37 235.037L222.867 235.685C219.578 236.213 220.001 235.482 216.263 235.952C218.817 236.444 216.131 236.928 215.075 237.649C210.613 237.389 205.536 236.663 201.776 235.837C202.065 236.077 202.385 236.446 203.694 236.767C201.103 236.404 201.516 237.075 200.796 237.294C198.253 237.136 198.607 236.202 198.769 235.732C194.241 235.229 191.967 236.304 188.625 235.247L189.672 236.194C184.917 235.378 181.155 233.675 176.161 232.009C174.153 230.072 180.478 232.834 182.744 232.747C181.76 232.321 179.644 231.602 179.094 230.976C177.974 230.853 176.469 230.64 174.883 230.397L173.683 230.207L173.081 230.111L172.931 230.086L172.856 230.074L172.819 230.067H172.814C167.984 231.191 171.474 230.38 170.396 230.631V230.632L170.389 230.64L170.381 230.656L170.217 230.9L168.959 232.763C169.861 229.987 165.497 234.929 163.976 235.81Z" fill="white"/>
<path d="M179.092 230.975C179.757 231.042 180.299 231.093 180.627 231.09C180.143 230.984 179.676 230.887 178.981 230.582C178.876 230.687 178.942 230.825 179.092 230.975Z" fill="white"/>
<path d="M163.976 235.81L163.814 235.781C163.462 236.154 163.597 236.084 163.976 235.81Z" fill="white"/>
<path d="M193.558 237.695L192.884 237.514L192.013 237.339L193.558 237.695Z" fill="white"/>
<path d="M197.874 234.716C198.847 235.059 200.217 235.438 201.773 235.835C201.348 235.456 200.998 235.158 197.874 234.716Z" fill="white"/>
<path d="M229.305 232.669C230.212 232.284 229.605 232.211 230.186 231.797C228.255 232.286 227.649 232.708 229.305 232.669Z" fill="white"/>
<path d="M173.823 228.857L173.587 228.787L173.468 228.753L173.41 228.736L173.379 228.727L173.372 228.725H173.371H173.368C177.003 227.879 168.416 229.878 169.301 229.672L169.299 229.674L169.288 229.685L168.973 230.048L168.338 230.772L167.07 232.226L166.222 233.385L167.919 231.345L168.763 230.333L169.184 229.828L169.29 229.702L169.302 229.687L169.309 229.679C177.413 227.792 171.555 229.157 173.365 228.736H173.367H173.375L173.415 228.747L173.497 228.769L173.823 228.857Z" fill="white"/>
<path d="M102.984 229.058C103.646 232.76 106.801 237.434 110.126 240.548C116.79 245.506 112.033 240.026 118.353 244.077L116.242 245.073C122.914 249.331 134.591 251.588 140.862 248.711C141.438 248.836 142.838 248.862 140.896 249.492C145.962 248.341 143.093 246.743 149.515 245.296C143.936 248.298 151.817 245.722 150.597 247.327L149.677 247.76C153.92 246.37 158.658 242.905 161.061 241.367C160.868 240.899 158.414 241.625 161.534 239.523C160.228 240.322 160.414 239.492 160.25 239.051C157.312 241.521 155.409 242.377 153.52 243.823C151.323 244.145 154.738 243.033 152.542 243.365C151.692 243.938 150.883 244.654 149.954 245.086C147.758 245.631 151.925 243.8 148.576 244.726C148.318 245.139 145.756 246.611 143.004 246.875L143.734 246.521C141.74 247.238 138.754 247.258 139.869 248.148L137.305 247.25L137.774 247.934C131.918 247.759 130.051 246.049 123.079 244.58C124.624 245.364 123.01 245.187 122.061 244.989C124.786 246.495 125.77 245.874 128.581 246.283C128.922 247.077 123.747 246.849 127.206 248.016C123.529 246.351 119.916 245.701 119.296 243.288C115.361 240.991 113.47 240.428 110.437 236.77L110.728 236.686C109.322 236.703 108.618 233.536 106.105 230.989C106.43 231.765 106.67 232.604 107.069 233.353C106.531 233.55 105.995 232.402 105.109 230.893C105.37 230.992 105.368 230.989 105.319 230.386C104.076 230.404 102.231 225.061 101.778 224.438C102.391 226.747 103.817 229.363 105.414 231.599C104.367 230.587 103.851 231.289 102.984 229.058Z" fill="white"/>
<path d="M145.125 245.851L143.734 246.52C144.327 246.342 144.853 246.122 145.125 245.851Z" fill="white"/>
<path d="M85.8919 231.053C82.9052 231.971 86.4033 230.12 83.5536 230.743C80.7826 232.358 87.403 230.651 84.8183 232.509C82.8143 232.683 80.1572 234.571 78.9234 235.029C80.1264 234.067 79.0096 233.277 78.4089 233.245C77.3552 233.886 74.598 233.974 72.6326 234.451C77.6495 233.904 68.6292 235.902 73.1902 235.531C73.0561 236.401 68.3672 237.646 66.3556 237.393C66.4403 236.895 68.0006 236.762 69.2668 236.552C70.1479 235.495 66.0245 236.545 65.2234 235.826C60.6409 238.23 45.1666 236.166 49.2285 238.591C50.8551 239.271 52.3647 239.041 54.2054 238.998C49.116 238.276 54.2869 237.935 54.709 237.585C56.8547 238.15 60.5516 237.456 59.7229 238.141C58.5799 238.496 57.423 238.675 56.2508 238.85C67.497 240.101 82.6911 235.764 93.8186 229.636L88.7939 231.918C89.1528 231.146 91.491 230.024 93.19 228.943L90.1849 228.861C91.642 228.293 92.902 227.492 93.0084 227.973C94.4193 226.567 93.5059 226.704 92.2906 226.795C95.6777 224.679 96.4895 224.755 98.7137 222.498C92.4445 224.756 94.3746 226.251 87.0641 228.508L85.8919 231.053Z" fill="white"/>
<path d="M98.5937 223.751L97.5325 225.136L99.504 223.627L98.5937 223.751Z" fill="white"/>
<path d="M97.819 227.598C97.608 227.377 98.4198 226.763 98.2026 226.549C95.3545 227.945 95.869 228.123 97.819 227.598Z" fill="white"/>
<path d="M61.1784 236.017C59.8646 236.121 58.5414 236.39 57.2229 236.32C58.0793 236.494 58.9419 236.544 59.809 236.577C59.7335 236.282 60.6994 236.11 61.1784 236.017Z" fill="white"/>
<path d="M32.8391 233.347C38.124 235.941 40.684 236.098 46.8763 238.345C50.1942 238.009 45.738 236.489 47.2567 235.934C44.2778 235.029 44.3039 236.489 40.9968 235.896C40.1296 234.653 36.3095 234.461 33.5969 232.665C33.8003 233.125 33.6432 233.444 32.8391 233.347Z" fill="white"/>
<path d="M19.8846 218.642C18.4598 216.626 16.6683 214.707 16.1246 212.674C16.6991 212.687 17.4601 214.054 18.1378 215.371C18.5506 214.113 16.7022 212.959 16.0922 210.197C16.0938 210.461 16.3788 211.442 15.8212 210.855C13.3089 204.504 13.1702 207.75 10.892 199.127C10.2882 197.967 9.97856 196.733 9.33777 197.113C9.00814 191.992 9.56115 194.44 9.48876 188.432C9.05438 188.694 8.32116 190.774 7.4755 190.87C7.8036 182.122 6.86704 181.895 8.35502 176.491C8.26568 177.101 8.46132 177.878 8.15787 179.322C9.4148 178.771 8.4798 174.738 9.63815 171.839L10.5777 172.405C11.1123 169.751 12.3415 164.941 14.8184 162.316L14.9123 163.274C16.2478 160.021 18.4105 156.797 20.8411 153.971C22.0318 152.534 23.2734 151.182 24.5272 149.95L25.4284 149.014L25.8673 148.553C26.0214 149.099 24.5549 143.798 25.1742 146.041H25.1695L25.1603 146.04L25.1403 146.036L25.1033 146.028L25.0278 146.011L24.8768 145.977L24.5765 145.911L22.2614 145.43C21.2632 144.988 20.3683 144.317 19.441 143.786C11.4558 141.6 27.0288 146.915 20.8458 146.387C20.6594 144.185 16.3419 145.748 12.5155 142.355C11.0107 140.558 16.8809 144.474 15.1696 142.437C13.8094 142.741 12.8082 141.499 10.6964 140.145C11.6082 139.862 6.96876 136.539 8.83413 136.836C6.51589 135.171 4.41017 133.038 2.70346 130.486C2.64646 128.947 1.74237 126.569 1.36806 124.687C2.38778 129.462 -0.488064 123.605 0.557835 129.241C2.44785 137.17 16.0599 148.154 23.9018 147.107C23.9804 148.774 19.2792 151.742 19.0821 153.717C18.5954 153.613 17.8298 153.982 17.3676 153.92C13.5707 159.309 18.8741 153.14 18.2611 154.717C16.6222 157.03 14.689 158.473 14.4703 158.017C11.8239 161.939 14.4702 158.672 13.7663 161.039L11.0383 163.036C3.47673 176.701 6.63913 197.425 13.9081 212.236L14.1637 210.734C16.9025 217.951 21.7977 220.351 25.3266 225.988L27.5432 226.819C26.3125 226.371 27.7173 228.711 25.8073 227.928C27.537 229.095 29.2946 230.433 31.197 231.426L28.2765 228.978C30.8627 229.875 33.0561 231.707 33.5906 232.647C38.9941 234.361 31.2432 229.879 30.8674 228.375C23.677 225.201 25.6779 222.616 20.8334 217.725C18.0377 214.357 20.3097 218.614 19.8846 218.642Z" fill="white"/>
<path d="M24.7478 227.364C25.1852 227.634 25.5333 227.811 25.8075 227.925L24.7478 227.364Z" fill="white"/>
<path d="M1.3652 124.685C1.26353 124.123 1.11868 123.456 1.03088 122.554C0.793666 121.834 0.893852 123.019 1.3652 124.685Z" fill="white"/>
<path d="M33.5953 232.664L33.5879 232.644L33.5322 232.632L33.5953 232.664Z" fill="white"/>
<path d="M37.8913 232.292L36.0676 231.435L36.2016 231.967C36.7422 232.137 37.3245 232.203 37.8913 232.292Z" fill="white"/>
<path d="M6.16035 104.321L5.75684 104.071C5.79842 104.313 5.89541 104.452 6.16035 104.321Z" fill="white"/>
<path d="M23.885 63.2505L24.0636 64.4812C24.073 64.0885 23.9882 63.6526 23.885 63.2505Z" fill="white"/>
<path d="M125.14 9.82849C128.801 11.0799 133.384 13.4161 136.192 14.3992L135.704 14.635C137.544 15.5657 143.483 19.0902 140.47 15.7662L139.34 15.4718C134.827 13.1494 136.861 12.6301 133.543 10.3694C129.274 8.06093 125.991 8.68967 122.361 6.68784C120.625 6.09917 121.056 5.7509 121.692 5.60604C117.789 3.94324 115.776 4.88174 112.996 4.27766C112.752 0.241653 100.344 2.37753 94.4779 0.0305104C90.5515 0.0151 85.2728 -0.223764 80.3513 0.933562C82.9145 -0.211436 75.6594 1.27568 76.6314 0.237015C75.55 2.22959 62.1952 1.97071 62.1012 5.08209C55.4639 6.41664 61.8779 5.23461 54.3795 7.36897C54.2717 7.09312 55.5039 6.61696 55.9691 6.38272C52.8037 6.93904 52.0781 9.29528 49.2393 9.30144C43.6354 12.1107 48.6124 10.4187 45.8028 12.8474C40.1651 15.9573 41.6453 14.8969 38.0024 16.0898C38.349 17.4259 34.954 19.4909 33.2781 22.2602C33.7402 21.6037 37.2184 18.9377 35.4209 21.1706C30.2268 26.4256 31.9257 26.0126 28.5446 31.7807C25.5255 34.006 32.1614 26.0418 27.9624 30.4939C29.7816 26.4549 31.995 23.9322 32.9161 21.5004C28.5508 25.709 24.7323 32.3525 23.2612 38.7263C21.8534 42.0888 23.2798 36.7552 22.183 39.4305C19.7863 45.6748 21.4575 49.4766 20.8907 54.5204L20.1297 53.4432C21.1141 56.5638 20.5194 65.0412 23.1119 70.6598C23.249 69.8307 23.3428 69.282 23.7865 69.9802C21.9319 70.4749 27.0366 77.6192 28.56 83.3041C28.9667 82.8541 29.9556 83.8311 31.0477 85.2951C31.593 86.0287 32.1675 86.884 32.7082 87.7531L32.91 88.0782L32.9594 88.1599L32.9656 88.1707C29.1686 93.5181 31.9103 89.6532 31.0632 90.8461H31.0601H31.0554H31.0324H30.9876L30.8075 90.8413L30.0974 90.8137L28.7727 90.7273C27.625 90.3498 27.8716 89.9275 27.8994 89.6085C29.7662 89.1631 29.3457 91.4392 32.2169 88.5899C31.7409 87.8455 31.2696 87.3339 30.7782 86.8701C29.797 85.9424 28.745 85.2073 27.4419 83.2086C28.7943 84.4229 29.3225 88.1214 31.3712 88.4804C28.8143 88.1476 26.245 88.1091 24.6029 88.8118L25.8798 87.7701C20.1821 88.4142 21.4853 90.3189 16.1264 91.8245L16.3158 91.0047C5.7444 96.1765 -1.48295 110.133 0.259183 119.477C0.704345 120.222 2.22622 115.84 2.73762 115.737C3.1073 110.651 3.36301 107.412 4.88334 103.546L5.75825 104.076C5.46713 102.908 8.02412 98.5759 5.97853 100.524C7.62978 97.4525 8.13499 98.9581 10.4163 95.782C10.8861 96.7282 9.4705 98.4727 10.1267 99.0891C10.6766 98.166 11.2912 97.2799 11.9767 96.443C11.5222 97.4092 13.6403 95.4198 13.1859 96.3814C17.0937 91.8153 20.1928 92.2268 25.7073 90.9585C24.6214 91.0402 23.5108 91.0463 22.4341 91.3052C22.3109 90.6641 24.2255 90.342 25.675 90.0601C26.5376 90.4161 27.1831 90.6426 28.0009 90.7442C28.4107 90.7781 28.8605 90.8984 29.3934 91.0139L30.2606 91.2036L30.7474 91.3129L30.8752 91.3422L30.9399 91.3576L30.9723 91.3653H30.9754C30.4423 92.1159 35.6149 84.8313 33.4245 87.9134L33.4231 87.9088L33.4199 87.9011L33.4137 87.8841L33.3075 87.5989C31.6408 85.3243 29.9695 84.389 28.2381 80.9386C29.5352 81.2499 26.4606 74.7867 27.086 73.8097C25.5703 73.4768 24.6521 66.9104 23.8235 66.5806C23.1119 64.6497 22.8792 61.8357 23.4477 61.7895C23.5278 62.0792 23.7357 62.6417 23.8866 63.2536L23.5955 61.2655C23.7558 61.4366 23.8404 61.358 23.8975 61.58C23.6895 59.8247 22.6698 59.9032 23.1704 57.5593C23.5108 57.5593 23.423 58.7876 23.7726 59.763C23.4831 55.1492 21.6224 51.4738 23.0981 47.6119C22.5204 46.7689 23.8005 41.3537 22.3356 42.2275C23.0642 40.8344 23.7726 41.6156 25.0049 37.7847C24.7323 35.151 27.2076 33.8473 27.9748 30.816C27.0366 34.9537 28.2135 31.004 27.4957 34.5962C29.0114 32.4249 29.8447 28.1777 33.2058 24.6827C33.7002 24.4854 33.922 24.6903 34.4211 24.4869C35.2359 22.8842 36.2233 20.9225 38.0641 20.4001L37.4264 20.0072C40.025 18.0315 43.6293 15.1698 47.0628 14.1235C47.9963 13.0493 48.9205 11.895 49.9865 10.9365C55.4746 9.5249 61.981 6.15924 66.0461 3.76908C68.0855 3.38228 71.1678 2.95849 71.2032 3.25745C70.7581 3.46242 70.0125 3.83845 69.1238 4.22371C72.0736 3.51483 75.8165 3.88931 77.3338 2.49004C80.3791 1.75649 79.6813 3.05096 81.9688 3.02631C88.1902 0.733228 100.166 4.34544 102.28 2.4407C99.7398 2.02616 94.903 1.04451 89.957 1.1046C91.2724 0.817971 90.2651 0.28942 92.0934 0.304831C97.1027 0.417327 99.5365 1.58698 104.501 1.8921L103.666 3.34224C111.494 6.15466 119.908 5.05124 125.14 9.82849Z" fill="white"/>
<path d="M64.1082 5.669C65.3004 5.56426 66.4941 5.50266 67.7033 5.53808L67.1781 4.96973C66.1322 5.27779 65.0755 5.61508 64.1082 5.669Z" fill="white"/>
<path d="M67.1798 4.96937L69.1236 4.21924C68.3659 4.37173 67.6403 4.55964 67.0581 4.82304L67.1798 4.96937Z" fill="white"/>
<path d="M137.424 16.5952C137.997 17.1346 139.26 17.9946 140.493 18.9115C139.896 18.0439 138.187 16.8788 137.424 16.5952Z" fill="white"/>
<path d="M141.002 18.7212L139.768 17.3889L139.448 17.3796L141.002 18.7212Z" fill="white"/>
<path d="M234.865 20.9563C236.592 21.878 238.438 22.7147 240.149 23.7703C240.695 24.735 245.865 29.0299 243.709 28.1052C247.104 29.7835 250.713 36.806 250.341 33.5251C245.046 26.4533 237.075 19.03 226.902 14.8538C216.811 10.6868 205.14 9.85774 195.395 12.1755C196.413 11.7347 197.472 11.4773 198.53 11.1691C188.453 13.7458 183.934 12.4128 176.958 17.6693L177.535 16.0682C172.91 17.4536 169.895 21.206 164.977 22.3418L165.667 22.5775C164.516 23.1955 163.951 23.2324 162.786 23.855L163.362 23.8165C160.556 25.8507 158.827 26.9741 155.762 28.4612C155.334 28.2362 157.009 27.4657 157.834 26.8123C157.168 27.2052 152.551 29.6201 154.27 30.6649C153.309 28.774 154.774 30.3444 155.098 30.48C149.914 24.3868 148.315 20.6188 142.68 18.4445C142.041 18.3627 143.787 20.286 141.523 18.5415C145.043 22.314 148.503 24.7119 151.776 28.2209L150.986 27.159C152.865 28.0837 153.233 28.754 153.642 29.7002C153.221 29.8282 155.471 31.5048 153.097 30.6541C153.835 30.275 154.738 29.6956 155.906 28.7186C154.476 30.0393 153.48 32.4094 152.529 30.5262C158.351 32.0688 160.02 25.2435 164.837 25.6688L164.412 25.9601C165.397 25.6319 166.82 24.4607 168.11 23.5669C167.558 23.5931 166.153 24.211 165.154 24.5424C166.451 23.6455 166.782 22.5189 167.104 21.9426C169.031 21.81 169.061 20.548 171.845 19.7173C173.085 20.0071 169.965 21.3432 169.19 22.1507L172.071 20.2675C174.909 18.9499 175.198 19.7497 176.78 19.5695C179.021 18.1316 175.171 19.7035 176.871 18.2071C180.277 17.6508 193.791 13.3312 200.715 12.5514C198.35 12.852 199.956 13.4453 197.093 13.5516C198.142 13.6441 201.729 12.946 201.742 12.3481C206.48 11.5528 212.651 12.3064 216.836 13.8875L215.701 13.0184C219.649 12.7965 224.785 15.8971 230.819 18.4676L230.7 18.3844C232.535 19.4061 235.068 18.8898 238.088 21.6268C236.754 21.5327 235.079 20.2289 234.865 20.9563Z" fill="white"/>
<path d="M251.99 36.9571L250.128 35.5532C251.251 37.6475 253.714 39.6816 253.896 39.0144C252.975 37.6675 252.067 35.6626 251.526 35.6549C251.576 35.9601 251.315 36.0988 251.99 36.9571Z" fill="white"/>
<path d="M259.404 80.6072C259.381 81.5179 259.739 81.3762 259.873 81.8031C262.572 72.1992 260.97 60.1483 260.676 56.2879C260.254 52.9916 258.898 52.708 257.395 48.951L257.561 46.9353C256.4 45.0136 254.216 38.5904 254.009 41.3444C253.977 41.6464 255.562 42.7251 255.987 44.6083L255.439 44.5142L257.178 48.4501L256.132 47.3822C257.132 53.1272 259.304 50.6877 260.299 57.9815L259.113 58.1248C259.706 62.862 260.317 65.3015 259.504 69.4947C259.504 69.4947 260.097 69.544 259.895 68.7349C260.032 67.9321 260.397 66.8826 260.798 67.4404C261.501 74.8036 260.172 66.3278 259.467 71.3562C260.388 77.5621 257.324 89.4804 254.493 91.9724C256.41 89.633 255.266 93.9803 253.224 96.987C252.037 98.1489 253.214 95.62 253.187 94.9666C252.273 96.3212 251.32 97.255 250.441 98.6389C252.241 97.3244 252.184 98.9178 250.106 102.342C256.199 95.936 257.317 88.5666 259.404 80.6072Z" fill="white"/>
<path d="M259.791 83.3165C259.958 82.4458 259.95 82.0405 259.873 81.8032C259.651 82.9435 259.331 84.0578 258.951 85.0764L259.791 83.3165Z" fill="white"/>
</g>
<path d="M130.28 177.196H151.02L148.94 169.818L137.352 170.944L137.065 162.652H145.386L145.848 157.772L136.535 158.542L136.268 150.551L145.038 151.142L146.109 145.87L131.567 145.627L130.28 177.196Z" fill="#004F9C"/>
<path d="M149.151 152.802L156.68 152.74L155.184 177.313L163.526 177.099L162.848 152.88H168.78L170.414 146.74L150.146 145.76L149.151 152.802Z" fill="#004F9C"/>
<path d="M103.774 172.621L99.2328 172.232L99.6425 145.189L90.0291 146.18L92.8803 172.053L81.0412 171.582L80.7516 146.18L73.4766 146.303L71.9485 177.974L95.5805 177.044L95.4805 182.178H100.899L103.774 172.621Z" fill="#004F9C"/>
<path d="M123.74 159.963C123.121 159.472 120.162 158.587 119.488 158.259C124.446 155.07 131.014 142.514 106.471 145.017L106.639 177.436C111.257 177.661 120.354 177.657 123.835 174.888C125.986 173.169 127.21 171.025 127.311 168.299C127.464 164.817 126.258 162.025 123.74 159.963ZM113.237 148.561C118.06 147.726 118.971 150.25 119.017 152.098C119.083 154.462 117.099 156.159 113.315 156.532L113.237 148.561ZM122.007 168.139C121.137 172.895 116.299 172.512 113.839 172.639L113.884 161.282C115.823 161.408 118.33 161.856 120.015 163.252C121.42 164.404 122.386 166.035 122.007 168.139Z" fill="#004F9C"/>
<path d="M169.476 163.655C168.886 171.286 170.371 177.866 176.444 179.181C183.236 180.638 187.596 174.502 188.519 165.697C189.989 151.614 186.344 146.626 181.451 145.82C176.402 145.189 170.311 150.22 169.476 163.655ZM174.902 166.476C173.965 158.398 176.794 152.349 180.308 152.728C183.195 153.046 184.807 155.812 183.931 164.46C183.427 169.449 180.183 171.813 178.36 171.708C175.932 171.562 175.111 169.299 174.902 166.476Z" fill="#004F9C"/>
<path d="M206.391 159.124C208.207 157.269 209.813 155.934 209.813 153.109C209.813 149.355 207.079 145.03 199.598 145.236C199.598 145.236 195.093 145.236 191.913 145.44L192.878 152.533L191.645 177.543C198.687 177.543 204.584 177.543 204.584 177.543C210.36 177.543 214.2 173.406 214.2 167.76C214.202 163.071 210.362 160.74 206.391 159.124ZM196.863 149.839C198.467 149.758 200.381 149.758 200.381 149.758C201.742 149.68 204.585 150.488 204.585 152.381C204.585 154.243 203.74 157.084 199.797 157.354C199.797 157.354 198.031 157.354 196.766 157.354L196.863 149.839ZM201.837 172.652C201.837 172.652 199.485 172.652 197.831 172.652L198.088 162.418C200.185 162.293 202.673 162.293 202.673 162.293C204.584 162.216 208.009 165.023 208.009 167.686C208.009 170.349 206.391 172.652 201.837 172.652Z" fill="#004F9C"/>
<path d="M188.073 115.555C183.865 115.907 180.238 119.111 179.924 128.599C179.722 134.536 182.72 138.811 188.589 138.088C193.858 137.439 195.837 133.088 196.177 127.957C196.96 118.917 192.386 115.323 188.073 115.555ZM187.663 133.505C186.047 133.516 183.468 131.658 183.629 127.991C183.886 121.623 185.642 119.67 188.214 119.547C191.358 119.4 193.736 123.965 191.952 129.842C191.432 131.9 189.824 133.494 187.663 133.505Z" fill="#004F9C"/>
<path d="M179.47 116.197L164.616 117.703L164.153 120.975L169.892 120.895L169.57 137.369L174.898 137.495L173.814 120.507L179.241 120.751L179.47 116.197Z" fill="#004F9C"/>
<path d="M161.414 130.939C161.138 132.986 158.815 133.867 157.59 133.871C155.648 133.875 153.78 130.203 153.771 126.202C153.768 121.837 156.426 119.187 158.554 118.623C160.644 118.058 161.083 119.668 161.473 119.772L163.508 116.564C161.828 114.892 159.523 114.996 159.523 114.996C154.535 114.781 149.875 119.429 149.495 126.46C149.055 134.94 152.909 137.905 157.072 137.878C160.288 137.865 163.058 136.002 164.319 132.68L161.414 130.939Z" fill="#004F9C"/>
<path d="M117.635 131.394L119.583 131.34L124.513 121.601L124.34 137.811L131.129 137.437L128.361 115.458L124.34 115.704L118.767 126.566L112.015 115.493L108.312 115.563L108.005 138.313L113.924 137.785L112.465 118.997L117.635 131.394Z" fill="#004F9C"/>
<path d="M98.549 122.318C102.366 121.406 102.481 119.251 102.44 118.493C102.252 114.626 95.1264 115.722 87.7327 115.633V138.84C97.8835 139.054 105.718 137.991 105.895 130.521C105.961 128.072 103.908 123.889 98.549 122.318ZM92.1673 117.663C97.1842 117.443 98.4842 118.71 97.808 119.696C96.0766 122.226 91.9733 121.798 91.9733 121.798L92.1673 117.663ZM100.353 129.691C100.146 133.476 93.7862 132.966 91.3063 132.879L91.8499 124.41C98.8417 125.379 100.508 127.167 100.353 129.691Z" fill="#004F9C"/>
<path d="M148.047 132.426L137.607 132.905L137.651 126.323L145.84 126.616L145.538 122.764L137.434 122.739L137.341 118.691L146.121 118.729L147.186 115.685L133.765 115.802L133.495 137.785L148.693 137.376L148.047 132.426Z" fill="#004F9C"/>
<path d="M117.011 110.8L116.927 99.5792L111.049 99.6454L112.652 69.4625L84.4732 69.0911L82.5862 76.1122L90.6762 75.6267C91.4108 80.1481 90.1232 87.3649 84.4363 98.6376L74.4763 98.633L76.6235 113.652L83.8046 112.676L83.8108 105.21L109.844 105.19L108.589 111.001L117.011 110.8ZM92.5492 99.1307C93.5519 93.8049 95.4389 86.1197 95.4559 75.1722L103.799 74.8285L104.049 99.439L92.5492 99.1307Z" fill="#004F9C"/>
<path d="M172.967 80.2882L163.447 80.148L164.403 106.093L153.988 106.324L155.729 79.6733L145.75 80.1233L146.301 74.1132L172.952 72.543L172.967 80.2882Z" fill="#004F9C"/>
<path d="M146.323 98.3833L128.956 99.9244L128.683 90.9909L141.541 90.8152L142.157 84.9315L128.567 85.9332L128.44 78.6578L141.323 79.1449L142.705 74.0918L122.283 72.7095L120.661 105.859H147.605L146.323 98.3833Z" fill="#004F9C"/>
<path d="M182.933 106.89L196.565 83.3566L196.295 106.392L206.342 105.753L204.473 89.1602L204.448 73.423L198.213 73.5586L184.621 94.0468L183.892 72.8513L177.132 72.3875L177.897 79.7367L174.479 106.275L182.933 106.89Z" fill="#004F9C"/>
</g>
<defs>
<clipPath id="clip0_100_11833">
<rect width="289" height="250" fill="white"/>
</clipPath>
</defs>
</svg>
