<svg width="1968" height="599" viewBox="0 0 1968 599" fill="none" xmlns="http://www.w3.org/2000/svg">
<g opacity="0.38">
<path fill-rule="evenodd" clip-rule="evenodd" d="M181.253 80.9125C175.253 117.985 226.866 156.483 263.749 110.856C290.747 183.575 398.046 109.938 339.446 74.5253C379.608 81.0418 382.659 34.991 341.639 38.4636L164.752 38.4636C136.353 46.5097 142.255 89.4681 181.253 80.9125Z" fill="white"/>
</g>
<g opacity="0.25">
<path fill-rule="evenodd" clip-rule="evenodd" d="M0.638428 349.886L0.638428 454.346C7.93578 456.742 10.3674 457.748 18.2129 456.855C32.5427 532.977 139.301 521.345 111.796 452.664C142.022 483.478 176.509 439.796 139.153 417.599C190.845 386.804 136.353 324.336 84.7323 345.747C82.685 328.17 60.5253 303.538 28.0191 309.572C6.93501 313.484 -2.66924 333.728 0.638428 349.886Z" fill="white"/>
</g>
<g opacity="0.25">
<path fill-rule="evenodd" clip-rule="evenodd" d="M1534.26 38.7315L1416.74 38.7315C1414.62 44.0207 1423.81 48.0219 1439.59 50.9859C1372.22 61.3723 1382.52 138.753 1443.3 118.816C1416.03 140.723 1476.56 172.716 1480.56 123.284C1486.56 167.013 1556.87 136.614 1537.92 99.2003C1553.48 97.7145 1575.28 81.6547 1569.94 58.0936C1566.48 42.8105 1548.56 36.335 1534.26 38.7315Z" fill="white"/>
</g>
<g opacity="0.25">
<path fill-rule="evenodd" clip-rule="evenodd" d="M1756.25 488.57C1744.15 505.765 1756.25 535.73 1763.42 537.983C1792.31 547.053 1810.65 553.661 1845.39 501.991C1829.01 567.17 1921.61 608.042 1967.02 551.108V317.74C1944.92 323.213 1925.09 332.821 1915.8 345.462C1860.12 296.618 1789.87 340.215 1809.72 380.253C1737.88 288.986 1664.3 406.481 1733.11 420.305C1734.93 420.501 1736.78 420.789 1738.69 421.18C1736.72 420.967 1734.88 420.662 1733.11 420.305C1679.55 414.468 1684.2 493.747 1756.25 488.57Z" fill="white"/>
</g>
<g opacity="0.34">
<path fill-rule="evenodd" clip-rule="evenodd" d="M650.238 74.7636C650.877 22.7104 612.78 14.1436 584.015 44.6364C601.126 4.85625 557.083 -11.5135 482.747 18.9403C459.099 7.26993 424.395 8.67951 398.929 37.6055C354.759 7.57568 274.078 44.1483 320.576 92.6756C295.108 96.859 292.51 125.31 324.674 127.226C312.724 140.374 310.558 163.642 329.117 178.202C357.729 200.653 392.728 189.514 404.215 174.404C436.361 212.72 486.927 189.834 489.788 153.242C496.927 176.286 526.715 167.72 523.266 146.477C550.746 175.012 602.161 167.251 619.859 136.752C633.128 113.893 630.399 91.6529 618.824 83.4706C631.764 97.6975 650.128 83.7565 650.238 74.7636Z" fill="white"/>
</g>
<g opacity="0.25">
<path fill-rule="evenodd" clip-rule="evenodd" d="M709.425 558.615C689.219 596.848 739.826 609.886 761.09 584.13C773.253 594.511 786.182 596.255 796.989 593.025C814.35 603.062 839.89 602.042 858.717 577.599C891.121 603.34 950.599 572.684 916.545 531.216C935.297 527.791 937.301 503.634 913.641 501.841C922.478 490.732 924.144 470.976 910.538 458.509C889.562 439.288 863.774 448.572 855.274 461.349C831.747 428.631 782.003 444.271 788.483 481.343C765.157 464.233 753.849 477.211 746.489 493.499C738.01 485.134 716.663 482.585 703.277 501.238C694.594 513.337 698.82 528.335 707.31 535.346C689.257 540.992 694.397 559.336 709.425 558.615Z" fill="white"/>
</g>
<g opacity="0.47">
<path fill-rule="evenodd" clip-rule="evenodd" d="M1967.84 379.292C1948.58 427.561 1820.76 361.971 1884.54 315.5C1820.76 305.543 1864.61 215.924 1919.86 262.392C1888.19 241.101 1948.58 203.017 1967.84 224.222" fill="white"/>
</g>
</svg>
