<svg width="75" height="40" viewBox="0 0 75 40" fill="none" xmlns="http://www.w3.org/2000/svg">
<g opacity="0.65">
<path fill-rule="evenodd" clip-rule="evenodd" d="M62.6494 14.0645C62.6494 14.0689 62.7123 14.002 62.6494 14.0645C61.4649 16.8136 64.7524 16.237 65.3458 15.017C66.0441 13.5998 63.3512 12.5661 62.6494 14.0645Z" fill="#FFB296"/>
</g>
<g opacity="0.65">
<path fill-rule="evenodd" clip-rule="evenodd" d="M13.0024 1.54023C13.0024 1.54462 13.0642 1.47885 13.0024 1.54023C11.818 4.2893 15.1055 3.71276 15.6988 2.49278C16.3971 1.0755 13.7042 0.0418354 13.0024 1.54023Z" fill="#FFF100"/>
</g>
<g opacity="0.74">
<path d="M29.3732 21.6201L29.3604 21.8274L29.5679 21.8635L29.3732 21.6201Z" fill="#CAEFFF"/>
<path d="M28.9756 22.7732L29.1761 23.1327C29.6004 22.7348 29.5411 23.0384 29.7684 22.3917C29.6413 22.2416 29.3382 21.859 29.1377 21.9401C29.1995 22.0859 29.4606 22.2461 29.4501 22.4664C29.2741 22.4192 29.2309 22.1879 28.9966 22.1134C28.9255 22.5135 29.1878 22.3107 29.2193 22.7195L28.9756 22.7732Z" fill="#CAEFFF"/>
<path d="M29.6445 23.0111L29.3647 23.0609C29.472 23.0565 29.676 23.1647 29.6445 23.0111Z" fill="#CAEFFF"/>
<path d="M29.8162 23.1777C29.9234 23.3817 29.6343 23.2633 29.6191 23.2951L30.0762 23.3576L29.8162 23.1777Z" fill="#CAEFFF"/>
<path d="M30.3149 23.9998L30.4128 24.0623C30.428 24.002 30.3674 24.0107 30.3149 23.9998Z" fill="#CAEFFF"/>
<path d="M30.6856 24.3111C30.7089 24.1697 30.569 24.1335 30.4128 24.0622L30.4058 24.0853C30.4338 24.2332 30.1097 24.3253 30.0456 24.0874C29.8695 23.9186 30.0898 23.8046 29.8427 23.7213L29.8252 24.0677C30.042 24.3944 30.5282 24.2684 30.6856 24.3111Z" fill="#CAEFFF"/>
<path d="M30.3151 23.9998L30.2358 23.9033L30.3151 23.9998Z" fill="#CAEFFF"/>
<path d="M30.0784 23.5773L29.97 23.5011L29.8931 23.5795L30.0784 23.5773Z" fill="#CAEFFF"/>
<path d="M31.2782 24.8458C31.0066 25.0497 30.8888 24.4283 30.6533 24.5631C30.8935 24.7725 30.9168 25.1309 30.7361 25.2142L31.0835 25.3939C31.27 25.3665 31.2933 25.0946 31.2782 24.8458Z" fill="#CAEFFF"/>
<path d="M31.3169 25.9104L31.4265 25.9152L31.3169 25.9104Z" fill="#CAEFFF"/>
<path d="M33.2788 26.3356L32.3286 26.2754C32.4511 26.2282 32.479 26.1187 32.6772 26.1658C32.3531 25.9773 32.219 26.0934 31.9626 25.9049C32.057 25.5991 32.4417 26.1833 32.4382 25.8534C32.2517 25.7459 31.9743 25.5859 31.6665 25.6988L31.4998 25.3414L31.3867 25.6735C31.452 25.8325 31.7935 25.6177 31.7294 25.8578C31.6816 25.9992 31.5417 25.9432 31.431 25.9136C31.67 25.9761 31.8203 26.4979 32.2843 26.693C32.7763 26.8738 32.9139 26.3553 33.2788 26.3356Z" fill="#CAEFFF"/>
<path d="M33.1456 26.6831L33.1421 26.8246L33.1841 26.648L33.1456 26.6831Z" fill="#CAEFFF"/>
<path d="M34.1959 26.6315L33.6992 26.6721L33.6654 26.4835C33.6491 26.5603 33.4859 26.6337 33.4766 26.6995C33.55 27.0656 34.0303 26.8365 34.2798 26.83C34.858 27.1259 34.1993 26.9758 34.352 27.3134C34.1748 27.2553 34.19 27.1873 33.9499 27.0996C34.2273 27.5282 34.8371 27.3671 35.0994 27.3484C35.0329 27.3013 35.0387 27.2049 34.8953 27.1939L35.1751 27.1665C34.9711 26.865 34.7787 26.7466 34.1959 26.6315Z" fill="#CAEFFF"/>
<path d="M33.4624 26.3443C33.6221 26.3893 33.6676 26.432 33.6641 26.477C33.6571 26.3849 33.6314 26.3103 33.4624 26.3443Z" fill="#CAEFFF"/>
<path d="M35.236 27.3768L35.0996 27.3496L35.236 27.3768Z" fill="#CAEFFF"/>
<path d="M35.0737 26.9637L35.3687 27.0756L35.2836 26.9045C35.2369 26.9078 35.0842 26.8902 35.0737 26.9637Z" fill="#CAEFFF"/>
<path d="M46.3002 23.9572C46.2046 23.8695 46.0764 23.8804 45.8922 24.024C45.8188 23.8738 46.0938 23.7369 46.158 23.5856C45.835 23.6624 46.0484 23.4234 45.8898 23.3346C45.5902 23.5034 45.5867 23.7609 45.2498 23.9209L45.1158 23.7949C44.8022 24.1139 44.2473 24.6302 43.7984 24.7387C43.4032 24.8955 43.1748 25.1092 42.8134 25.4008C41.4483 26.0278 40.0481 26.9102 38.3461 27.011L38.1514 27.3431C38.0488 27.1907 37.7375 27.3705 37.7702 27.1611L38.0616 27.1457C37.6816 26.8739 37.1081 27.2762 36.6779 27.0877C36.721 27.1501 36.7746 27.4318 36.6382 27.4669C36.7058 27.1183 36.1113 27.4176 36.0437 27C35.6333 26.8542 35.9749 27.3037 35.533 27.1995C35.4409 27.399 35.9527 27.3474 36.0145 27.5118C35.8397 27.662 35.6019 27.3946 35.5821 27.6127C36.3328 27.8528 37.8192 27.5184 38.8707 27.1523L38.7973 27.3727C39.3463 27.1118 40.2114 26.8652 40.7581 26.9616C40.5786 26.829 41.6033 26.7522 41.32 26.3861C41.4902 26.4113 41.5216 26.3796 41.7198 26.3236L41.7035 26.1801C41.9623 26.0584 42.0206 26.2612 42.3109 26.1034C42.0264 26.0387 42.213 25.8874 42.22 25.7142C42.6618 25.7361 43.1223 25.6583 43.507 25.6441C43.451 25.6079 43.3892 25.5652 43.247 25.552C43.4778 25.4983 43.3496 25.3678 43.3682 25.2845C43.5501 25.1705 43.6621 25.3832 43.718 25.4906C44.1109 25.358 44.0036 24.8845 44.3393 24.8593L44.1458 24.754C44.4629 24.5052 44.8745 24.5019 45.2184 24.2169C45.5541 24.3178 45.0353 24.594 44.9397 24.7825C45.0493 24.7803 45.223 24.6905 45.3256 24.7288C45.4142 24.5217 45.5786 24.2027 45.7056 23.9737C45.6916 24.3387 46.1603 24.0241 46.3002 23.9572Z" fill="#CAEFFF"/>
<path d="M45.3282 24.7265L45.2769 24.8801L45.3923 24.7835L45.3282 24.7265Z" fill="#CAEFFF"/>
<path d="M46.3003 23.9571L46.3254 23.9789L46.3003 23.9571Z" fill="#CAEFFF"/>
<path d="M43.7402 24.7539L43.7985 24.7387L43.8661 24.7047L43.7402 24.7539Z" fill="#CAEFFF"/>
<path d="M43.9242 25.644L43.5093 25.6419C43.5886 25.6956 43.6526 25.7383 43.9242 25.644Z" fill="#CAEFFF"/>
<path d="M41.3167 26.7532C41.2479 26.8157 41.3214 26.8498 41.2899 26.9265C41.4659 26.8673 41.4939 26.785 41.3167 26.7532Z" fill="#CAEFFF"/>
<path d="M45.772 24.5073L46.0249 24.2782L46.0996 24.1719L45.772 24.5073Z" fill="#CAEFFF"/>
<path d="M51.1162 20.239C50.7385 20.1699 50.3923 20.4681 50.0519 20.616C49.5168 21.0424 50.2314 21.0831 49.6882 21.4108L49.5355 20.9614C48.9771 21.2804 48.154 21.6892 47.9196 22.302C47.8462 22.2789 47.7087 22.2789 47.8124 22.1397C47.4603 22.3775 48.0082 22.8029 47.4393 22.975C47.7191 22.4565 47.1327 22.8423 47.0873 22.5277L47.1386 22.4576C46.8506 22.6735 46.5347 23.0528 46.3237 23.1646C46.3855 23.2676 46.6688 23.306 46.4065 23.4901C46.5301 23.4386 46.5662 23.5779 46.6256 23.6831C46.8285 23.3981 47.0255 23.3707 47.1024 23.135C47.3496 23.1668 47.0279 23.2424 47.2738 23.272L47.4125 23.0133C47.5979 22.9409 47.3344 23.2489 47.6084 23.1163C47.5851 23.022 47.7355 22.8106 47.9477 22.701L47.922 22.7821C48.0386 22.6319 48.3009 22.5661 48.0782 22.3962L48.4081 22.5015L48.2764 22.3731C48.7415 22.178 49.1321 22.4334 49.5564 21.9281C49.3956 21.9555 49.4643 21.8109 49.518 21.7419C49.2183 21.7649 49.3081 22.0202 49.1064 22.166C48.9747 22.0378 49.2265 21.641 48.9036 21.71C49.307 21.7078 49.4422 21.3692 49.8036 21.6739C50.1696 21.5073 50.1906 21.2496 50.6021 21.1411L50.6266 21.2036C50.5462 20.9098 50.9856 21.1696 51.1127 20.7816L50.8854 20.8155C50.8364 20.7059 50.9309 20.6589 51.0544 20.5778C51.0614 20.6249 51.0614 20.6248 51.1302 20.6544C51.0708 20.4506 51.48 20.2204 51.5056 20.1404C51.3098 20.1919 51.1699 20.4484 50.9892 20.5942C51.037 20.432 50.9204 20.2905 51.1162 20.239Z" fill="#CAEFFF"/>
<path d="M47.8716 22.9322L47.924 22.7776L47.8716 22.9322Z" fill="#CAEFFF"/>
<path d="M52.9812 19.8773C53.2388 19.8346 52.98 20.0703 53.2341 20.0768C53.43 19.8499 52.8517 19.8992 53.0161 19.6054C53.2061 19.6592 53.3903 19.3984 53.4987 19.3677C53.4183 19.5135 53.5687 19.7633 53.6293 19.8083C53.7027 19.7096 53.9534 19.7929 54.1143 19.7633C53.6725 19.6888 54.4279 19.5835 54.0199 19.4849C54.0047 19.3205 54.3766 19.1079 54.5596 19.1977C54.5678 19.3128 54.4384 19.3216 54.3346 19.3501C54.2973 19.5968 54.6156 19.3929 54.7088 19.6088C55.0329 19.258 56.3374 19.2207 55.9888 18.7439C55.8431 18.6222 55.7161 18.778 55.561 18.8021C55.9994 18.8722 55.5645 19.0673 55.5365 19.1593C55.3523 19.0925 55.0562 19.2734 55.1099 19.0892L55.3885 18.8821C54.4186 18.7966 53.1362 19.1715 52.1814 19.6297L52.6209 19.4817C52.6197 19.6275 52.4192 19.7085 52.2898 19.8258L52.6244 20.0572C52.4962 20.0791 52.4006 20.1646 52.3609 20.0527C52.2712 20.2347 52.3738 20.2884 52.5044 20.3608C52.2257 20.5296 52.1149 20.4144 51.9844 20.7246C52.5894 20.7564 52.3132 20.3542 52.9812 20.3563V19.8773Z" fill="#CAEFFF"/>
<path d="M51.9298 20.4676L51.9765 20.2599L51.8296 20.4205L51.9298 20.4676Z" fill="#CAEFFF"/>
<path d="M51.8101 19.7206L51.8194 19.9069C52.0887 19.8598 52.0187 19.7787 51.8101 19.7206Z" fill="#CAEFFF"/>
<path d="M55.0376 19.6012L55.3535 19.5199L55.1379 19.4728C55.1495 19.5452 55.0749 19.5814 55.0376 19.6012Z" fill="#CAEFFF"/>
<path d="M57.4779 18.9051C56.9778 18.7954 56.7388 18.9817 56.1933 18.7318C55.9088 18.9159 56.2923 19.1517 56.1617 19.3336C56.4112 19.4104 56.4159 19.042 56.7108 19.0058C56.7796 19.2174 57.1375 18.9829 57.3846 19.1232C57.3753 19.0377 57.3963 18.9522 57.4779 18.9051Z" fill="#CAEFFF"/>
<path d="M58.6925 20.1744C58.8627 20.2819 59.1261 20.2687 59.2124 20.4265C59.1203 20.5098 58.9933 20.4847 58.907 20.3948C58.8161 20.6557 59.1226 20.4781 59.1972 20.7335C59.1996 20.7017 59.1611 20.6217 59.2486 20.6074C59.6671 20.9352 59.6379 20.6271 60.0529 21.2026C60.1812 21.2223 60.2547 21.2925 60.3794 21.162C60.4866 21.6005 60.384 21.4207 60.4959 21.9282C60.5729 21.8537 60.679 21.5797 60.8632 21.4449C61.0089 22.199 61.3248 22.006 61.3796 22.4938C61.34 22.4598 61.2537 22.4424 61.2105 22.3295C60.9576 22.5454 61.4962 22.5859 61.5463 22.8413L61.2922 22.9487C61.4285 23.1219 61.7701 23.3894 61.713 23.7193H61.5568C62.0429 24.1172 62.1304 24.7902 62.395 25.2089L62.3134 25.4939C62.7366 26.065 62.191 24.8494 62.7529 25.198C62.2737 25.3996 63.0537 25.4808 62.9091 25.9149C62.7412 26.1308 62.7342 25.5597 62.543 25.803C62.8147 25.8282 62.655 25.985 62.7657 26.167C62.5128 26.1692 62.81 26.5823 62.5104 26.5078L63.0956 27.1392C62.9557 27.2674 62.9814 27.467 63.0198 27.6171C63.0187 27.2313 63.3929 27.7136 63.5013 27.2576C63.295 26.6175 63.0665 25.5706 62.873 24.7781C62.5186 24.7978 62.7039 24.2838 62.3997 24.2553L62.6597 24.0537C62.3915 23.5955 62.5384 24.2312 62.367 24.1588C62.2504 23.9615 62.3356 23.7303 62.465 23.7007C62.3088 23.3576 62.3589 23.6963 62.1036 23.5998L62.3321 23.2293C61.7352 22.1737 60.5612 21.082 59.5796 20.1295L59.5283 20.3608C59.041 19.9564 58.4407 20.2018 58.1457 19.622L57.8939 19.737C58.0338 19.6702 57.9208 19.3929 58.1388 19.3063C57.9418 19.3195 57.796 19.1803 57.6013 19.1868L57.8671 19.3907C57.5931 19.496 57.4113 19.3118 57.3821 19.1277C56.882 19.1902 57.5454 19.588 57.5605 19.7908C58.3019 19.6308 57.993 20.307 58.5293 20.4605C58.9035 20.5339 58.6144 20.2665 58.6925 20.1744Z" fill="#CAEFFF"/>
<path d="M58.2601 19.2866L58.1411 19.3088L58.2601 19.2866Z" fill="#CAEFFF"/>
<path d="M63.0225 27.616L63.0388 27.7848C63.0994 27.843 63.0563 27.7509 63.0225 27.616Z" fill="#CAEFFF"/>
<path d="M57.3843 19.1232V19.1272L57.3893 19.1251L57.3843 19.1232Z" fill="#CAEFFF"/>
<path d="M56.9521 19.5814L57.1118 19.6121L57.1095 19.5047L56.9521 19.5814Z" fill="#CAEFFF"/>
<path d="M62.5884 29.2392L62.7085 29.2665L62.5884 29.2392Z" fill="#CAEFFF"/>
<path d="M59.5854 32.1578L59.6787 32.121L59.5854 32.1578Z" fill="#CAEFFF"/>
<path d="M58.5397 26.8366C58.7368 26.5856 59.0188 26.2687 59.0783 25.9761L59.1389 26.0814C59.231 25.929 59.5749 25.4687 59.1413 25.5103L59.1354 25.6408C58.9163 26.0135 58.7717 25.6681 58.4651 25.8095C58.1946 26.0967 58.3263 26.567 57.9894 26.6985C57.881 26.8015 57.8169 26.7007 57.7889 26.6064C57.4928 26.795 57.6386 27.1347 57.5045 27.3276C56.7841 26.7686 56.9205 28.199 56.1441 28.1859C55.9995 28.4818 55.6603 28.7746 55.5553 29.1922C55.4971 28.9006 55.2976 29.4837 55.1298 29.282C55.5471 29.6097 54.3732 30.342 54.9946 30.5963C54.7404 31.0973 55.0133 30.6028 54.8722 31.2386C54.7964 31.2452 54.7883 31.129 54.7719 31.084C54.6507 31.392 55.0843 31.4348 54.8034 31.7351C55.0016 32.2273 55.0109 31.7548 55.3304 31.9127C55.5647 32.3577 55.3979 32.2941 55.3956 32.7348C55.6346 32.5572 55.855 32.8115 56.1685 32.8017C56.1126 32.7567 55.8409 32.5474 56.1056 32.5507C56.5847 32.8674 56.5754 32.6 57.0883 32.566C57.3017 32.9365 56.5649 32.5122 56.981 32.8334C56.5835 32.9792 56.3504 32.8532 56.0531 32.9596C56.4961 33.2961 57.2247 33.2159 57.74 33.0899C58.0489 33.1009 57.5908 33.2675 57.8367 33.2697C58.4313 33.3552 58.6272 32.8499 59.062 32.8543L59.0246 33.0493C59.2112 32.76 59.9818 32.8335 60.3781 32.4761C60.279 32.4224 60.2138 32.3862 60.2464 32.3073C60.4644 32.7095 60.7524 31.8337 61.3085 31.8173C61.1091 31.6079 61.4017 31.2539 61.5393 31.0446C61.6629 31.038 61.7386 31.1323 61.7934 31.186C61.3504 31.3723 61.6757 31.7144 61.4122 32.0355C61.6185 31.7724 62.1222 31.4962 62.1711 31.1685L62.2621 31.3887C62.6573 31.0928 62.0779 30.7761 62.5104 30.5284L62.6351 30.6478C63.1609 29.8959 63.6178 28.7591 63.2133 28.0313C63.0723 27.971 62.747 28.3141 62.6374 28.3207C62.7761 28.7274 62.8974 28.9762 62.9697 29.3269L62.7086 29.2667C62.8741 29.3698 62.8939 29.7851 63.0793 29.6075C63.1306 29.9068 62.8566 29.7556 62.845 30.0723C62.6001 29.9551 62.6572 29.7962 62.4217 29.7172L62.4427 29.9759C62.3809 29.875 62.2819 30.068 62.2189 29.9628C62.2726 30.4703 61.861 30.4615 61.6721 30.8473L61.8855 30.6949C62.0196 30.7958 61.903 30.8945 61.8459 30.9964C61.5871 30.9427 61.5544 31.0117 61.3213 31.1016C61.263 31.3285 61.2921 31.5871 61.0357 31.7592C60.9214 31.4874 60.5309 31.9159 60.3467 31.7143C60.4283 31.9839 59.8629 32.042 59.8955 32.2042C59.7696 32.3237 59.5481 32.3928 59.491 32.2426L59.5866 32.1571L59.4315 32.2021L59.4351 32.1375C59.2987 32.1671 59.3662 32.36 59.1424 32.281C59.1191 32.2109 59.2147 32.1845 59.28 32.1352C58.9163 32.1801 58.7624 32.7502 58.387 32.5507C58.3555 32.6833 57.9102 32.7458 58.0396 33.0286C57.8997 32.9387 57.9253 32.7008 57.6059 32.7797C57.4136 33.0516 57.2597 32.6536 57.0079 32.7928C57.3553 32.5747 57.0289 32.7227 57.3133 32.5078C57.1595 32.3489 56.7549 32.7414 56.46 32.5232L56.4856 32.3172C56.3574 32.3468 56.1009 32.4454 56.1219 32.2273L56.024 32.3752C55.8328 32.2492 55.6952 31.9215 55.7033 31.6749C55.5623 31.6596 55.3443 31.6474 55.2406 31.5871C55.6276 31.129 55.1333 30.7672 55.0914 30.2816C55.1765 30.1314 55.3408 29.9309 55.4096 29.9649L55.4562 30.171C55.5751 29.9638 55.8386 29.8092 55.6673 29.556C55.7465 29.3181 55.9529 29.5199 56.1056 29.4059C56.0729 28.7745 57.2492 28.4764 56.9216 27.993C56.7643 28.1322 56.376 28.3229 56.1615 28.6649C56.1685 28.5366 56.0193 28.5279 56.1021 28.4018C56.3271 28.0532 56.6815 28.0872 56.889 27.7343L57.1466 28.0302C57.9137 27.8384 57.7144 26.7555 58.5397 26.8366Z" fill="#CAEFFF"/>
<path d="M55.3374 30.5448L55.6428 30.3715L55.468 30.3398C55.4598 30.4231 55.426 30.4955 55.3374 30.5448Z" fill="#CAEFFF"/>
<path d="M55.4682 30.3399L55.4565 30.1699L55.4238 30.3311L55.4682 30.3399Z" fill="#CAEFFF"/>
<path d="M59.4028 26.0725C59.4658 26.0495 59.5882 26.0002 59.6651 25.8928C59.566 25.9059 59.4168 25.9892 59.4028 26.0725Z" fill="#CAEFFF"/>
<path d="M59.6077 25.7876L59.4468 25.8252L59.4584 25.8727L59.6077 25.7876Z" fill="#CAEFFF"/>
<path d="M67.5283 22.4311L68.0459 22.2425C68.1217 22.3664 68.7139 22.2766 68.4982 22.4608C68.8538 22.1802 69.4273 22.6581 69.2851 22.1933C67.7917 21.9489 65.5511 21.8874 64.0496 22.7796L64.2524 22.5396C63.5483 23.1304 62.9666 22.636 62.5842 23.4647L62.5236 23.1326C62.1074 23.2378 62.0608 23.8922 61.514 23.7957L61.6224 23.8879L61.3671 23.9712L61.4371 23.9986C61.2669 24.2573 61.1142 24.3351 60.8227 24.4075C60.7458 24.3308 60.909 24.3 60.9673 24.2321C60.7959 24.2123 60.7364 24.5105 60.5511 24.6212C60.3506 24.6387 60.4648 24.5016 60.459 24.4523C59.9974 24.9236 59.5485 24.8338 59.4751 25.4783C59.4961 25.5726 59.7164 25.5123 59.5509 25.68C59.9939 25.5583 60.1535 25.2109 60.3937 24.8832L60.304 24.9434C60.2725 24.3822 60.5639 24.8985 60.8647 24.4677C60.8635 24.6946 60.6805 24.8064 60.6676 24.9368C61.3613 24.9346 61.2062 24.2792 61.7868 24.4677L61.7588 24.5017C61.8556 24.4973 61.9302 24.3395 62.0246 24.2496L61.7297 24.2583C61.8148 24.1531 61.7635 23.9481 61.7577 23.8517C62.0025 23.9613 61.8835 23.6719 62.1552 23.6478C62.3254 23.7782 62.0642 23.8945 62.0398 24.0249L62.2263 23.7782C62.4536 23.6478 62.5562 23.8473 62.7159 23.8812C62.8407 23.65 62.5539 23.8473 62.618 23.5821C62.9864 23.6895 64.0461 23.194 64.5451 22.863C64.3597 22.9397 64.5381 23.0647 64.3026 23.1119C64.3923 23.1097 64.6628 22.9617 64.6208 22.8159C64.9752 22.6 65.508 22.567 65.8915 22.6185L65.7598 22.4969C66.0373 22.1977 66.5875 22.6043 67.1272 22.4114L67.1144 22.4093C67.2905 22.3534 67.4549 22.0091 67.8023 22.1154C67.6938 22.2831 67.5143 22.2535 67.5283 22.4311Z" fill="#CAEFFF"/>
<path d="M69.5693 22.3886L69.335 22.5431C69.5157 22.6352 69.8409 22.4466 69.8397 22.3096C69.6917 22.3162 69.5331 22.1836 69.4771 22.2899C69.4934 22.3239 69.4713 22.3951 69.5693 22.3886Z" fill="#CAEFFF"/>
<path d="M73.0641 23.8507L73.2424 23.7388C72.5185 23.3771 71.6348 22.9661 71.3772 22.7261C71.144 22.566 70.9656 22.8269 70.6241 22.7666L70.5576 22.5156C70.3489 22.5452 69.8512 22.2098 69.9421 22.5781C69.9538 22.6121 70.1554 22.4641 70.2906 22.565L70.2243 22.668L70.5751 22.7622L70.4142 22.8565C70.7791 23.2336 70.9074 22.5781 71.4215 22.9376L71.2839 23.2007C71.6535 23.3574 71.8692 23.3827 72.086 23.6995C72.086 23.6995 72.1629 23.5734 72.0743 23.592C72.0242 23.5471 72.0078 23.4013 72.0941 23.3476C72.7434 23.4331 71.9239 23.4571 72.227 23.7608C72.7901 23.8079 73.7169 24.1828 73.7985 24.5402C73.7064 24.2639 74.1156 24.3023 74.3464 24.4711C74.3907 24.6279 74.1622 24.5631 74.0713 24.6124C74.1622 24.7089 74.2042 24.8262 74.3418 24.8634C74.2998 24.6409 74.5283 24.5204 74.8524 24.6124C74.3872 24.0918 73.6178 24.231 73.0641 23.8507Z" fill="#CAEFFF"/>
<path d="M73.3814 23.7456L73.2427 23.7389L73.4758 23.8804L73.3814 23.7456Z" fill="#CAEFFF"/>
</g>
<path d="M11.9074 37.5159C11.9028 38.5824 11.8048 39.0405 12.6605 39.5984C12.9764 39.8166 13.6083 39.8879 13.8834 39.7312C15.0014 39.3267 13.9872 37.7768 13.5081 37.323C13.7541 37.4304 15.835 39.1217 16.1556 36.7979C16.3701 35.2612 14.225 35.9067 13.5279 35.9605C14.5549 35.6568 14.6843 34.3009 14.5957 34.1573C14.6494 34.005 14.3789 32.7313 12.9322 33.4142C12.0858 33.7309 11.7512 34.6321 11.7151 35.4026C10.5878 32.6941 8.59899 35.1779 10.3721 36.5283C7.42855 36.8539 10.7731 40.7506 11.9074 37.5159Z" fill="#FF9A60"/>
<path d="M53.6261 31.7306C55.0612 32.4759 55.6127 32.9145 56.9486 32.2513C57.4616 32.0178 57.9873 31.2899 57.9651 30.8405C58.1796 29.1875 55.3958 29.3531 54.4585 29.6293C54.7674 29.398 58.47 28.017 55.5555 26.0067C53.6297 24.6749 53.0363 27.7627 52.6318 28.6571C52.9197 27.1839 51.1803 26.0812 50.9297 26.0878C50.7595 25.919 48.8569 25.3687 48.7905 27.6201C48.6412 28.8806 49.631 29.922 50.6464 30.4997C46.2211 30.0053 48.2158 34.1772 51.2503 32.9385C49.6765 36.7815 57.2179 35.3719 53.6261 31.7306Z" fill="#86D2FF"/>
<path fill-rule="evenodd" clip-rule="evenodd" d="M5.24498 11.7998C4.22959 12.1165 0.247293 11.2539 0.663476 9.42554C0.877979 8.49603 1.93884 8.4171 2.5637 8.67798C3.75629 9.17891 4.38812 10.6861 5.07243 11.3537C5.9456 12.201 7.36785 12.7469 8.43337 13.3147C9.62713 13.9504 10.7976 14.5499 11.8036 14.7571C11.335 14.4513 11.0867 13.5667 10.519 13.1304C9.97337 12.7084 9.10017 12.5506 8.4893 12.0902C6.65436 10.7069 6.20323 8.3009 8.79476 8.52999C11.2149 9.62392 10.0363 11.803 10.899 13.2115C12.8587 16.4188 17.0823 16.5921 19.7705 17.5282C19.0093 16.9976 18.7307 16.0955 17.9578 15.599C17.3248 15.1989 16.2219 15.1747 15.3837 14.6694C14.7087 14.2606 13.8776 13.5032 13.6538 12.9102C13.3437 12.11 14.2599 10.662 15.3395 10.7332C17.5358 10.879 18.5325 14.026 18.2411 15.4027C19.1423 16.1974 19.5969 17.265 20.5307 17.6914C21.3689 18.0772 22.3061 17.6531 23.107 18.1003C20.9142 18.3963 18.592 17.527 16.2907 16.8496C15.083 17.3056 13.8857 17.8668 12.6465 18.04C11.6836 19.3421 9.14913 20.5018 7.83063 19.2796C6.8234 18.3501 7.82014 17.1971 8.95678 17.0962C9.98966 16.9976 11.349 17.345 12.3807 17.835C13.5092 17.6212 14.9548 17.2332 15.8489 16.7169C13.9394 16.0088 12.0205 15.2526 10.0958 14.3834C8.63042 14.7582 7.13119 14.8284 5.6285 14.8394C4.41142 15.6034 1.94817 17.1554 0.584211 15.691C0.256627 15.3425 0.206448 14.631 0.546855 14.186C1.71147 12.6766 4.06402 13.8309 5.65881 14.5478C6.9365 14.5116 8.54992 14.6102 9.5793 14.2014C8.13956 13.4484 6.70221 12.6832 5.24498 11.7998ZM4.7087 11.3866C3.37271 10.6653 2.48907 10.2455 1.37458 9.13184C1.69051 9.96051 3.7003 11.2682 4.7087 11.3866ZM0.966519 14.6146C0.924551 14.7023 0.945554 14.8656 1.04465 14.7812C2.31418 15.0936 3.54291 15.0103 4.75765 14.801C3.73643 14.722 2.2139 14.9511 0.966519 14.6146ZM7.9834 9.06721C8.5896 10.1743 9.34381 11.2637 9.94652 12.3708C9.65391 11.2363 8.85656 10.1513 7.9834 9.06721ZM11.8456 18.0532C10.9258 17.9502 9.53851 18.4554 8.38556 18.1299C8.28646 18.1452 8.19206 18.2153 8.10229 18.325C9.37999 18.5234 10.6227 18.37 11.8456 18.0532ZM17.2618 14.8503C16.8946 13.6874 15.8372 12.5836 14.5537 11.4995C15.428 12.6175 16.5239 13.7224 17.2618 14.8503Z" fill="#A3BA3A"/>
<path fill-rule="evenodd" clip-rule="evenodd" d="M31.5756 5.89729C35.4739 7.86263 36.9113 11.7803 36.6712 15.8096C44.989 17.5996 44.0983 30.2433 34.413 30.1808C31.4741 36.6786 18.8254 36.877 18.1516 28.1124C10.1765 25.4554 10.0308 12.827 20.4983 12.4499C19.5855 6.82244 26.9078 3.53954 31.5756 5.89729Z" fill="#FFA888"/>
<path d="M31.8507 5.16503C31.9953 5.22754 32.0093 5.09052 32.0431 5.07736C31.7738 5.01266 31.8402 5.19903 31.8507 5.16503Z" fill="#FFA382"/>
<path d="M29.2883 4.76294L29.3419 4.71355L28.9561 4.81996L29.2883 4.76294Z" fill="#FFA382"/>
<path d="M26.957 4.77435C27.2018 4.97322 27.7825 4.57104 28.2115 4.73166L28.2791 4.78742L28.4737 4.61695C27.9491 4.56341 27.3114 4.75577 26.957 4.77435Z" fill="#FFA382"/>
<path d="M25.5836 4.49749C25.6909 4.56986 25.326 4.61921 25.8937 4.47447L25.8331 4.46135L25.5836 4.49749Z" fill="#FFA382"/>
<path d="M25.8329 4.46095C25.6452 4.41522 26.0894 4.41075 25.8329 4.46095V4.46095Z" fill="#FFA382"/>
<path d="M24.7209 4.87162L25.0076 4.67204C24.9237 4.64902 24.6334 4.7488 24.7255 4.67204C24.4107 4.8442 24.504 4.86505 24.7209 4.87162Z" fill="#FFA382"/>
<path d="M24.4922 5.14314L24.639 5.0489C24.6017 5.04123 24.5563 5.04884 24.4922 5.14314Z" fill="#FFA382"/>
<path d="M24.9551 4.84831L24.6392 5.04995C24.6998 5.06749 24.7312 5.13545 24.786 4.96445C24.7837 5.03899 24.8257 4.95135 24.9551 4.84831Z" fill="#FFA382"/>
<path d="M25.1616 4.80555C25.354 4.78363 25.5848 4.72883 25.3026 4.92504C25.8879 4.70034 25.7527 4.54797 25.1616 4.80555Z" fill="#FFA382"/>
<path d="M26.8763 5.0302L27.1176 5.05991L27.3088 4.95015C27.2132 5.00388 26.8506 4.95892 26.8763 5.0302Z" fill="#FFA382"/>
<path d="M22.7739 5.70428C22.7867 5.75801 22.9464 5.74715 23.0035 5.78553L23.1737 5.59692C23.0513 5.63969 22.8322 5.75362 22.7739 5.70428Z" fill="#FFA382"/>
<path d="M23.0038 5.78554L22.752 6.06385C23.0271 5.88409 23.0516 5.81842 23.0038 5.78554Z" fill="#FFA382"/>
<path d="M24.5472 5.40126L25.0275 5.01921L24.4434 5.44415L24.5472 5.40126Z" fill="#FFA382"/>
<path d="M21.5916 6.53992L21.6825 6.32913L21.5264 6.70676L21.5916 6.53992Z" fill="#FFA382"/>
<path d="M20.9878 7.28818C21.0123 7.10403 20.7151 7.36046 20.7745 7.19385C20.6171 7.41198 20.5437 7.63671 20.4819 7.83182C20.5799 7.64439 20.736 7.46794 20.9878 7.28818Z" fill="#FFA382"/>
<path d="M20.3677 8.15094L20.4819 7.83195L20.3677 8.15094Z" fill="#FFA382"/>
<path d="M22.2248 6.4047C22.1816 6.40032 22.0837 6.37294 21.8901 6.47163L22.107 6.48917L22.2248 6.4047Z" fill="#FFA382"/>
<path d="M22.1127 6.48816H22.1057C21.9763 6.57588 21.8865 6.63829 21.8457 6.66351C21.8807 6.64048 21.9611 6.58904 22.1127 6.48816Z" fill="#FFA382"/>
<path d="M22.2549 6.38499L22.2256 6.40443L22.2549 6.38499Z" fill="#FFA382"/>
<path d="M23.6168 5.63971C23.4804 5.82853 23.1773 6.14143 23.583 6.00421C23.6529 5.83954 23.4186 5.91855 23.6168 5.63971Z" fill="#FFA382"/>
<path d="M22.5176 6.41563L22.8487 6.22055C22.8207 6.19533 22.7297 6.19313 22.7915 6.10106L22.5176 6.41563Z" fill="#FFA382"/>
<path d="M22.3948 6.5562L22.5171 6.41579L22.3936 6.4882L22.3948 6.5562Z" fill="#FFA382"/>
<path d="M20.9083 7.69389L20.6216 8.16956L21.0785 7.67529C21.061 7.62487 21.0564 7.50317 20.9083 7.69389Z" fill="#FFA382"/>
<path d="M21.4707 7.07454L21.4531 7.10815L21.4707 7.07454Z" fill="#FFA382"/>
<path d="M19.8267 10.0281L19.8628 10.0054L19.8402 9.99246L19.8267 10.0281Z" fill="#FFA382"/>
<path d="M21.1241 7.66089C21.2512 7.54689 21.2861 7.45153 21.3118 7.35287L21.0786 7.674L21.1241 7.66089Z" fill="#FFA382"/>
<path d="M20.1788 8.70103L20.3594 8.46326C20.2871 8.52135 20.1566 8.65609 20.1788 8.70103Z" fill="#FFA382"/>
<path d="M21.3843 7.12568L21.3956 7.10294C21.338 7.12569 21.3538 7.13002 21.3843 7.12568Z" fill="#FFA382"/>
<path d="M21.3854 7.12593L21.312 7.35286L21.453 7.1084L21.3854 7.12593Z" fill="#FFA382"/>
<path d="M20.643 10.7422C20.4787 10.6994 20.397 10.2905 20.7001 10.0187C20.7211 9.68875 20.2198 9.75127 19.8643 10.0056C19.926 10.0286 19.9528 10.0417 19.9377 10.4056C20.0216 10.2884 20.3795 9.68434 20.3842 9.99674C20.2909 10.4505 20.1802 10.341 20.1091 10.5602C20.2781 10.398 20.3423 11.1784 20.5917 11.0929L20.5101 10.6993C20.5474 10.6971 20.6057 10.843 20.643 10.7422Z" fill="#FFA382"/>
<path d="M20.1323 9.33134L20.1732 9.17894C20.0858 9.33788 19.989 9.43759 19.8025 9.63708C19.7733 9.90454 19.8048 9.96493 19.8409 9.99233L20.1323 9.27327V9.33134Z" fill="#FFA382"/>
<path d="M20.4305 8.52351C20.5144 8.70327 20.441 9.06284 20.6648 8.92144C20.8315 8.51917 20.6334 8.56414 20.7488 8.32628C20.4352 8.97299 20.7347 8.08186 20.4468 8.52579L20.6205 8.1684L20.3582 8.46437L20.3734 8.45126L20.3745 8.44898H20.3768L20.3955 8.4534L20.3931 8.46879L20.4305 8.52351C20.3232 8.70985 20.3827 8.53883 20.3944 8.46758L20.378 8.44791L20.3745 8.45005L20.1729 9.17794C20.2486 9.03983 20.3151 8.85564 20.4305 8.52351Z" fill="#FFA382"/>
<path d="M23.448 6.46869L23.4117 6.45311C23.3848 6.49565 23.3778 6.51459 23.448 6.46869Z" fill="#FFA382"/>
<path d="M23.1653 6.56257C23.1944 6.51763 23.1944 6.44742 23.3377 6.36521C23.48 6.31808 23.3763 6.4212 23.4113 6.45299C23.4684 6.36749 23.6362 6.17236 23.3413 6.29403L23.3121 6.33899C23.0557 6.45846 22.6395 6.5362 22.6663 6.49126C22.8178 6.54168 22.9368 6.56915 23.1653 6.56257Z" fill="#FFA382"/>
<path d="M21.7304 7.4066L21.4121 7.90315L21.7012 7.7486L21.6313 7.71462C21.8656 7.47895 21.7479 7.47456 21.7304 7.4066Z" fill="#FFA382"/>
<path d="M19.73 10.0802L19.6064 9.96941L19.7114 10.3547L19.73 10.0802Z" fill="#FFA382"/>
<path d="M19.6516 10.8745L19.5176 10.832L19.5934 11.0515L19.6516 10.8745Z" fill="#FFA382"/>
<path d="M30.5381 33.0426L30.65 32.933L30.5381 33.0426Z" fill="#FFA382"/>
<path d="M12.4663 24.0753C12.4663 24.3515 12.4279 24.6979 12.5479 24.6036L12.6436 24.4688C12.5386 24.3208 12.4896 24.1903 12.4663 24.0753Z" fill="#FFA382"/>
<path d="M20.4211 32.8552L20.4047 32.7751L20.1914 32.7544L20.4211 32.8552Z" fill="#FFA382"/>
<path d="M20.9517 32.5484L21.1219 32.7906L20.9517 32.5484Z" fill="#FFA382"/>
<path d="M35.7591 29.1635L35.9107 29.0111C35.6391 29.0308 35.7696 29.0933 35.7591 29.1635Z" fill="#FFA382"/>
<path d="M14.3699 13.8649C14.1554 13.9746 13.9689 14.0534 13.8687 14.1817C14.1193 14.0304 14.4014 14.0042 14.3699 13.8649Z" fill="#FFA382"/>
<path d="M30.848 34.563C30.9389 34.4983 30.9692 34.4556 30.9506 34.4282C30.8562 34.4929 30.8083 34.5422 30.848 34.563Z" fill="#FFA382"/>
<path d="M13.4316 14.687L13.5389 14.6146L13.8688 14.1817C13.6893 14.2957 13.5004 14.4536 13.4316 14.687Z" fill="#FFA382"/>
<path d="M35.6753 12.9281L35.6789 12.8785L35.6753 12.9281Z" fill="#FFA382"/>
<path d="M33.6294 6.6272L33.8824 6.79827C33.8451 6.75989 33.7705 6.70615 33.6294 6.6272Z" fill="#FFA382"/>
<path d="M18.9233 11.7486C18.9478 11.7285 19.0935 11.7173 18.9233 11.7486V11.7486Z" fill="#FFA382"/>
<path d="M19.816 12.2022L19.7568 12.2778L19.816 12.2022Z" fill="#FFA382"/>
<path d="M13.3027 16.4746L13.2959 16.4854C13.3433 16.4605 13.3343 16.4637 13.3027 16.4746Z" fill="#FFA382"/>
<path d="M19.1919 11.7805L18.9668 11.7648C19.0029 11.7715 19.0718 11.776 19.1919 11.7805Z" fill="#FFA382"/>
<path d="M19.147 11.7182L19.2985 11.7159C19.316 11.6902 19.2939 11.6769 19.147 11.7182Z" fill="#FFA382"/>
<path d="M18.6855 11.783L18.9653 11.7651L18.9233 11.7483L18.6855 11.783Z" fill="#FFA382"/>
<path d="M41.8811 22.5396L41.8962 22.51C41.8391 22.3685 41.8473 22.431 41.8811 22.5396Z" fill="#FFA382"/>
<path d="M16.1542 26.3125L16.1362 26.308L16.1506 26.3258L16.1542 26.3125Z" fill="#FFA382"/>
<path d="M16.6441 26.5112C16.3585 26.5332 16.263 26.4442 16.1499 26.3246L16.0298 26.7385L16.6441 26.5112Z" fill="#FFA382"/>
<path d="M32.5467 31.4479L32.2284 31.621C32.3287 31.1716 32.5641 31.0127 32.2237 31.1289C32.5921 31.4928 31.3331 32.0321 31.5814 32.3894L31.3448 32.464L31.4403 32.3609C30.953 32.4552 31.354 32.7949 30.8003 33.0613C30.5998 33.1402 30.4436 33.1578 30.538 33.0416L30.1731 33.3408C30.0414 33.3857 30.0391 33.3047 30.1673 33.262L29.5191 33.5633V33.5502C29.4503 33.6488 29.2778 33.8517 29.1752 33.9141C28.9724 33.901 29.2498 33.8451 29.1845 33.8067L28.8244 34.0106C28.6308 33.9415 28.9211 33.7518 29.1927 33.7003C28.6891 33.377 28.9013 33.8867 28.0549 33.8483L28.4 33.6982C28.1086 33.525 27.8567 33.685 27.4207 33.5677C27.521 33.6466 28.3195 33.833 27.9209 34.0083C27.7926 33.9908 27.6306 33.9953 27.4103 34.1136C27.3858 33.9591 27.1666 34.026 26.8845 34.0731V33.8658C26.5907 33.9689 26.6175 34.0413 26.4403 34.1421C26.0941 34.1224 26.0241 33.9623 25.9483 33.8297C25.4109 33.8001 26.3191 34.0818 25.6709 34.1257C25.2174 34.0358 24.9085 34.0402 24.3302 34.1027C24.0295 33.981 24.4118 33.9909 24.3116 33.9141L24.0015 34.0018C23.9351 33.9788 23.97 33.935 23.9875 33.9141C23.7415 33.9097 23.9141 34.1092 23.5271 34.0577C23.3324 34.2594 22.8987 33.5348 22.3904 33.5458C22.3158 33.4471 22.5012 33.4582 22.507 33.3705C21.8495 33.2675 21.9637 33.2587 21.3983 33.148L21.1209 32.7906C21.3004 33.08 20.7933 33.0372 20.4191 32.8552C20.4529 32.9944 20.4715 33.1292 20.5146 33.1873L19.9784 32.8212C19.9504 32.7423 20.0518 32.7424 20.1894 32.7545L20.0705 32.7072C19.9714 32.4935 20.1498 32.5001 20.3456 32.5297L20.4016 32.7763C20.6009 32.796 20.7933 32.7895 20.8586 32.6777L20.686 32.5812L20.7793 32.5516C20.7816 32.522 20.707 32.5133 20.6021 32.4826L20.686 32.2282L20.5951 32.2689L20.2069 31.6506C19.7755 31.3404 19.0656 31.165 18.7007 30.3298C18.9479 30.4778 18.991 30.276 19.195 30.2179C19.0679 30.5139 19.4934 30.8045 19.7161 31.1618C19.6135 30.9601 19.7313 30.9578 19.7907 30.9885L19.2672 30.3934C19.4339 30.3484 19.3302 30.1938 19.3267 29.9889C19.0784 30.2311 18.8534 29.5351 18.7508 29.2248C18.8697 29.1799 18.9665 29.2424 19.0446 29.6129C19.1845 29.1591 18.5492 29.1525 18.6821 28.6943L18.7566 28.8697C18.6179 28.6659 18.604 28.1157 18.7275 28.234L18.7462 28.3282C17.8287 26.8276 16.8308 27.2299 16.5452 27.0655C16.5615 27.0337 16.8087 26.8365 16.8693 26.8113L15.2896 26.8715C15.5356 26.752 15.6161 26.101 16.1348 26.3103C16.0194 26.2117 15.9215 26.0517 15.6336 25.8927C15.6814 25.9848 15.574 26.3213 15.454 26.2358C15.3607 25.7732 15.3537 25.9399 15.1835 25.4587C15.2581 25.5979 14.8314 25.7327 14.6647 25.5332C14.7359 25.5288 14.9492 25.2887 15.0401 25.3314L14.3663 25.0597C14.5167 25.1474 14.6461 24.8996 14.6578 24.7363C14.6368 24.8218 14.3419 24.3252 14.237 24.2013L14.3033 24.4557C13.9956 23.8583 13.5013 24.1027 13.1784 23.4582C13.295 23.5075 13.7182 23.4625 13.6156 23.1392C13.3929 23.069 12.4906 22.7644 12.1467 22.1418L12.2353 21.9938L12.0278 21.5159C12.3367 21.8096 13.1702 22.4838 13.555 22.7984C13.562 22.5331 13.6611 22.6931 13.5328 22.3424C13.5946 22.1922 13.7508 22.4903 13.7893 22.5911L13.6063 21.7669C13.3871 21.8524 13.2763 21.1629 13.0921 21.2188C13.2367 21.5203 13.3171 21.8272 13.506 22.1013C13.2705 22.2087 12.7389 21.7033 12.6841 21.0413C12.7482 20.8703 13.1096 21.118 13.1842 21.0928C13.0805 21.0259 12.9464 20.5228 13.0257 20.4614L13.1481 20.7157C13.2344 20.3748 12.8427 20.1611 13.0607 19.7457C13.0618 19.5999 13.3673 19.3456 13.2472 19.3127C12.9453 19.51 12.1409 19.5264 11.9602 19.3346C11.9858 19.2765 12.3426 18.5301 12.4976 18.3865C12.7389 18.1826 12.9207 18.8403 13.1282 18.6605C13.0665 18.643 13.0117 18.4983 12.9965 18.438C13.0758 18.2988 13.1703 18.5366 13.2087 18.2111C13 18.1058 13.45 17.5797 13.0688 18.016C13.1131 17.6882 13.2309 17.7014 13.3451 17.3353C13.1679 17.4099 12.9511 16.8212 13.1015 16.4902C13.1446 16.5308 13.253 16.4945 13.3031 16.477C13.6459 15.85 13.9642 15.6057 14.413 15.1245C14.4958 15.1113 14.7475 14.9183 14.7359 15.0838C14.7662 14.9895 14.7522 14.8613 14.9154 14.7397C15.3572 14.6366 14.5925 15.0389 14.9888 15.0158C14.9107 14.9106 15.2605 14.5774 15.4342 14.3352C15.2407 14.2453 14.8595 14.7101 14.7324 14.9666C14.4911 14.7627 14.6951 14.2497 15.2116 13.6775C15.6452 13.2577 15.5251 13.671 15.5823 13.5745C16.5953 13.1415 16.1815 12.6647 17.1677 12.5255C17.5909 12.5836 17.3099 12.8445 17.4358 12.9388C16.9986 13.1076 16.7189 13.0988 16.4274 13.2445L16.818 13.1394C16.7084 13.261 16.4543 13.4386 16.2771 13.4715C16.5848 13.409 17.9662 12.7864 18.8207 12.771C18.9548 12.6987 19.1985 12.611 19.0667 12.5551L18.8056 12.6088C18.5305 12.5014 19.2708 12.3622 18.9199 12.337C19.2626 12.1999 19.6613 11.9982 20.1894 12.018L20.299 12.2044C20.2861 12.1485 19.9551 12.1255 19.8163 12.2022C20.1964 11.9172 20.5112 12.6494 20.1638 12.1594C20.3176 12.0443 19.6112 12.9278 20.4727 11.9994C19.4608 12.7118 19.8944 11.4941 19.765 11.2606C19.5552 11.4678 19.7884 11.3636 19.5424 11.7034C19.842 11.4042 19.5296 12.9168 19.8455 12.418C21.0054 10.992 19.6695 12.0367 19.5272 11.5982C19.5494 11.6607 19.7021 11.7035 19.2988 11.7177L19.2206 11.7845L19.1927 11.7823L19.2171 11.7868L19.2253 11.7889L19.4421 11.8634C19.2684 12.041 18.6435 12.086 18.4594 12.2164C18.2274 12.2504 18.5352 12.1177 18.3965 12.0859L18.1202 12.2854C18.0549 12.1528 17.4417 12.2296 17.9628 11.9917L17.4673 12.1265C17.1549 12.1484 16.7212 12.1956 16.5218 12.3874C16.2864 12.4685 16.0474 12.8072 16.1814 12.6099L15.51 13.0528L15.4843 13.0254C14.8163 13.4561 14.2812 14.0874 13.5409 14.6158C13.4069 14.8449 13.2448 15.0587 12.9639 15.393L12.8088 15.3996C12.6829 15.7076 12.1886 16.2238 12.2446 16.4058C11.7794 16.6053 11.5463 17.8999 11.4624 18.4589L11.6314 18.5081C11.5743 18.8961 11.5043 19.2743 11.6034 19.7588L11.7573 19.7358C11.8961 20.1402 11.6046 20.7914 11.7678 21.4359C11.7025 21.4019 11.692 21.2342 11.7072 21.1147C11.4484 21.9588 12.2574 22.6778 12.2691 23.3969C12.374 23.5471 12.3985 23.673 12.4265 23.7947L12.3996 23.7586L12.4312 23.8255L12.4696 24.0776L12.4486 23.8595L12.7552 24.3263L12.6468 24.4721L12.6736 24.5127C12.7121 24.7199 12.817 24.6223 12.8788 24.4743L13.0886 24.6672C12.9161 24.9456 13.4489 25.0695 13.3428 25.3928C13.5503 25.4246 14.0271 26.1853 14.3547 26.056C14.3302 26.0834 14.3594 26.1349 14.2801 26.0625C14.4165 26.2379 14.5575 26.4178 14.7627 26.5033L14.6857 26.7104L15.2372 26.8584C15.3747 27.1434 15.4598 27.2541 15.0938 27.2025C15.8644 27.436 15.6568 27.4743 16.3097 27.6267L16.2118 27.7166C16.3936 27.8536 16.8005 27.858 16.8739 27.9951C16.7573 28.0784 18.2542 28.7404 17.6434 28.4751C17.7483 29.1536 17.8462 29.922 18.0152 30.5413C18.3008 30.1818 18.0607 31.1541 18.3661 31.0894C18.3055 31.1924 18.3241 31.3831 18.1737 31.222C18.5736 31.7525 18.5806 32.1538 19.0388 32.4015C19.0038 32.5166 18.8476 32.3565 18.8395 32.4442C18.8884 32.4781 19.0155 32.5834 19.0283 32.6601C19.033 32.7412 18.8907 32.6371 18.8068 32.5637C19.2743 33.0942 19.568 32.9407 19.7953 32.8081C19.9341 33.1271 20.0705 33.2444 20.3596 33.2861C20.3992 33.4099 20.4878 33.6094 20.1439 33.3671C20.3001 33.5316 21.2561 34.3032 21.3855 34.1443C21.4193 34.2232 21.6746 34.2967 21.741 34.3032C22.2143 34.5301 22.2447 34.5816 22.732 34.757L22.6107 34.6782C22.894 34.5192 23.0374 34.7471 23.4454 34.8348L23.4268 34.8568C24.2988 35.2854 23.8313 34.9017 24.7231 35.2383L24.6951 35.0793C24.8222 34.7603 25.4879 35.4048 26.0544 35.2415L25.8597 35.1538C26.1454 35.0322 26.6979 35.6251 27.0197 35.6251C27.0908 35.6426 26.9194 35.6898 26.8262 35.7129C27.655 35.8159 26.9148 35.5013 27.5 35.3808C27.6247 35.475 27.3939 35.6744 27.8054 35.6415C28.0444 35.7336 28.8826 35.0782 29.4655 35.1253C29.3198 35.076 29.181 35.0267 29.4247 34.8963C29.8106 34.7746 30.615 34.7767 30.8528 34.4018L30.9553 34.4314C31.213 34.2319 31.8005 33.8133 31.8751 33.605C32.4918 33.8944 33.2391 32.2282 33.5445 32.5406L34.1601 31.7833L34.1869 31.8326C34.5914 31.3492 34.5518 31.0686 34.5576 30.8373C34.6602 30.7321 34.652 30.8416 34.6707 30.8625C33.9607 30.6827 35.2548 30.8087 35.6266 30.458L35.7281 30.6104C35.9135 30.5611 37.12 30.6258 37.9477 30.1698L37.8824 30.2772C38.7533 29.7631 40.3713 29.4376 40.2478 28.7185L40.6092 28.1572C40.0146 28.7437 40.4961 27.8943 40.1953 28.0784C40.3749 27.8263 40.8867 27.584 40.6465 27.8942L40.5812 27.9216C40.7246 28.2296 41.3751 27.2277 41.4905 27.3286C42.4488 25.9694 43.0433 24.3998 43.0561 22.8455L42.7997 23.0165L42.83 22.4914C42.8918 22.35 43.0305 22.2942 43.0095 22.6778C43.1797 22.4707 42.8533 22.042 42.7973 22.042C42.7997 21.2923 43.1261 22.3051 43.1028 22.0804L43.0422 21.768L43.0212 21.8404C42.886 21.5981 42.7764 21.5915 42.7263 21.1378C42.7158 20.8462 42.8405 20.9646 42.8207 20.8506C42.8393 20.8462 42.8358 20.8078 42.7752 20.6773L42.5887 20.0142L42.4826 20.3332C42.3007 20.0767 42.3019 19.7292 42.1841 20.0909C42.4511 19.5088 41.093 17.8318 40.9309 17.6016C40.5474 17.3594 40.1919 17.1259 39.8118 16.762C39.8864 16.8771 39.8025 17.0875 39.4842 16.785C39.8981 16.5153 38.878 16.2326 38.695 15.7766C38.9235 16.0529 37.4325 15.3338 37.8113 15.7986C37.4593 15.6506 37.8498 15.6395 37.6026 15.4554L36.8868 15.2888C37.6469 16.3181 37.099 15.1693 37.2809 15.2033C37.3019 14.7111 37.3334 14.184 37.2763 13.66C37.2156 13.649 37.1328 13.831 37.0326 13.615L37.3019 13.0286C37.2482 12.8225 36.9859 12.8829 37.0687 12.4828C37.0349 12.5453 36.9836 12.6329 36.923 12.5025C36.7248 10.3804 35.3492 8.5872 34.0808 6.79066C34.2464 7.05154 34.0726 6.93645 33.8849 6.80163C33.9864 6.91124 33.7801 6.90238 33.7486 6.97691L33.1482 6.26454C32.8766 6.3347 32.3298 5.68903 32.1363 5.80413L32.3928 5.94328C31.9544 5.92574 32.5105 6.70071 32.2634 6.91336C32.7716 6.94076 32.8089 7.82317 33.611 7.91086C33.6774 8.03692 33.4373 7.90865 33.442 8.00292C33.6973 7.98319 33.808 8.14866 33.9619 8.47859L33.9118 8.46548C34.4585 9.28976 34.715 9.65368 35.0799 10.6687L35.2058 10.5317C35.2548 10.7673 35.2221 10.8331 35.2163 10.9537C35.5252 11.1335 35.0356 10.307 35.3585 10.4506C35.1417 10.8682 35.8516 12.0838 35.5532 12.3688C35.6593 12.713 35.7047 12.2295 35.812 12.5781L35.7409 12.6878L35.8971 12.7546C35.967 12.9858 35.7992 13.1339 35.7269 13.1503L35.6768 12.9322C35.5905 13.2512 35.7607 13.7949 35.7316 13.9045L35.7782 13.5493L35.8994 15.1463C36.2375 15.6724 35.2163 15.131 36.691 16.5274L37.4604 16.6733L37.4149 16.5833C38.21 16.671 37.9407 16.8771 38.6996 17.1939H38.6635C38.8418 17.2169 39.0843 17.2662 39.2359 17.4361C39.0272 17.3714 39.4177 17.811 39.1543 17.7124C39.8526 18.1125 39.5239 17.8713 40.1394 18.0335L40.1207 18.2111C40.32 18.2812 40.376 18.2582 40.6639 18.5662C40.3655 18.3623 40.6686 18.8765 40.3201 18.6649C40.6453 19.4169 41.2002 19.6065 41.051 20.0822C41.5581 20.2981 40.889 19.3675 41.0603 19.5297C41.0755 19.3138 41.4474 19.7095 41.5465 19.9682C41.6479 20.2334 41.2678 20.559 41.4777 21.1762L41.4136 21.0523C41.4205 21.2989 41.6374 21.5038 41.536 21.825C41.7703 21.9708 41.5767 22.2141 41.8542 22.2426L41.7085 21.6343C41.8006 21.9664 42.246 22.2832 42.0373 22.885C41.9837 22.8378 41.9172 22.6647 41.8822 22.5463C41.7971 22.7173 41.923 22.874 41.8356 23.0494C41.5709 22.9957 41.817 22.2975 41.5208 21.9533C41.4346 22.1331 41.8041 22.6251 41.494 22.4585C41.8577 22.715 41.4217 23.0943 41.6957 23.5547L41.5348 23.512C41.5663 23.5843 41.6117 23.7344 41.5803 23.8627L41.4182 23.6106C41.522 23.9833 41.1245 24.2507 41.1571 24.5948C41.2888 23.901 41.3786 24.4798 41.5546 24.2036C41.5943 25.1452 41.0324 24.6124 40.7782 25.5353C40.8027 25.4071 41.0475 25.1068 41.0441 25.3238C40.9426 25.4882 40.8015 25.6987 40.6791 25.7667C40.369 26.3279 40.8832 25.7513 40.826 26.0275C40.5323 26.1327 40.7281 26.3377 40.6255 26.6271L40.4844 26.546C40.0006 27.1302 40.6605 26.9012 40.1114 27.3703L40.1289 27.0195L39.9353 27.3188L39.8409 27.15C39.6765 27.5029 39.6148 27.6279 39.2627 27.801C39.4131 27.8284 39.4248 28.0388 39.1438 28.2548C38.8943 28.3238 39.152 28.0576 38.7777 28.37C38.8069 28.222 38.8186 28.0576 39.0797 28.0444L39.082 27.8559C38.815 27.9184 38.5819 28.2001 38.4467 28.3075L38.6134 28.2241C38.4921 28.4423 38.2951 28.5683 38.1214 28.7448C37.992 28.7404 38.048 28.6615 38.1028 28.5847C37.9827 28.6593 37.9303 28.7645 37.7437 28.8697C37.7356 28.7327 37.6679 28.6187 37.8941 28.4433L37.373 28.8543C37.3193 28.8412 36.9895 28.8029 37.0582 28.7448C36.6875 28.7404 36.2748 29.2436 35.7502 29.1986C35.7269 29.226 35.6791 29.2524 35.5753 29.2776C34.7966 29.6053 35.3399 28.4422 33.4618 30.1039L33.1015 30.2519C32.9488 30.6268 33.5679 30.0383 33.3056 30.6762C33.1249 31.1432 33.0515 30.7364 32.8964 30.8384C32.8439 31.0762 32.7448 31.5553 32.3053 31.78L32.5467 31.4479ZM27.9349 34.0106C28.0363 33.97 28.2135 33.8033 28.3114 33.8779C28.2368 34.0774 28.1249 34.0325 27.9349 34.0106ZM20.0728 32.0606C20.1719 32.0836 20.2348 32.1867 20.2873 32.3259L20.0728 32.0606ZM17.1188 12.3238L17.1082 12.3348C16.8156 12.3578 16.9206 12.3523 17.1188 12.3238ZM17.7004 12.223C17.7494 12.1868 17.7389 12.1671 17.7086 12.1528C17.6818 12.2022 17.5571 12.2405 17.4113 12.2723C17.4638 12.2986 17.5454 12.3052 17.7004 12.223ZM42.7414 20.8023L42.7309 20.9142C42.6131 20.6949 42.675 20.7486 42.7414 20.8023Z" fill="#FFA382"/>
<path d="M20.8909 32.5833L20.8618 32.6776C20.9084 32.6874 20.9294 32.6645 20.8909 32.5833Z" fill="#FFA382"/>
<path d="M35.7314 29.191H35.7483L35.7585 29.1636L35.7314 29.191Z" fill="#FFA382"/>
<path d="M13.2411 18.4895L13.1279 18.6584C13.1676 18.6716 13.2084 18.6331 13.2411 18.4895Z" fill="#FFA382"/>
<path d="M19.499 12.3556L19.5223 12.5397L19.5293 12.5847C21.384 10.4779 20.0166 12.007 20.4188 11.5401L20.3267 11.5597L20.4421 11.5488C18.6561 13.6314 19.9536 12.0739 19.5596 12.5211L19.5981 12.3818C19.5585 12.395 19.5036 12.4718 19.499 12.3556Z" fill="#FFA382"/>
<path d="M20.9051 9.49587L20.9365 9.35003L20.8608 9.33464C20.792 9.52975 20.799 9.68221 20.9051 9.49587Z" fill="#FFA382"/>
<path d="M20.0456 11.9731C20.1843 11.937 20.1388 11.7264 20.1167 11.4853V11.5281C19.9232 11.4525 19.9838 11.7177 20.0456 11.9731Z" fill="#FFA382"/>
<path d="M20.112 11.4292V11.2045C20.0339 11.1717 20.0933 11.2966 20.112 11.4292Z" fill="#FFA382"/>
<path d="M18.3856 11.9369C18.5127 11.9369 18.4241 11.7462 18.5057 11.7912C18.5978 11.5763 17.7491 12.2109 18.3856 11.9369Z" fill="#FFA382"/>
<path d="M20.5051 11.7604L20.3325 11.85L20.4689 11.9702L20.5051 11.7604Z" fill="#FFA382"/>
<path d="M19.3153 12.4652H19.7082L19.8049 12.3983C19.566 12.4202 19.2978 12.418 19.3153 12.4652Z" fill="#FFA382"/>
<path d="M19.8047 12.3983L20.1159 12.3357L19.8047 12.3983Z" fill="#FFA382"/>
<path d="M20.5506 12.2514L20.5145 12.3632C20.5495 12.4805 20.3933 12.4706 20.3198 12.4749C20.483 12.5232 20.581 12.3796 20.5506 12.2514Z" fill="#FFA382"/>
<path d="M15.4129 13.8464L15.1133 14.1422C15.1179 14.2113 15.2299 14.1653 15.3348 14.0546C15.3884 13.9636 15.498 13.8508 15.4129 13.8464Z" fill="#FFA382"/>
<path d="M16.7388 13.6194L16.522 13.5887L16.6106 13.7707L16.7388 13.6194Z" fill="#FFA382"/>
<path d="M15.7538 14.2146C15.755 14.2847 15.417 14.6882 15.7888 14.3769C15.7842 14.3089 16.0616 14.0304 15.7538 14.2146Z" fill="#FFA382"/>
<path d="M12.5734 18.9795L12.5874 18.8819L12.2388 18.849L12.5734 18.9795Z" fill="#FFA382"/>
<path d="M14.238 23.683C14.1167 23.2697 13.9967 23.6786 13.9127 23.2895C13.7892 23.2292 13.9839 23.6084 13.8696 23.5415C14.0701 23.7454 14.0876 23.8868 14.238 23.683Z" fill="#FFA382"/>
<path d="M13.8688 23.5426L13.7568 23.4417L13.8688 23.5426Z" fill="#FFA382"/>
<path d="M32.7392 5.75147L32.499 5.49269L32.6156 5.71521L32.7392 5.75147Z" fill="#FFA382"/>
<path d="M32.0747 5.57748L32.1202 5.35139L31.8579 5.39835C31.9244 5.43441 32.0549 5.50427 32.0747 5.57748Z" fill="#FFA382"/>
<path d="M27.0659 33.6981L27.0508 33.7518C27.1009 33.799 27.1674 33.7946 27.3015 33.7858L27.0659 33.6981Z" fill="#FFA382"/>
<path d="M30.7336 32.6855L30.6753 32.714L30.8875 32.8126L30.7336 32.6855Z" fill="#FFA382"/>
<path d="M32.7741 30.4887L32.5806 30.8098C32.7379 30.607 32.9909 30.5786 32.7741 30.4887Z" fill="#FFA382"/>
<path fill-rule="evenodd" clip-rule="evenodd" d="M22.9593 12.2065C24.8082 9.99457 25.9437 10.7104 27.289 11.4448C28.2554 8.39101 22.3834 9.57695 22.9593 12.2065Z" fill="#FCDCD5"/>
<path fill-rule="evenodd" clip-rule="evenodd" d="M18.4031 16.5692C15.1027 17.4066 14.1141 21.7527 16.5553 24.0085C15.7742 21.802 15.2251 18.1597 18.4031 16.5692Z" fill="#F5F5F3"/>
<path fill-rule="evenodd" clip-rule="evenodd" d="M35.1976 23.5162C36.5336 21.2538 35.3281 18.4358 33.1982 18.6111C34.4654 19.3335 36.178 20.9239 35.1976 23.5162Z" fill="#FCDCD5"/>
<path fill-rule="evenodd" clip-rule="evenodd" d="M22.859 19.9857C23.7706 20.2728 25.0424 19.3587 24.0876 18.2494C22.4427 17.1796 21.4495 19.7807 22.859 19.9857Z" fill="#BE1E2D"/>
<path fill-rule="evenodd" clip-rule="evenodd" d="M27.515 18.4665C27.4007 18.2012 27.6082 18.0576 27.1571 17.6695C24.4874 17.0963 26.0787 20.6565 27.515 18.4665Z" fill="#BE1E2D"/>
<path fill-rule="evenodd" clip-rule="evenodd" d="M29.6709 17.31C28.8269 16.8793 28.0645 17.5688 28.3676 18.1344C28.4586 19.1724 30.7878 18.1102 29.6709 17.31Z" fill="#404751"/>
<path fill-rule="evenodd" clip-rule="evenodd" d="M27.7822 20.5601C27.9909 21.6628 29.4808 21.0029 29.7256 20.4187C30.1196 19.9112 29.9832 19.4595 29.2476 19.3542C28.1961 19.3115 28.1669 19.8345 27.7822 20.5601Z" fill="#404751"/>
<path fill-rule="evenodd" clip-rule="evenodd" d="M24.4233 21.2539C24.6122 21.9072 24.927 22.2602 25.3035 22.474C26.5521 22.2197 26.8808 21.6924 26.531 20.7377C26.1767 19.9671 24.6437 20.7399 24.4233 21.2539Z" fill="#404751"/>
<path fill-rule="evenodd" clip-rule="evenodd" d="M22.0371 21.8808C22.3775 23.4307 23.8067 22.5078 23.9781 21.7438C23.6412 21.0741 22.184 20.3759 22.0371 21.8808Z" fill="#404751"/>
<path fill-rule="evenodd" clip-rule="evenodd" d="M27.3647 22.6042C27.5338 23.503 27.3915 23.1949 27.9604 23.9381C28.956 24.5443 29.5261 23.0733 29.1845 22.2019C28.7112 22.0287 27.465 21.6539 27.3647 22.6042Z" fill="#404751"/>
<path fill-rule="evenodd" clip-rule="evenodd" d="M24.5108 25.9244C25.6264 26.4232 26.8307 25.5046 26.6616 24.7658C26.13 22.4201 22.8391 23.9635 24.5108 25.9244Z" fill="#404751"/>
<path fill-rule="evenodd" clip-rule="evenodd" d="M36.8461 19.1898C36.5616 19.3017 36.6502 19.1767 36.3646 19.2885C38.5889 21.5454 38.456 24.7559 35.2583 26.0877C39.1532 27.4874 39.7862 20.4723 36.8461 19.1898Z" fill="#E85E52"/>
<path fill-rule="evenodd" clip-rule="evenodd" d="M31.2909 21.6879C30.0797 22.0792 30.0448 23.3573 30.7489 23.467C31.706 23.3146 31.3784 23.4373 32.1688 22.9145C32.3191 22.2743 32.016 21.4435 31.2909 21.6879Z" fill="#404751"/>
<path fill-rule="evenodd" clip-rule="evenodd" d="M21.4999 29.3267C21.086 28.9332 21.4462 29.1788 21.1292 29.352C19.8888 32.4902 23.7545 33.4022 26.1152 33.0339C24.785 31.9257 21.6677 33.3067 21.4999 29.3267Z" fill="#F5F5F3"/>
<path fill-rule="evenodd" clip-rule="evenodd" d="M29.2871 24.6727C28.9373 24.0479 28.1854 24.4666 27.8706 25.2317C28.0898 26.8386 30.18 25.8324 29.2871 24.6727Z" fill="#BE1E2D"/>
<path fill-rule="evenodd" clip-rule="evenodd" d="M24.4246 29.3903C23.9665 32.4561 31.7819 32.4244 32.8113 28.6132C30.51 30.7352 26.6886 31.4203 24.4246 29.3903Z" fill="#E85E52"/>
<path fill-rule="evenodd" clip-rule="evenodd" d="M26.7876 8.81945C29.9014 8.96523 32.6468 11.6299 32.8811 14.2595C34.849 12.3457 30.1007 6.68311 26.7876 8.81945Z" fill="#E85E52"/>
<path fill-rule="evenodd" clip-rule="evenodd" d="M9.76018 30.6674L9.49791 30.8493C8.98264 31.1299 8.48013 31.2922 8.01265 31.3009C5.16582 31.9235 1.94128 31.2154 0.125 28.2822C2.43208 27.4447 5.24745 27.0557 7.11619 26.5098C7.78884 26.4627 8.47318 26.3509 9.11902 26.4539C9.87444 26.8112 13.0908 26.7948 12.4718 28.6461C12.0358 29.3115 10.7208 30.4317 9.76018 30.6674Z" fill="#A3BA3A"/>
<path fill-rule="evenodd" clip-rule="evenodd" d="M41.0089 7.92393C40.5542 8.22537 40.1905 8.70337 39.8944 9.30733C39.8536 9.42462 39.8128 9.5386 39.7732 9.65589C39.0154 10.4933 38.5782 12.4236 38.654 13.3553C39.4386 15.5585 42.5699 13.5032 43.5818 13.3684C44.2917 13.0648 44.8735 12.5189 45.4948 12.0454C46.9089 10.3223 49.3699 8.15968 50.9985 5.87099C47.008 4.15446 43.3195 5.50261 41.0089 7.92393Z" fill="#A3BA3A"/>
<path fill-rule="evenodd" clip-rule="evenodd" d="M48.4126 13.7838C48.0093 13.7663 47.5838 13.8627 47.1431 14.038C47.0673 14.0786 46.9927 14.117 46.9192 14.1554C46.0974 14.2814 44.8313 15.7798 44.4688 16.2336C43.9745 17.5205 46.7491 17.6465 47.4135 17.9359C47.972 18.0323 48.5537 17.9808 49.1354 17.9764C50.736 17.6684 53.1515 17.5116 55.1217 17.0129C53.4838 14.8568 50.8538 13.4561 48.4126 13.7838Z" fill="#668C0C"/>
</svg>
