<svg width="330" height="175" viewBox="0 0 330 175" fill="none" xmlns="http://www.w3.org/2000/svg">
<path d="M330 150.45L328.739 150.553L328.37 150.765L330 150.45Z" fill="#DBE23F"/>
<path d="M323.956 150.792L321.837 151.32C323.184 151.523 321.513 151.708 324.899 151.375C326.036 151.065 328.596 150.534 328.226 150.405C327.382 150.549 326.174 150.899 324.92 151.085C325.422 150.842 326.772 150.637 327.372 150.372C325.31 150.541 326.119 150.682 323.884 151.025L323.956 150.792Z" fill="#DBE23F"/>
<path d="M321.568 151.805C321.736 151.678 321.916 151.549 321.861 151.494C321.684 151.623 320.695 151.974 321.568 151.805Z" fill="#DBE23F"/>
<path d="M320.307 152.172C318.986 152.51 320.271 151.992 320.129 152.009L318.743 152.721L320.307 152.172Z" fill="#DBE23F"/>
<path d="M314.925 153.861L314.348 154.107C314.574 154.076 314.721 153.976 314.925 153.861Z" fill="#DBE23F"/>
<path d="M312.387 154.928C312.945 154.815 313.546 154.471 314.348 154.107L314.258 154.12C313.495 154.316 314.08 153.851 315.285 153.467C316.5 152.962 316.482 153.235 317.508 152.735L315.95 153.061C314.001 153.784 313.073 154.539 312.387 154.928Z" fill="#DBE23F"/>
<path d="M314.925 153.861L315.609 153.591C315.289 153.671 315.093 153.769 314.925 153.861Z" fill="#DBE23F"/>
<path d="M317.609 152.959L318.266 152.707L318.067 152.667L317.609 152.959Z" fill="#DBE23F"/>
<path d="M308.305 156.983C308.407 156.562 311.21 155.485 311.429 155.163C309.788 155.922 308.418 156.475 308.666 156.133C308.082 156.466 307.529 156.843 306.975 157.213C306.468 157.651 307.338 157.396 308.305 156.983Z" fill="#DBE23F"/>
<path d="M304.528 158.46C304.437 158.554 304.32 158.65 304.184 158.757C304.355 158.623 304.501 158.509 304.528 158.46Z" fill="#DBE23F"/>
<path d="M297.548 165.473C298.465 164.286 299.428 163.131 300.474 162.013C300.242 162.374 300.437 162.322 299.713 163.064C301.191 161.682 301.266 161.395 302.571 160.327C303.161 160.203 300.331 162.26 301.256 161.811C302.126 161.023 303.493 159.906 304.113 159.17C304.658 158.833 305.244 158.551 305.804 158.241L305.07 158.358C304.354 158.712 303.962 159.442 303.436 159.568C303.152 159.613 303.751 159.127 304.168 158.773C303.233 159.557 301.27 160.603 299.534 162.397C297.718 164.265 298.561 164.135 297.548 165.473Z" fill="#DBE23F"/>
<path d="M297.147 165.395L296.844 165.551L297.121 165.492L297.147 165.395Z" fill="#DBE23F"/>
<path d="M294.541 169.545C294.865 168.844 295.265 168.172 295.679 167.512C295.859 167.327 296.002 167.255 296.158 167.154C296.039 167.184 296.322 166.619 296.21 166.663C295.274 167.35 294.516 169.014 294.002 170.153C292.687 173.293 293.859 169.924 293.13 171.102C293.499 170.179 293.57 170.16 294.253 169.028C293.588 169.853 292.947 170.901 292.897 172.182C292.676 173.723 294.687 174.624 295.379 174.377C294.894 174.256 294.783 174.305 293.898 173.849C294.455 174.167 295.044 174.225 295.569 174.2C294.806 174.09 293.808 173.792 293.579 172.831C293.39 171.925 293.791 170.88 294.541 169.545Z" fill="#DBE23F"/>
<path d="M297.009 166.187C296.445 166.853 296.26 167.115 296.167 167.147C296.382 167.016 296.586 166.799 297.009 166.187Z" fill="#DBE23F"/>
<path d="M296.22 174.334C296.042 174.323 295.766 174.358 295.378 174.377C295.574 174.397 295.822 174.376 296.22 174.334Z" fill="#DBE23F"/>
<path d="M294.681 173.944C295.303 174.086 295.928 174.079 296.522 173.994C296.286 174.008 296.036 173.957 295.803 173.932C295.562 174.013 294.66 173.878 294.681 173.944Z" fill="#DBE23F"/>
<path d="M293.858 124.272C293.969 124.408 294.532 124.704 295.756 125.27C295.531 125.337 293.989 124.538 293.158 124.399C294.791 125.076 293.058 124.551 293.42 124.832C295.199 125.587 296.127 125.741 297.859 126.874C297.748 126.857 297.74 126.931 297.936 127.112C300.132 128.281 303.262 131.117 304.367 133.174C305.582 135.049 306.374 136.505 307.276 138.758C309.813 146.298 309.493 154.885 306.605 162.905C306.58 163.317 306.543 163.728 306.483 164.135C306.19 164.478 305.689 166.033 305.579 165.733C305.831 165.325 305.957 164.896 306.167 164.374C305.247 165.983 304.142 168.836 302.568 170.532C302.771 170.365 303.231 170.215 302.838 170.786C302.774 170.475 300.917 172.856 299.92 172.74C297.676 173.559 300.002 173.116 297.58 173.845C297.406 174.102 299.921 173.279 300.414 173.015C299.719 173.633 298.231 173.826 298.395 173.996C303.375 173.032 306.258 165.793 307.578 160.603L307.605 161.213C308.355 158.423 309.092 153.876 309.465 151.59C309.334 152.129 309.631 147.356 309.159 147.794C309.223 147.071 309.222 146.852 309.137 145.825L308.975 145.562C308.835 144.102 309.034 144.318 308.74 142.65C308.745 143.766 308.5 142.566 308.239 142.118C308.01 140.207 307.498 137.988 306.881 136.339C306.881 136.486 306.882 136.652 307.048 137.227C306.634 136.119 306.553 136.364 306.369 136.097C305.841 135.082 306.087 135.102 306.229 135.103C305.277 133.187 304.309 132.626 303.423 131.313L303.634 131.84C302.225 130.158 300.992 128.716 298.919 127.288C298.076 126.391 300.766 128.319 301.55 129.01C301.245 128.598 300.393 127.919 300.157 127.654C299.243 127.042 297.563 126.216 296.316 125.677C297.642 126.019 294.692 124.574 293.858 124.272Z" fill="#DBE23F"/>
<path d="M300.156 127.655C300.437 127.821 300.671 127.959 300.813 128.034C300.606 127.895 300.409 127.765 300.118 127.529C300.07 127.532 300.095 127.582 300.156 127.655Z" fill="#DBE23F"/>
<path d="M293.858 124.272L293.819 124.228C293.568 124.157 293.637 124.189 293.858 124.272Z" fill="#DBE23F"/>
<path d="M304.529 133.436L304.367 133.173L304.15 132.844L304.529 133.436Z" fill="#DBE23F"/>
<path d="M306.214 134.607C306.372 135.055 306.677 135.638 306.88 136.338C306.868 136.121 306.908 135.929 306.214 134.607Z" fill="#DBE23F"/>
<path d="M309.526 148.646C309.574 149.087 309.63 148.832 309.687 149.138C309.678 148.228 309.589 147.92 309.526 148.646Z" fill="#DBE23F"/>
<path d="M297.856 126.041C297.288 125.712 296.72 125.386 296.102 125.144L295.424 124.879C296.261 125.218 297.089 125.577 297.856 126.041Z" fill="#DBE23F"/>
<path d="M259.278 126.47C260.962 126.125 263.307 125.305 265.37 124.885C269.105 123.935 265.723 124.328 269.33 123.587L268.799 124.116C272.4 123.404 277.579 122.927 280.697 122.515C280.972 122.553 281.627 122.585 280.674 122.69C283.122 122.566 281.975 122.109 285.273 122.43C282.165 122.459 286.249 122.747 285.365 122.949L284.887 122.938C286.953 123.113 289.675 123.534 290.986 123.938C291.076 123.861 289.967 123.377 291.754 123.86C291.048 123.61 291.372 123.602 291.472 123.505C289.56 123.158 288.576 122.793 287.381 122.792C286.347 122.487 288.109 122.86 287.067 122.555L285.517 122.444C284.385 122.285 286.705 122.43 284.941 122.22C284.728 122.286 283.28 122.267 281.902 122.146L282.302 122.127C281.17 122.133 279.732 122.206 280.238 122.392L278.976 122.219L279.208 122.367C276.328 122.489 275.183 122.154 271.514 122.887C272.404 122.809 271.608 123.009 271.14 123.105C272.696 123.009 273.015 122.688 274.477 122.522C274.713 122.634 272.269 123.134 274.053 123.007C272.083 123.092 270.403 123.515 269.5 123.296C267.163 123.704 266.345 124.053 263.998 124.547L264.046 124.475C263.687 124.807 262.122 124.853 260.52 125.609L261.749 125.313C261.727 125.432 261.14 125.607 260.334 125.862C260.414 125.795 260.414 125.795 260.132 125.823C259.943 126.07 257.441 126.977 257.149 127.132C258.22 126.816 259.441 126.175 260.695 125.768C260.095 126.063 260.339 126.135 259.278 126.47Z" fill="#DBE23F"/>
<path d="M283.076 122.093L282.301 122.127C282.615 122.135 282.904 122.129 283.076 122.093Z" fill="#DBE23F"/>
<path d="M249.452 130.238C248.11 130.873 249.715 129.914 248.441 130.475C247.196 131.303 250.107 129.9 248.93 130.755C248.071 131.092 246.922 131.986 246.403 132.285C246.91 131.862 246.432 131.839 246.164 131.931C245.731 132.292 244.574 132.856 243.755 133.377C245.837 132.206 242.164 134.554 244.047 133.508C244.021 133.73 242.256 135.034 241.479 135.501C241.456 135.379 242.042 134.953 242.536 134.621C242.787 134.171 241.244 135.392 240.856 135.472C239.145 136.933 234.059 141.81 235.898 140.745C236.504 140.287 236.855 139.754 237.453 139.205C235.704 140.68 237.245 139.042 237.336 138.858C238.104 138.238 239.303 137.063 239.133 137.427L238.077 138.56C241.84 135.315 247.576 131.445 252.963 129.06C252.191 129.408 251.409 129.741 250.663 130.135C250.852 129.881 251.932 129.354 252.761 128.928L251.468 129.179C252.153 128.893 252.776 128.562 252.775 128.683C253.533 128.199 253.125 128.297 252.579 128.428C254.299 127.573 254.668 127.617 255.956 126.874C252.861 127.84 253.528 128.048 250.118 129.433L249.452 130.238Z" fill="#DBE23F"/>
<path d="M255.72 127.219L255.071 127.643L256.13 127.14L255.72 127.219Z" fill="#DBE23F"/>
<path d="M254.882 128.274C254.819 128.226 255.241 128.027 255.176 127.981C253.78 128.487 253.987 128.505 254.882 128.274Z" fill="#DBE23F"/>
<path d="M239.333 136.641L237.935 137.876L238.912 137.139C238.836 137.111 239.169 136.798 239.333 136.641Z" fill="#DBE23F"/>
<path d="M231.11 146.439C232.541 144.411 233.11 143.476 235.201 141.497C236.009 140.35 234.44 141.733 234.709 141.179C233.693 142.195 234.079 142.269 233.182 143.419C232.664 143.726 231.832 145.091 231 146.203C231.167 146.102 231.24 146.146 231.11 146.439Z" fill="#DBE23F"/>
<path d="M229.546 152.443C230.342 151.27 229.818 150.076 229.762 149.202C229.921 149.294 230.108 149.975 230.103 150.689C230.376 150.211 229.946 149.397 229.742 148.168C229.757 148.277 229.826 148.733 229.68 148.408C228.587 145.51 228.951 146.813 227.016 143.306C226.646 142.844 226.289 142.389 226.201 142.552C225.011 140.608 225.732 141.518 224.064 139.291C224.071 139.424 224.484 140.244 224.29 140.358C221.894 137.277 221.493 137.485 219.751 135.682C219.973 135.858 220.276 136.042 220.775 136.504C220.736 136.088 219.125 135.139 218.012 134.277L218.286 134.172C217.219 133.39 215.197 132.267 213.837 131.304L214.237 131.394C211.189 129.816 207.487 128.214 204.609 127.468L203.127 126.899C199.126 126.035 207.016 128.035 204.01 127.607C203.726 127.053 201.96 127.161 199.739 126.561C198.708 126.165 202.053 126.952 200.918 126.509C200.352 126.646 199.702 126.265 198.449 126.182C198.757 126.009 195.889 125.792 196.681 125.66C195.213 125.611 193.741 125.663 192.29 125.711C191.595 125.585 190.327 125.595 189.4 125.619C191.746 125.64 188.764 125.931 191.385 126.05C195.175 125.951 201.61 126.698 206 128.452C206.617 128.32 208.843 129.477 209.621 129.593C209.678 129.72 209.968 129.933 210.023 130.059C212.768 131.293 209.475 129.6 210.179 129.83C211.41 130.35 212.25 131.011 212.084 131.037C213.981 132.042 212.354 131.067 213.403 131.464L214.421 132.438C220.147 135.667 227.054 141.816 229.173 148.719L229.224 148.154C229.619 149.682 230.218 151.074 229.439 152.377C229.178 152.702 228.92 152.885 228.439 152.984C227.816 153.058 227.631 152.37 227.704 152.088C227.777 151.381 228.05 150.737 228.461 150.114C228.527 149.785 228.616 149.462 228.717 149.142C228.564 149.67 229.277 148.769 229.022 149.587C229.35 148.767 229.894 147.979 230.35 147.179C230.008 147.617 229.708 148.076 229.397 148.534C229.797 147.451 230.627 146.435 230.994 146.208C232.256 144.088 229.798 147.206 229.386 147.634C228.654 149.222 228.231 149.979 227.804 150.769C227.605 151.178 227.376 151.548 227.327 152.216C227.227 152.38 227.421 153.408 228.439 153.378C229.191 153.213 229.399 153.136 229.879 152.522C230.695 150.125 229.725 152.722 229.546 152.443Z" fill="#DBE23F"/>
<path d="M228.866 150.053C228.93 149.852 228.983 149.701 229.022 149.586L228.866 150.053Z" fill="#DBE23F"/>
<path d="M189.4 125.619C189.123 125.608 188.791 125.631 188.352 125.667C188 125.749 188.564 125.648 189.4 125.619Z" fill="#DBE23F"/>
<path d="M231 146.203L230.993 146.208L230.981 146.229L231 146.203Z" fill="#DBE23F"/>
<path d="M231.546 144.588L230.976 145.328L231.155 145.249L231.546 144.588Z" fill="#DBE23F"/>
<path d="M178.91 126.504L178.922 126.61C179.009 126.56 179.038 126.52 178.91 126.504Z" fill="#DBE23F"/>
<path d="M152.574 136.215L153.109 135.946C152.937 136.017 152.748 136.117 152.574 136.215Z" fill="#DBE23F"/>
<path d="M91.6275 163.464C89.884 164.03 87.5398 164.716 86.2708 165.209L86.3661 165.074C85.4255 165.359 82.3561 166.253 84.4158 165.963L84.8778 165.759C87.1161 165.071 86.58 165.521 88.3815 165.139C90.5023 164.523 91.5867 163.804 93.478 163.336C94.2955 163.082 94.2047 163.221 93.9924 163.367C95.8721 162.825 96.4854 162.303 97.7462 161.852C98.5668 162.451 103.333 159.737 106.216 159.171C107.892 158.464 110.185 157.651 112.255 156.616C111.208 157.268 114.281 155.8 113.915 156.194C114.304 155.539 120.115 153.746 120.2 153.035C123.125 151.885 120.302 152.952 123.647 151.563C123.677 151.624 123.125 151.883 122.914 151.991C124.277 151.494 124.778 150.841 125.983 150.571C128.609 149.362 126.347 150.218 127.801 149.343C130.539 148.086 129.822 148.53 131.436 148.005C131.527 147.643 133.208 146.961 134.433 146.175C134.103 146.326 132.25 147.194 133.385 146.502C136.522 144.969 135.776 145.085 138.627 143.533C140.262 143.045 135.743 145.028 138.42 143.93C136.667 144.999 135.266 145.694 134.401 146.389C136.886 145.154 139.856 143.564 142.46 142.051C143.969 141.311 141.777 142.575 142.966 141.988C145.69 140.718 146.863 139.577 149.056 138.583L148.702 138.953C149.885 138.09 153.41 136.534 155.83 135.195C155.475 135.281 155.233 135.34 155.537 135.129C155.713 135.515 158.87 133.17 161.581 132.394C161.271 132.278 163.63 131.004 165.245 130.419C165.839 130.274 165.762 130.417 165.784 130.482C163.089 131.289 163.406 131.753 161.441 132.691C163.037 131.806 165.901 130.825 167.337 130.138L166.832 130.54C169.217 129.677 168.74 129.347 171.363 128.741L171.166 128.956C176.284 127.31 182.577 126.442 186.871 125.898C187.248 125.767 185.024 125.575 184.897 125.538C182.31 125.932 180.863 126.341 178.956 126.837L178.923 126.61C178.507 126.824 176.216 127.4 177.529 127.247C176.007 127.731 176.303 127.337 174.549 127.902C174.615 127.638 175.683 127.348 175.648 127.151L174.119 127.649C174.579 127.44 173.147 127.806 173.597 127.597C170.854 128.729 169.535 128.601 166.715 129.822L168.339 129.268C168.375 129.398 167.452 129.724 166.781 130.014C165.921 130.132 165.465 130.319 163.953 130.803C162.761 131.433 162.183 131.945 160.513 132.662C160.737 132.26 157.685 133.767 157.284 133.756C157.061 134.137 154.185 135.396 154.041 135.64C153.204 136.125 152.013 136.712 151.95 136.587C152.074 136.516 152.311 136.365 152.575 136.216L151.711 136.652C151.777 136.584 151.737 136.58 151.832 136.525C151.065 136.916 151.159 137.079 150.11 137.482C150.083 137.418 150.611 137.146 151.03 136.897C148.976 137.915 147.685 139.088 145.88 139.772C145.616 140.048 143.28 141.287 143.937 141.251C143.254 141.499 143.369 141.196 141.68 142.12C140.828 142.827 139.724 143.043 138.51 143.839C140.11 142.738 138.479 143.78 139.869 142.799C138.652 143.322 137.085 144.483 135.024 145.483C134.791 145.539 134.758 145.479 134.518 145.539C133.8 145.993 133.027 146.592 132.192 146.797L132.37 146.892C130.929 147.518 129.011 148.52 127.415 149.091L125.812 150.203C123.279 151.048 120.227 152.77 118.453 153.861C117.564 154.238 116.207 154.765 116.185 154.702C116.378 154.591 116.703 154.398 117.093 154.182C115.789 154.746 114.109 155.26 113.496 155.8C112.184 156.433 112.426 156.05 111.405 156.426C108.846 157.892 103.189 159.332 102.559 160.128C103.704 159.719 105.906 159.029 108.047 158.172C107.504 158.453 107.993 158.381 107.204 158.695C105.05 159.547 103.85 159.771 101.699 160.628L101.824 160.215C97.9475 161.207 94.8004 163.067 91.6275 163.464Z" fill="#DBE23F"/>
<path d="M119.322 153.145L117.715 153.666L117.951 153.728C118.411 153.498 118.889 153.281 119.322 153.145Z" fill="#DBE23F"/>
<path d="M117.951 153.728C117.645 153.88 117.352 154.036 117.093 154.18C117.429 154.038 117.748 153.891 118.006 153.746L117.951 153.728Z" fill="#DBE23F"/>
<path d="M85.1576 165.225C84.7909 165.297 84.0722 165.439 83.3677 165.646C83.8493 165.574 84.8066 165.363 85.1576 165.225Z" fill="#DBE23F"/>
<path d="M83.2676 165.778L84.1119 165.636L84.2203 165.569L83.2676 165.778Z" fill="#DBE23F"/>
<path d="M34.1846 165.353C33.3035 165.127 32.4062 164.93 31.5292 164.678C31.1292 164.416 28.2101 163.437 29.2178 163.627C27.6044 163.259 24.5455 161.577 25.5497 162.431C32.7149 165.809 43.5917 168.893 52.9705 169.005C52.4682 169.018 51.9628 169.053 51.4595 169.048C56.3083 169.114 58.1184 169.67 61.9978 169.013L61.4894 169.323C63.7227 169.338 65.7028 168.717 68.0369 168.8L67.7888 168.703C68.4015 168.646 68.6507 168.681 69.2675 168.619L69.0163 168.591C70.607 168.281 71.5885 168.211 73.1772 168.051C73.3043 168.127 72.4454 168.198 71.9617 168.29C72.7016 168.28 73.908 167.912 75.1265 167.728C76.1039 167.645 75.1401 167.86 75.0181 167.922C78.6519 167.196 80.3828 167.149 82.8334 166.172C83.0629 166.041 81.856 166.229 83.1633 165.911C80.751 166.296 78.8587 166.858 76.6854 167.346L77.2962 167.244C75.6364 167.938 75.9587 167.407 73.1727 167.985C73.8878 167.709 75.1094 167.537 75.5799 167.354C72.286 167.551 70.9727 168.268 68.7596 168.091L69.0017 168.057C68.511 168.062 67.6601 168.219 66.9283 168.324C67.1735 168.356 67.9017 168.317 68.396 168.314C67.6591 168.419 67.2975 168.639 67.0494 168.742C66.1925 168.637 65.9459 168.925 64.5887 168.917C64.0999 168.775 65.6997 168.688 66.1895 168.564L64.5887 168.784C63.116 168.894 63.124 168.68 62.3882 168.613C61.152 168.788 63.125 168.681 62.1234 168.902C60.5327 168.826 53.7699 168.824 50.5391 168.612C51.6557 168.686 50.9461 168.479 52.2937 168.604C51.806 168.548 50.0831 168.456 50.0508 168.593C47.8085 168.515 45.0159 168.003 43.0031 167.504L43.5624 167.744C41.7896 167.64 39.2669 166.742 36.2842 166.004L36.3472 166.025C35.3865 165.787 34.4524 165.857 32.7558 165.205C33.302 165.216 34.2239 165.536 34.1846 165.353Z" fill="#DBE23F"/>
<path d="M24.0774 161.605L25.0679 161.868C24.0996 161.379 22.7716 160.962 22.9139 161.164C23.568 161.485 24.4163 161.955 24.5903 161.925C24.4889 161.846 24.5323 161.793 24.0774 161.605Z" fill="#DBE23F"/>
<path d="M7.43053 150.36C7.11229 150.128 7.12994 150.245 6.96956 150.171C10.0925 153.011 14.4158 156.025 15.7518 157.073C16.943 157.892 17.3097 157.846 18.9115 158.719L19.5076 159.292C20.4028 159.724 22.9594 161.296 22.1948 160.534C22.108 160.452 21.344 160.264 20.6399 159.801L20.8184 159.78L19.1299 158.832L19.7396 159.032C17.5871 157.547 17.9104 158.413 15.2716 156.554L15.4708 156.355C13.7223 155.106 12.7691 154.553 11.4114 153.263C11.4114 153.263 11.3039 153.355 11.6262 153.533C11.9011 153.765 12.1916 154.131 11.9384 154.039C9.22701 152.215 12.4428 154.22 10.7436 152.761C8.45135 151.202 4.48666 147.777 3.64642 146.527C4.43472 147.525 2.89949 146.334 1.8913 145.199C1.49942 144.631 2.3553 145.451 2.58478 145.574C2.13036 145.041 1.79748 144.579 1.28002 144.084C1.78134 144.851 1.20589 144.543 0 143.387C2.31748 146.167 4.72673 147.906 7.43053 150.36Z" fill="#DBE23F"/>
<path d="M6.45257 149.784C6.73904 150.034 6.87976 150.13 6.96953 150.171L5.88721 149.189L6.45257 149.784Z" fill="#DBE23F"/>
<path d="M16.7734 122.446C17.2595 128.786 27.1818 125.561 21.0251 121.164C23.0678 121.629 25.286 121.856 26.8115 120.216C29.7668 117.506 26.3346 115.393 25.8888 115.403C25.5916 115.109 22.4398 114.826 20.3181 116.494C22.1778 115.815 24.4548 110.716 20.2686 110.1C13.9499 109.175 16.6752 114.956 16.7474 115.567C15.9573 114.195 12.7266 110.868 10.7636 113.042C10.1339 113.544 9.80566 114.984 10.1222 115.835C10.8795 118.115 12.1599 118.22 14.9456 118.97C5.57917 119.187 13.5317 128.71 16.7734 122.446Z" fill="#FF9670" stroke="#FF9670" stroke-width="0.505"/>
<path d="M10.1383 12.1954C5.01392 15.8074 12.0266 18.2227 12.5843 12.9182C12.7575 13.824 12.9176 15.3053 14.1141 15.5919C16.1824 16.2415 16.3452 14.7144 16.2451 14.5403C16.3417 14.3661 15.9475 12.784 14.51 12.5351C15.4654 12.5227 18.4718 13.0576 17.9367 11.2737C17.1257 8.57616 14.5831 10.7861 14.2707 10.9326C14.8433 10.3492 15.9649 8.42012 14.3882 8.06088C13.9853 7.90775 13.1438 8.05797 12.7514 8.34827C11.682 9.09215 11.8917 9.62273 12.0683 10.8783C8.36752 6.35473 6.10336 12.1207 10.1383 12.1954Z" fill="#D6DE23"/>
<path d="M313.378 54.5978C312.672 62.1257 321.494 58.8472 316.328 53.3417C317.45 54.0664 319.171 55.3528 320.544 54.6745C323.077 53.6474 321.593 52.0595 321.318 51.9723C321.218 51.7298 319.18 50.5334 317.633 51.4409C318.47 50.6705 321.718 48.7858 319.335 47.51C315.735 45.5818 315.83 49.7144 315.709 50.1031C315.596 49.0909 314.534 46.3571 312.745 47.2689C312.223 47.4425 311.635 48.2551 311.597 48.847C311.438 50.4082 312.191 50.7477 313.687 51.8057C305.568 50.4335 309.705 57.74 313.378 54.5978Z" fill="#F2AECB"/>
<path d="M303.041 9.5747C308.391 6.69541 303.741 -0.300423 299.721 6.2622C299.882 4.27861 299.261 1.87129 297.037 0.775931C293.281 -1.43176 292.098 1.73069 292.196 2.14221C291.906 2.47632 291.805 5.98446 294.536 7.09339C292.625 6.73144 286.934 4.38721 287.001 8.38291C287.106 14.4233 293.411 10.7672 294.113 10.5825C292.647 11.5821 289.332 15.226 292.271 16.6188C292.982 17.1064 294.743 17.1295 295.685 16.6691C298.233 15.5228 298.116 14.3154 298.475 11.5882C300.501 20.2261 311.043 11.3573 303.041 9.5747Z" fill="#FFC400"/>
</svg>
