<svg width="1018" height="142" viewBox="0 0 1018 142" fill="none" xmlns="http://www.w3.org/2000/svg">
<path d="M1017.84 93.8515L1015.34 94.0545L1014.61 94.4759L1017.84 93.8515Z" fill="#DBE23F"/>
<path d="M1005.86 94.5283L1001.66 95.5752C1004.33 95.9787 1001.01 96.3452 1007.73 95.6856C1009.98 95.0703 1015.06 94.018 1014.32 93.761C1012.65 94.0478 1010.26 94.7418 1007.77 95.1101C1008.77 94.6278 1011.44 94.2216 1012.63 93.6969C1008.54 94.0316 1010.15 94.3102 1005.71 94.9915L1005.86 94.5283Z" fill="#DBE23F"/>
<path d="M1001.12 96.5378C1001.46 96.2863 1001.81 96.0294 1001.7 95.9209C1001.35 96.176 999.392 96.8735 1001.12 96.5378Z" fill="#DBE23F"/>
<path d="M998.621 97.2654C996.002 97.9349 998.551 96.9088 998.269 96.9414L995.521 98.353L998.621 97.2654Z" fill="#DBE23F"/>
<path d="M987.951 100.614L986.806 101.103C987.255 101.04 987.547 100.843 987.951 100.614Z" fill="#DBE23F"/>
<path d="M982.918 102.729C984.025 102.506 985.217 101.824 986.807 101.103L986.629 101.127C985.115 101.515 986.275 100.594 988.664 99.8324C991.074 98.8316 991.037 99.3736 993.072 98.3819L989.984 99.0271C986.119 100.46 984.279 101.959 982.918 102.729Z" fill="#DBE23F"/>
<path d="M987.951 100.615L989.306 100.078C988.672 100.238 988.283 100.431 987.951 100.615Z" fill="#DBE23F"/>
<path d="M993.273 98.8253L994.574 98.3251L994.181 98.2462L993.273 98.8253Z" fill="#DBE23F"/>
<path d="M974.824 106.804C975.027 105.97 980.584 103.833 981.019 103.195C977.765 104.7 975.048 105.797 975.54 105.12C974.382 105.78 973.286 106.526 972.188 107.26C971.183 108.129 972.908 107.623 974.824 106.804Z" fill="#DBE23F"/>
<path d="M967.336 109.734C967.156 109.918 966.924 110.11 966.654 110.323C966.992 110.056 967.283 109.83 967.336 109.734Z" fill="#DBE23F"/>
<path d="M953.496 123.639C955.314 121.283 957.223 118.995 959.297 116.777C958.838 117.492 959.225 117.389 957.789 118.862C960.719 116.121 960.869 115.552 963.455 113.434C964.625 113.189 959.014 117.267 960.848 116.377C962.573 114.815 965.284 112.6 966.514 111.14C967.594 110.473 968.756 109.913 969.866 109.299L968.411 109.53C966.991 110.232 966.214 111.68 965.171 111.929C964.608 112.019 965.796 111.056 966.622 110.352C964.768 111.908 960.876 113.983 957.434 117.538C953.834 121.243 955.505 120.986 953.496 123.639Z" fill="#DBE23F"/>
<path d="M952.701 123.483L952.101 123.792L952.65 123.676L952.701 123.483Z" fill="#DBE23F"/>
<path d="M947.535 131.711C948.176 130.322 948.969 128.99 949.791 127.68C950.148 127.315 950.432 127.171 950.74 126.97C950.504 127.03 951.066 125.91 950.844 125.998C948.987 127.36 947.485 130.66 946.465 132.917C943.858 139.143 946.182 132.463 944.736 134.799C945.468 132.969 945.609 132.932 946.963 130.687C945.645 132.323 944.373 134.4 944.275 136.941C943.837 139.995 947.824 141.782 949.195 141.293C948.234 141.053 948.015 141.15 946.259 140.246C947.364 140.877 948.532 140.991 949.573 140.942C948.059 140.724 946.081 140.133 945.626 138.228C945.252 136.431 946.047 134.36 947.535 131.711Z" fill="#DBE23F"/>
<path d="M952.427 125.053C951.31 126.375 950.943 126.893 950.759 126.958C951.185 126.698 951.588 126.268 952.427 125.053Z" fill="#DBE23F"/>
<path d="M950.863 141.206C950.511 141.185 949.963 141.256 949.195 141.293C949.582 141.332 950.074 141.291 950.863 141.206Z" fill="#DBE23F"/>
<path d="M947.812 140.433C949.046 140.716 950.285 140.702 951.462 140.533C950.995 140.561 950.499 140.459 950.036 140.409C949.558 140.57 947.771 140.303 947.812 140.433Z" fill="#DBE23F"/>
<path d="M946.181 41.9456C946.4 42.2161 947.517 42.8033 949.943 43.9253C949.498 44.0574 946.441 42.4731 944.793 42.1989C948.031 43.5408 944.594 42.5002 945.313 43.0576C948.84 44.5541 950.68 44.8581 954.114 47.1057C953.893 47.0722 953.878 47.2188 954.266 47.5771C958.621 49.8952 964.827 55.5176 967.018 59.5964C969.426 63.3143 970.997 66.2006 972.786 70.6695C977.815 85.6196 977.181 102.645 971.454 118.547C971.405 119.363 971.331 120.179 971.212 120.986C970.632 121.665 969.638 124.749 969.421 124.154C969.921 123.344 970.169 122.494 970.587 121.458C968.763 124.648 966.571 130.305 963.45 133.668C963.852 133.337 964.764 133.041 963.985 134.172C963.858 133.555 960.176 138.277 958.2 138.047C953.751 139.67 958.362 138.792 953.561 140.237C953.215 140.747 958.202 139.115 959.18 138.592C957.801 139.818 954.852 140.199 955.176 140.537C965.051 138.626 970.766 124.273 973.383 113.982L973.438 115.192C974.924 109.66 976.385 100.644 977.126 96.1108C976.866 97.1803 977.454 87.7169 976.519 88.5856C976.646 87.1514 976.644 86.718 976.476 84.6813L976.154 84.1593C975.877 81.2639 976.271 81.6927 975.687 78.3847C975.697 80.5979 975.212 78.2192 974.695 77.3307C974.24 73.5414 973.226 69.1422 972.002 65.8713C972.002 66.1636 972.004 66.492 972.334 67.633C971.512 65.4352 971.352 65.921 970.986 65.3926C969.939 63.3794 970.427 63.4202 970.709 63.4211C968.822 59.6227 966.902 58.5108 965.145 55.9068L965.563 56.9517C962.77 53.6175 960.325 50.7574 956.215 47.9263C954.543 46.1484 959.877 49.9702 961.432 51.3401C960.827 50.524 959.137 49.1776 958.67 48.6528C956.857 47.4386 953.527 45.8009 951.055 44.7323C953.683 45.41 947.834 42.5445 946.181 41.9456Z" fill="#DBE23F"/>
<path d="M958.668 48.6537C959.225 48.984 959.688 49.2564 959.969 49.4048C959.559 49.1306 959.168 48.8719 958.592 48.405C958.496 48.4104 958.547 48.5099 958.668 48.6537Z" fill="#DBE23F"/>
<path d="M946.181 41.9456L946.103 41.8597C945.605 41.7184 945.742 41.7809 946.181 41.9456Z" fill="#DBE23F"/>
<path d="M967.338 60.1159L967.017 59.5956L966.586 58.9424L967.338 60.1159Z" fill="#DBE23F"/>
<path d="M970.679 62.4375C970.992 63.3261 971.597 64.4816 971.999 65.8704C971.976 65.4407 972.056 65.0588 970.679 62.4375Z" fill="#DBE23F"/>
<path d="M977.246 90.274C977.342 91.1489 977.453 90.6431 977.566 91.2502C977.547 89.446 977.371 88.8335 977.246 90.274Z" fill="#DBE23F"/>
<path d="M954.107 45.4544C952.982 44.8012 951.855 44.1551 950.63 43.6755L949.286 43.1489C950.945 43.8221 952.586 44.5343 954.107 45.4544Z" fill="#DBE23F"/>
<path d="M877.615 46.3041C880.955 45.62 885.605 43.995 889.695 43.1625C897.101 41.2787 890.394 42.0578 897.547 40.5884L896.494 41.6361C903.633 40.2255 913.902 39.2801 920.084 38.4621C920.629 38.5381 921.928 38.6005 920.039 38.8086C924.893 38.5634 922.619 37.6568 929.158 38.2947C922.994 38.3517 931.092 38.9218 929.34 39.3235L928.393 39.3018C932.489 39.6474 937.885 40.4826 940.485 41.2842C940.663 41.1304 938.464 40.1722 942.008 41.1286C940.608 40.6346 941.25 40.6182 941.449 40.4246C937.658 39.7378 935.707 39.014 933.336 39.0122C931.287 38.4068 934.781 39.1461 932.715 38.5426L929.641 38.3227C927.397 38.007 931.996 38.2938 928.5 37.8776C928.076 38.0079 925.205 37.9707 922.473 37.7301L923.266 37.6931C921.022 37.7057 918.17 37.8505 919.174 38.2178L916.672 37.8757L917.131 38.169C911.422 38.4115 909.151 37.7472 901.877 39.2004C903.641 39.0447 902.063 39.4411 901.135 39.632C904.221 39.4429 904.852 38.806 907.752 38.4757C908.219 38.6983 903.373 39.6899 906.91 39.4375C903.004 39.6058 899.674 40.4445 897.883 40.0102C893.25 40.8209 891.627 41.5122 886.975 42.4912L887.069 42.3482C886.358 43.0078 883.255 43.0974 880.079 44.5976L882.515 44.0112C882.472 44.2465 881.308 44.5931 879.71 45.0979C879.868 44.9658 879.868 44.9659 879.308 45.022C878.935 45.5106 873.974 47.3092 873.394 47.6169C875.517 46.9907 877.939 45.7196 880.425 44.9125C879.236 45.4979 879.72 45.6408 877.615 46.3041Z" fill="#DBE23F"/>
<path d="M924.802 37.626L923.265 37.693C923.888 37.7093 924.461 37.6966 924.802 37.626Z" fill="#DBE23F"/>
<path d="M858.134 53.775C855.474 55.0354 858.655 53.1326 856.13 54.2446C853.661 55.8868 859.433 53.1054 857.099 54.801C855.396 55.4679 853.117 57.2421 852.089 57.8339C853.095 56.9951 852.146 56.95 851.614 57.1328C850.757 57.8475 848.462 58.9668 846.839 59.9991C850.966 57.6765 843.683 62.3326 847.417 60.2597C847.366 60.6994 843.866 63.2845 842.325 64.211C842.28 63.9686 843.442 63.1243 844.421 62.4656C844.919 61.5735 841.86 63.9947 841.091 64.1522C837.698 67.0494 827.614 76.719 831.259 74.609C832.462 73.6997 833.157 72.6429 834.343 71.5553C830.876 74.4796 833.931 71.2323 834.111 70.8668C835.634 69.6371 838.011 67.3081 837.674 68.0302L835.58 70.2768C843.041 63.841 854.414 56.1691 865.096 51.4397C863.565 52.1292 862.014 52.7897 860.535 53.5714C860.91 53.0665 863.051 52.0224 864.695 51.1782L862.131 51.675C863.49 51.1086 864.725 50.4526 864.723 50.6914C866.225 49.7323 865.416 49.9269 864.334 50.1874C867.744 48.4909 868.477 48.5778 871.031 47.1057C864.894 49.0202 866.217 49.4328 859.455 52.1789L858.134 53.775Z" fill="#DBE23F"/>
<path d="M870.562 47.7888L869.275 48.6293L871.375 47.6323L870.562 47.7888Z" fill="#DBE23F"/>
<path d="M868.9 49.8807C868.775 49.7866 869.611 49.3913 869.482 49.2999C866.714 50.3033 867.125 50.3386 868.9 49.8807Z" fill="#DBE23F"/>
<path d="M838.07 66.4712L835.297 68.9205L837.235 67.4584C837.084 67.4032 837.744 66.7824 838.07 66.4712Z" fill="#DBE23F"/>
<path d="M821.767 85.8992C824.603 81.8773 825.732 80.0225 829.878 76.1002C831.48 73.8246 828.368 76.567 828.903 75.4686C826.887 77.4827 827.653 77.631 825.874 79.9093C824.847 80.5183 823.198 83.2254 821.548 85.4304C821.879 85.2295 822.023 85.3165 821.767 85.8992Z" fill="#DBE23F"/>
<path d="M818.666 97.802C820.244 95.4775 819.205 93.1096 819.094 91.3769C819.408 91.5596 819.78 92.9096 819.77 94.3257C820.311 93.3774 819.459 91.7632 819.053 89.3257C819.084 89.5419 819.221 90.4458 818.93 89.8025C816.764 84.057 817.485 86.6403 813.649 79.6868C812.915 78.7694 812.208 77.8681 812.032 78.1911C809.673 74.3358 811.102 76.1418 807.796 71.7254C807.81 71.9896 808.628 73.6156 808.243 73.84C803.493 67.7325 802.698 68.1451 799.243 64.5693C799.684 64.9177 800.284 65.2842 801.274 66.1989C801.196 65.3746 798.003 63.4936 795.795 61.7835L796.34 61.5763C794.223 60.0254 790.215 57.7987 787.518 55.8895L788.311 56.0678C782.268 52.9381 774.928 49.7631 769.221 48.2837L766.282 47.1554C758.35 45.4417 773.993 49.4083 768.034 48.5596C767.47 47.4603 763.968 47.6739 759.565 46.4849C757.52 45.7005 764.153 47.2594 761.903 46.3818C760.78 46.6541 759.491 45.8978 757.008 45.7331C757.617 45.3911 751.932 44.9604 753.502 44.6989C750.59 44.6002 747.672 44.7034 744.795 44.8003C743.418 44.5496 740.904 44.5704 739.066 44.6166C743.716 44.6582 737.804 45.2354 743 45.4716C750.516 45.2743 763.275 46.7555 771.98 50.2336C773.203 49.973 777.617 52.2667 779.158 52.4965C779.271 52.749 779.846 53.1697 779.955 53.4203C785.398 55.8678 778.869 52.511 780.264 52.9661C782.705 53.9967 784.371 55.3078 784.043 55.3603C787.803 57.3526 784.578 55.419 786.658 56.2053L788.676 58.1371C800.03 64.5404 813.725 76.7317 817.926 90.4187L818.026 89.2976C818.809 92.3287 819.997 95.0884 818.452 97.6725C817.936 98.3158 817.423 98.6795 816.47 98.875C815.234 99.0225 814.868 97.6571 815.013 97.0979C815.158 95.6964 815.699 94.4198 816.513 93.1847C816.644 92.5332 816.822 91.8926 817.021 91.2575C816.718 92.3052 818.132 90.5182 817.626 92.1396C818.276 90.5137 819.356 88.952 820.259 87.3659C819.581 88.2336 818.986 89.1447 818.37 90.0522C819.163 87.9051 820.809 85.8911 821.536 85.4405C824.038 81.2368 819.165 87.4183 818.348 88.267C816.897 91.4158 816.057 92.9168 815.211 94.483C814.816 95.2938 814.363 96.0285 814.266 97.3531C814.067 97.677 814.452 99.7155 816.471 99.6567C817.961 99.3292 818.373 99.1763 819.325 97.9602C820.943 93.2073 819.021 98.3557 818.666 97.802Z" fill="#DBE23F"/>
<path d="M817.316 93.0634C817.443 92.6653 817.548 92.3658 817.625 92.1387L817.316 93.0634Z" fill="#DBE23F"/>
<path d="M739.066 44.6165C738.515 44.5957 737.857 44.6418 736.988 44.7124C736.289 44.8745 737.408 44.6745 739.066 44.6165Z" fill="#DBE23F"/>
<path d="M821.548 85.4305L821.535 85.4397L821.511 85.4829L821.548 85.4305Z" fill="#DBE23F"/>
<path d="M822.632 82.2275L821.5 83.6959L821.855 83.5377L822.632 82.2275Z" fill="#DBE23F"/>
<path d="M718.265 46.3718L718.29 46.581C718.461 46.4832 718.519 46.4035 718.265 46.3718Z" fill="#DBE23F"/>
<path d="M666.048 65.6269L667.109 65.0932C666.767 65.2328 666.392 65.4312 666.048 65.6269Z" fill="#DBE23F"/>
<path d="M545.205 119.654C541.748 120.777 537.1 122.137 534.584 123.114L534.773 122.846C532.908 123.412 526.822 125.184 530.906 124.609L531.822 124.204C536.26 122.841 535.197 123.734 538.769 122.975C542.974 121.754 545.124 120.329 548.874 119.401C550.495 118.897 550.315 119.173 549.894 119.463C553.621 118.388 554.837 117.353 557.337 116.458C558.964 117.645 568.415 112.265 574.13 111.142C577.454 109.74 582.001 108.129 586.105 106.076C584.029 107.37 590.121 104.459 589.396 105.239C590.167 103.941 601.689 100.387 601.857 98.9755C607.658 96.6963 602.06 98.8108 608.693 96.0584C608.752 96.1778 607.658 96.6927 607.238 96.9071C609.941 95.9199 610.935 94.6251 613.324 94.0913C618.531 91.6945 614.045 93.3901 616.928 91.6565C622.358 89.1629 620.936 90.0432 624.135 89.0026C624.317 88.286 627.649 86.9325 630.078 85.3745C629.424 85.674 625.75 87.3957 628 86.0231C634.221 82.9839 632.74 83.2128 638.393 80.1356C641.635 79.1684 632.676 83.0997 637.983 80.9228C634.508 83.0427 631.729 84.4217 630.014 85.7997C634.942 83.3504 640.83 80.198 645.994 77.1976C648.986 75.73 644.64 78.2373 646.996 77.0719C652.398 74.5539 654.723 72.2918 659.072 70.322L658.371 71.0541C660.715 69.344 667.705 66.2586 672.504 63.6048C671.799 63.7749 671.32 63.8916 671.922 63.4727C672.272 64.2382 678.531 59.5883 683.906 58.0502C683.291 57.8194 687.969 55.2942 691.17 54.1351C692.348 53.8474 692.195 54.1297 692.24 54.2582C686.896 55.8597 687.525 56.7789 683.629 58.6383C686.793 56.8839 692.471 54.9385 695.318 53.5777L694.318 54.3739C699.047 52.662 698.101 52.0079 703.302 50.8072L702.911 51.2325C713.059 47.9689 725.536 46.2479 734.05 45.1694C734.798 44.9106 730.388 44.5306 730.136 44.4564C725.007 45.2373 722.138 46.0488 718.357 47.0315L718.291 46.5818C717.467 47.0053 712.924 48.148 715.527 47.844C712.509 48.804 713.097 48.0231 709.619 49.1433C709.75 48.6203 711.867 48.0457 711.797 47.6539L708.766 48.642C709.678 48.2276 706.838 48.9523 707.731 48.5398C702.292 50.7828 699.676 50.5294 694.086 52.9498L697.305 51.8514C697.377 52.1092 695.547 52.7562 694.217 53.3307C692.512 53.566 691.608 53.9361 688.61 54.8952C686.245 56.1438 685.1 57.1607 681.788 58.5822C682.233 57.7842 676.181 60.7718 675.386 60.7501C674.943 61.5056 669.241 64.002 668.956 64.487C667.296 65.447 664.935 66.6114 664.811 66.3635C665.055 66.2223 665.526 65.9229 666.049 65.6279L664.336 66.4929C664.467 66.3581 664.387 66.349 664.576 66.2405C663.055 67.0168 663.242 67.3398 661.162 68.1379C661.109 68.0121 662.156 67.4719 662.986 66.9788C658.914 68.9974 656.353 71.3218 652.775 72.6781C652.252 73.2255 647.619 75.6822 648.923 75.6107C647.568 76.1029 647.796 75.5021 644.448 77.3353C642.757 78.7359 640.569 79.1638 638.161 80.7436C641.335 78.5594 638.1 80.6251 640.856 78.6798C638.444 79.7185 635.336 82.0203 631.249 84.0018C630.788 84.114 630.722 83.9937 630.247 84.114C628.823 85.0134 627.29 86.2014 625.634 86.6085L625.988 86.7967C623.131 88.0372 619.328 90.0233 616.164 91.1561L612.984 93.3611C607.963 95.0359 601.91 98.4506 598.394 100.614C596.63 101.361 593.941 102.406 593.896 102.281C594.279 102.062 594.923 101.679 595.697 101.251C593.111 102.369 589.781 103.387 588.564 104.458C585.964 105.714 586.443 104.954 584.419 105.7C579.345 108.606 568.128 111.462 566.88 113.041C569.15 112.228 573.515 110.86 577.761 109.163C576.685 109.718 577.654 109.575 576.089 110.199C571.819 111.888 569.439 112.332 565.175 114.032L565.423 113.212C557.736 115.179 551.496 118.868 545.205 119.654Z" fill="#DBE23F"/>
<path d="M600.117 99.1944L596.931 100.227L597.398 100.351C598.31 99.8948 599.259 99.4649 600.117 99.1944Z" fill="#DBE23F"/>
<path d="M597.398 100.35C596.791 100.651 596.21 100.961 595.697 101.247C596.363 100.964 596.996 100.674 597.508 100.386L597.398 100.35Z" fill="#DBE23F"/>
<path d="M532.377 123.146C531.65 123.289 530.225 123.57 528.828 123.981C529.783 123.839 531.681 123.42 532.377 123.146Z" fill="#DBE23F"/>
<path d="M528.63 124.243L530.304 123.962L530.519 123.829L528.63 124.243Z" fill="#DBE23F"/>
<path d="M431.31 123.401C429.563 122.953 427.784 122.561 426.045 122.062C425.252 121.542 419.464 119.601 421.462 119.979C418.263 119.249 412.198 115.913 414.189 117.607C428.396 124.304 449.962 130.418 468.558 130.642C467.562 130.667 466.56 130.737 465.562 130.726C475.176 130.858 478.765 131.96 486.457 130.657L485.449 131.272C489.877 131.301 493.803 130.071 498.431 130.235L497.939 130.042C499.154 129.929 499.648 129.999 500.871 129.876L500.373 129.821C503.527 129.206 505.473 129.067 508.623 128.75C508.875 128.9 507.172 129.041 506.213 129.223C507.68 129.203 510.072 128.475 512.488 128.108C514.426 127.945 512.515 128.372 512.273 128.493C519.478 127.055 522.91 126.962 527.769 125.025C528.224 124.765 525.831 125.138 528.423 124.506C523.64 125.269 519.888 126.385 515.579 127.351L516.79 127.149C513.499 128.525 514.138 127.473 508.614 128.619C510.032 128.071 512.454 127.731 513.387 127.367C506.856 127.758 504.252 129.18 499.864 128.829L500.344 128.762C499.371 128.772 497.684 129.082 496.233 129.291C496.719 129.353 498.163 129.276 499.143 129.27C497.682 129.479 496.965 129.916 496.473 130.119C494.774 129.912 494.285 130.483 491.594 130.467C490.625 130.185 493.797 130.013 494.768 129.767L491.594 130.203C488.674 130.42 488.69 129.996 487.231 129.864C484.78 130.211 488.692 129.998 486.706 130.436C483.552 130.287 470.143 130.282 463.737 129.862C465.951 130.008 464.544 129.598 467.216 129.846C466.249 129.734 462.833 129.552 462.769 129.825C458.323 129.669 452.786 128.655 448.795 127.665L449.904 128.141C446.389 127.936 441.387 126.154 435.473 124.69L435.598 124.732C433.693 124.26 431.841 124.399 428.477 123.107C429.56 123.128 431.388 123.763 431.31 123.401Z" fill="#DBE23F"/>
<path d="M411.27 115.969L413.234 116.49C411.314 115.52 408.681 114.693 408.963 115.095C410.26 115.731 411.942 116.663 412.287 116.603C412.086 116.446 412.172 116.341 411.27 115.969Z" fill="#DBE23F"/>
<path d="M378.263 93.6714C377.632 93.2127 377.667 93.4435 377.349 93.2969C383.541 98.9293 392.113 104.904 394.762 106.983C397.124 108.607 397.851 108.515 401.027 110.247L402.209 111.383C403.984 112.239 409.053 115.355 407.537 113.846C407.365 113.682 405.85 113.309 404.454 112.391L404.808 112.349L401.46 110.47L402.669 110.866C398.401 107.923 399.042 109.64 393.81 105.953L394.205 105.56C390.738 103.082 388.848 101.987 386.156 99.4279C386.156 99.4279 385.943 99.6098 386.582 99.9644C387.127 100.424 387.703 101.15 387.201 100.968C381.825 97.3513 388.201 101.326 384.832 98.4335C380.287 95.3427 372.426 88.5503 370.76 86.0729C372.323 88.0508 369.279 85.6893 367.28 83.439C366.503 82.3135 368.2 83.9394 368.655 84.1828C367.754 83.1251 367.094 82.2094 366.068 81.2277C367.062 82.7496 365.921 82.1389 363.53 79.847C368.125 85.3582 372.902 88.8072 378.263 93.6714Z" fill="#DBE23F"/>
<path d="M376.324 92.5305C376.892 93.0254 377.171 93.2155 377.349 93.2969L375.203 91.3498L376.324 92.5305Z" fill="#DBE23F"/>
<path d="M80.205 51.0235C80.7731 58.7188 92.3694 54.8047 85.174 49.4681C87.5613 50.0327 90.1538 50.3078 91.9367 48.3172C95.3907 45.0283 91.3794 42.464 90.8583 42.4758C90.511 42.1193 86.8274 41.7754 84.3478 43.7995C86.5212 42.9752 89.1824 36.7864 84.2899 36.0391C76.9051 34.9162 80.0902 41.933 80.1746 42.674C79.2512 41.0092 75.4754 36.9709 73.1813 39.6094C72.4453 40.2192 72.0617 41.9673 72.4316 42.9997C73.3167 45.7675 74.8131 45.895 78.0688 46.8053C67.1221 47.0686 76.4164 58.6265 80.205 51.0235Z" fill="#FF9670" stroke="#FF9670" stroke-width="0.505"/>
<path d="M2.41126 97.2526C-3.36726 101.756 4.54055 104.767 5.16952 98.1538C5.36479 99.283 5.54534 101.13 6.89454 101.487C9.22695 102.297 9.41044 100.393 9.2976 100.176C9.40651 99.9589 8.96201 97.9865 7.341 97.6761C8.4184 97.6607 11.8086 98.3275 11.2051 96.1035C10.2906 92.7404 7.42342 95.4955 7.07116 95.6783C7.71681 94.9508 8.98164 92.5458 7.20363 92.0979C6.74931 91.907 5.80046 92.0943 5.35792 92.4562C4.15198 93.3837 4.38845 94.0452 4.58764 95.6105C0.414431 89.9708 -2.13875 97.1594 2.41126 97.2526Z" fill="#D6DE23"/>
<path d="M1001.24 20.3487C1000.36 30.0382 1011.37 25.8182 1004.92 18.7318C1006.32 19.6647 1008.47 21.3205 1010.18 20.4473C1013.34 19.1254 1011.49 17.0814 1011.15 16.9693C1011.02 16.6571 1008.48 15.1171 1006.55 16.2852C1007.6 15.2936 1011.65 12.8677 1008.67 11.2255C1004.18 8.74364 1004.3 14.063 1004.15 14.5633C1004.01 13.2604 1002.68 9.74163 1000.45 10.9152C999.801 11.1386 999.067 12.1846 999.019 12.9464C998.822 14.956 999.761 15.393 1001.63 16.7548C991.497 14.9886 996.659 24.3932 1001.24 20.3487Z" fill="#F2AECB"/>
<path d="M953.531 13.5029C960.47 9.66654 954.439 0.345302 949.224 9.08934C949.433 6.4464 948.629 3.23889 945.744 1.77944C940.872 -1.16209 939.337 3.05156 939.464 3.59987C939.088 4.04504 938.958 8.71927 942.5 10.1968C940.02 9.71456 932.639 6.59111 932.726 11.915C932.862 19.9632 941.04 15.0918 941.951 14.8457C940.05 16.1775 935.75 21.0328 939.561 22.8885C940.484 23.5382 942.768 23.5689 943.99 22.9554C947.294 21.4281 947.143 19.8194 947.609 16.1857C950.237 27.6949 963.91 15.878 953.531 13.5029Z" fill="#FFC400"/>
</svg>
